<?xml version="1.0" encoding="UTF-8" standalone="no"?>
<!-- Created with Inkscape (http://www.inkscape.org/) -->

<svg
   xmlns:dc="http://purl.org/dc/elements/1.1/"
   xmlns:cc="http://creativecommons.org/ns#"
   xmlns:rdf="http://www.w3.org/1999/02/22-rdf-syntax-ns#"
   xmlns:svg="http://www.w3.org/2000/svg"
   xmlns="http://www.w3.org/2000/svg"
   xmlns:sodipodi="http://sodipodi.sourceforge.net/DTD/sodipodi-0.dtd"
   xmlns:inkscape="http://www.inkscape.org/namespaces/inkscape"
   sodipodi:docname="reddit-snoo-meetup.svg"
   width="100.0mm"
   height="100.0mm"
   viewBox="0 0 100.0 100.0"
   version="1.1"
   id="svg8"
   inkscape:version="0.92.4 (5da689c313, 2019-01-14)">
  <defs
     id="defs2" />
  <sodipodi:namedview
     id="base"
     pagecolor="#ffffff"
     bordercolor="#666666"
     borderopacity="1.0"
     inkscape:pageopacity="0.0"
     inkscape:pageshadow="2"
     inkscape:zoom="2.8"
     inkscape:cx="164.38889"
     inkscape:cy="205.52381"
     inkscape:document-units="mm"
     inkscape:current-layer="g826"
     showgrid="true"
     inkscape:window-width="1920"
     inkscape:window-height="1017"
     inkscape:window-x="1672"
     inkscape:window-y="-8"
     inkscape:window-maximized="1"
     inkscape:snap-global="false"
     borderlayer="true">
    <inkscape:grid
       id="grid816"
       units="mm"
       type="xygrid"
       empspacing="1"
       spacingy="2.54"
       spacingx="2.54" />
  </sodipodi:namedview>
  <metadata
     id="metadata5">
    <rdf:RDF>
      <cc:Work
         rdf:about="">
        <dc:format>image/svg+xml</dc:format>
        <dc:type
           rdf:resource="http://purl.org/dc/dcmitype/StillImage" />
        <dc:title />
      </cc:Work>
    </rdf:RDF>
  </metadata>
  <g
     id="g822"
     sodipodi:insensitive="true"
     inkscape:groupmode="layer"
     inkscape:label="[fixed] BG">
    <rect
       id="rect820"
       style="stroke:none;fill-opacity:1;fill:#FFFFFF"
       height="100.0"
       width="100.0"
       y="0"
       x="0" />
  </g>
  <g
     id="g824"
     inkscape:groupmode="layer"
     inkscape:label="Edge.Cuts"
     style="display:none"
     sodipodi:insensitive="true">
    <g
       transform="matrix(0.35210845,0,0,0.35210845,39.816405,23.363765)"
       id="g909" />
    <path
       inkscape:connector-curvature="0"
       id="path983"
       d="m 35.269142,85.883875 -0.06542,-0.04619 -0.06969,-0.08481 -0.142906,-0.264575 -0.13217,-0.356307 -0.102895,-0.406196 -0.05415,-0.399531 -0.0134,-0.427354 0.02542,-0.444399 0.06233,-0.450664 0.09732,-0.446152 0.130388,-0.430863 0.161538,-0.404794 0.190771,-0.367947 0.225322,-0.352461 0.247748,-0.334516 0.269343,-0.31611 0.290104,-0.297244 0.310033,-0.277917 0.32913,-0.258128 0.347394,-0.23788 0.364827,-0.217169 0.381426,-0.195999 0.397193,-0.174367 0.412128,-0.152275 0.42623,-0.129721 0.4395,-0.106707 0.451938,-0.08323 0.463543,-0.0593 0.474316,-0.0349 0.670826,-0.03885 -0.160136,-0.396926 -0.233581,-0.584231 -0.31444,-0.858549 -0.37202,-1.053897 -0.614027,-0.223016 -0.485229,-0.193728 -0.472752,-0.223806 -0.45948,-0.253031 -0.445412,-0.281406 -0.430548,-0.308929 -0.414891,-0.335601 -0.398436,-0.361421 -0.381188,-0.386389 -0.363143,-0.410506 -0.344303,-0.433772 -0.324669,-0.456186 -0.304238,-0.477748 -0.283012,-0.49846 -0.260991,-0.518319 -0.238175,-0.537327 -0.214563,-0.555484 -0.209046,-0.63425 -0.176205,-0.644666 -0.143465,-0.653141 -0.110827,-0.659676 -0.07829,-0.664268 -0.04586,-0.66692 -0.01352,-0.667631 0.01871,-0.666401 0.05084,-0.663229 0.08287,-0.658117 0.114797,-0.651063 0.146623,-0.642068 0.178347,-0.631132 0.209969,-0.618256 0.241491,-0.603438 0.272911,-0.586678 0.378385,-0.689887 0.433383,-0.670808 0.478734,-0.641197 0.514437,-0.601059 0.540493,-0.550388 0.556902,-0.48919 0.28159,-0.218355 0.282074,-0.199106 0.281353,-0.178541 0.279425,-0.15666 0.307852,-0.173997 0.128158,-0.09858 -0.07326,-0.04828 -0.199598,-0.09829 -0.656274,-0.289375 -0.944795,-0.432636 -1.024446,-0.529052 -1.015078,-0.577184 -0.916693,-0.577032 -0.831644,-0.585064 -0.783916,-0.609303 -0.735412,-0.632289 -0.686134,-0.654018 -0.63608,-0.674492 -0.58525,-0.69371 -0.533645,-0.711674 -0.481264,-0.728382 -0.428109,-0.743834 -0.374177,-0.758032 -0.319471,-0.770974 -0.263989,-0.78266 -0.207731,-0.793092 -0.150698,-0.802267 -0.09289,-0.810189 -0.03431,-0.816853 0.01169,-0.838147 0.03605,-0.635517 0.05344,-0.491221 -0.504953,-0.389798 -0.362531,-0.305747 -0.337933,-0.337804 -0.311841,-0.367604 -0.284256,-0.395145 -0.255177,-0.420427 -0.224604,-0.443452 -0.192538,-0.464219 -0.158979,-0.482727 -0.08777,-0.376219 -0.06238,-0.421502 -0.03702,-0.450987 -0.01169,-0.464674 0.0136,-0.462563 0.03886,-0.444653 0.0641,-0.410945 0.08929,-0.361438 0.131446,-0.388594 0.15092,-0.374554 0.169939,-0.360048 0.188499,-0.345075 0.206603,-0.329635 0.224249,-0.313729 0.241437,-0.297355 0.258169,-0.280514 0.274444,-0.263208 0.29026,-0.245433 0.30562,-0.227193 0.320523,-0.208485 0.334967,-0.189311 0.348956,-0.169669 0.362486,-0.149562 0.37556,-0.128987 0.362737,-0.09031 0.41191,-0.06445 0.444566,-0.03859 0.460705,-0.01274 0.460327,0.0131 0.443433,0.03894 0.410022,0.06476 0.360094,0.09059 0.543157,0.192801 0.503827,0.22424 0.458731,0.252823 0.407872,0.278548 0.289002,0.206516 0.156892,0.0859 0.217529,-0.107765 0.434789,-0.259095 0.806446,-0.471066 0.885805,-0.46104 0.950258,-0.44502 0.999804,-0.423007 1.034447,-0.394999 1.054182,-0.360998 1.059013,-0.321003 1.048937,-0.275014 0.812965,-0.189389 0.751776,-0.160774 0.71323,-0.135532 0.697325,-0.113664 0.704063,-0.09517 0.733443,-0.08005 1.645596,-0.128244 1.055309,-0.08174 0.332343,-0.03758 0.135498,-0.0289 0.160371,-0.448115 0.316109,-0.999288 0.66127,-2.128626 0.68734,-2.210496 1.442712,-4.629719 0.364336,-1.099314 0.10797,-0.292637 0.06424,-0.139144 0.07405,-0.08685 0.105802,-0.09025 0.123437,-0.08299 0.126957,-0.06505 0.123258,-0.04538 0.149558,-0.02057 0.230144,0.0147 0.36502,0.06042 1.351817,0.299825 2.542773,0.608169 3.64323,0.869683 1.52844,0.367764 0.03834,0.0037 0.03989,-0.01188 0.08863,-0.0754 0.107436,-0.152393 0.134645,-0.239142 0.240435,-0.392535 0.295784,-0.378063 0.343695,-0.357734 0.384167,-0.331548 0.417202,-0.299505 0.442797,-0.261604 0.460955,-0.217846 0.471675,-0.168231 0.276244,-0.06506 0.320161,-0.046469 0.349441,-0.027881 0.364079,-0.00929 0.364079,0.00929 0.349441,0.027881 0.320161,0.046469 0.276244,0.06506 0.406126,0.139198 0.388547,0.16939 0.369778,0.197997 0.349819,0.225017 0.328671,0.250452 0.306332,0.2743 0.282804,0.296562 0.258087,0.317239 0.232179,0.336329 0.205082,0.353834 0.176795,0.369752 0.147318,0.384084 0.116652,0.396831 0.0848,0.407991 0.05175,0.417565 0.01751,0.425554 -0.01839,0.428383 -0.05418,0.421555 -0.0885,0.412798 -0.121363,0.402111 -0.152755,0.389494 -0.18268,0.374949 -0.211136,0.358474 -0.238126,0.34007 -0.263649,0.319737 -0.287703,0.297473 -0.310292,0.273281 -0.331413,0.24716 -0.351066,0.219108 -0.369252,0.189128 -0.385972,0.157219 -0.401223,0.123379 -0.276077,0.05788 -0.310207,0.04137 -0.333081,0.02484 -0.344696,0.0083 -0.345056,-0.0082 -0.334156,-0.02473 -0.312,-0.04127 -0.278587,-0.0578 -0.378971,-0.116014 -0.374253,-0.151776 -0.365498,-0.184851 -0.352708,-0.21524 -0.335879,-0.242943 -0.315015,-0.26796 -0.290112,-0.29029 -0.261174,-0.309935 -0.220269,-0.315143 -0.204691,-0.348983 -0.184915,-0.37184 -0.160939,-0.38371 -0.132762,-0.384594 -0.100387,-0.374495 -0.06381,-0.353408 -0.02304,-0.321338 -10e-4,-0.291748 -1.73975,-0.423248 -4.15491,-1.000855 -2.5507,-0.618417 -0.0523,0.0062 -0.05697,0.0526 -0.06379,0.104275 -0.07276,0.161208 -0.180979,0.514255 -0.242548,0.805113 -0.6543,2.128625 -1.573638,5.071749 -0.288577,0.963002 -0.07623,0.306344 0.03406,0.03422 0.09448,0.02715 0.324076,0.02435 0.722257,0.03799 1.022942,0.09785 1.101502,0.133514 0.957939,0.144989 1.400061,0.274782 1.362574,0.325537 1.322394,0.375333 1.279518,0.424166 0.622839,0.230096 0.611109,0.241944 0.599042,0.253672 0.586639,0.26528 0.573899,0.276768 0.560821,0.288135 0.547407,0.299383 0.533657,0.31051 0.631989,0.369308 0.295741,0.153606 0.140016,-0.08168 0.257534,-0.196385 0.199482,-0.151379 0.224962,-0.150842 0.505672,-0.289355 0.545514,-0.255057 0.54397,-0.199323 0.362739,-0.09031 0.411911,-0.06445 0.444567,-0.03859 0.460706,-0.01274 0.460327,0.0131 0.443433,0.03894 0.410023,0.06476 0.360094,0.09059 0.382724,0.132611 0.369472,0.153033 0.355614,0.17284 0.341146,0.192036 0.326073,0.210619 0.31039,0.228588 0.2941,0.245944 0.277202,0.262688 0.259697,0.278819 0.241584,0.294337 0.222864,0.309242 0.203534,0.323533 0.183599,0.337213 0.163055,0.350279 0.141902,0.362732 0.120144,0.374573 0.08842,0.38249 0.06315,0.431829 0.03789,0.464722 0.01263,0.481169 -0.01263,0.481169 -0.03789,0.464722 -0.06315,0.431829 -0.08842,0.38249 -0.155125,0.46241 -0.196991,0.456615 -0.234979,0.445138 -0.269088,0.427976 -0.299319,0.40513 -0.325673,0.376601 -0.348149,0.342389 -0.366746,0.302493 -0.55264,0.413868 -0.01,1.663175 -0.02062,1.101854 -0.02641,0.422772 -0.04306,0.378342 -0.06414,0.364666 -0.08966,0.381745 -0.27364,0.937745 -0.209101,0.613276 -0.24523,0.606851 -0.280753,0.599712 -0.315666,0.591858 -0.349972,0.583287 -0.383671,0.574003 -0.416762,0.564001 -0.449245,0.553286 -0.481121,0.541855 -0.512388,0.529708 -0.543048,0.516847 -0.573101,0.503269 -0.602545,0.488978 -0.631382,0.473969 -0.659612,0.458247 -0.687233,0.441808 -0.752607,0.429171 -1.007254,0.527702 -1.078139,0.532784 -0.96526,0.444418 -0.28284,0.123167 0.56939,0.335172 0.413722,0.258547 0.400471,0.280498 0.386698,0.301745 0.372401,0.322288 0.357582,0.342126 0.342239,0.36126 0.326373,0.37969 0.309984,0.397416 0.293072,0.414438 0.275637,0.430755 0.257679,0.446368 0.239197,0.461277 0.220193,0.475482 0.200666,0.488982 0.180615,0.501778 0.160041,0.513871 0.159966,0.605924 0.132112,0.608639 0.104332,0.610378 0.07663,0.611143 0.049,0.610932 0.02145,0.609746 -0.006,0.607584 -0.03342,0.604446 -0.06074,0.600333 -0.08798,0.595245 -0.115154,0.589182 -0.142247,0.582142 -0.169264,0.574127 -0.196203,0.565138 -0.223068,0.555172 -0.249855,0.544231 -0.218682,0.424177 -0.235492,0.412914 -0.251401,0.400761 -0.266408,0.387721 -0.280512,0.373791 -0.293714,0.358972 -0.306014,0.343264 -0.317412,0.326668 -0.327908,0.309182 -0.337501,0.290808 -0.346193,0.271544 -0.353983,0.251392 -0.360869,0.230351 -0.366855,0.208421 -0.371938,0.185601 -0.376118,0.161894 -0.88908,0.354641 -0.08967,0.0601 -0.08033,0.105867 -0.07421,0.157104 -0.07131,0.213809 -0.200693,0.594687 -0.293587,0.779863 -0.254118,0.664751 -0.105782,0.317927 0.01752,0.02419 0.04781,0.01341 0.157293,-0.0092 0.147347,-0.01078 0.236505,0.0021 0.610038,0.03903 0.442179,0.05417 0.432951,0.07761 0.422687,0.100403 0.411383,0.122561 0.399043,0.144078 0.385666,0.164956 0.37125,0.185195 0.355797,0.204793 0.339307,0.223752 0.321779,0.242071 0.303212,0.259751 0.28361,0.276791 0.262969,0.293191 0.241291,0.308952 0.218575,0.324072 0.194821,0.338554 0.163651,0.330094 0.135207,0.319056 0.107927,0.313307 0.08181,0.312847 0.05685,0.317676 0.03306,0.327793 0.01044,0.343201 -0.01103,0.363895 -0.04856,0.587168 -0.07529,0.43751 -0.05067,0.174912 -0.06096,0.152231 -0.07245,0.134462 -0.08514,0.121604 -0.16845,0.214153 -16.10202,-0.0065 -11.402762,-0.01693 -3.492657,-0.01474 -1.311136,-0.01682 -2.17e-4,9.2e-5"
       style="display:inline;fill:none;stroke:#000000;stroke-width:0.08187023;stroke-opacity:1"
       sodipodi:nodetypes="ccscccscssscccscccsscsccscsccsccccsccccssscccccscccssscscccccccccscccccsccscscccccccc" />
  </g>
  <g
     id="g826"
     inkscape:groupmode="layer"
     inkscape:label="B.Cu">
    <path
       id="path1071"
       d="M 193.66406 94.605469 C 171.63217 95.426352 149.91158 101.28311 131.125 113.01758 C 119.15329 99.010173 93.697893 110.79239 102.0918 129.2207 C 113.95306 137.61798 110.01587 149.23432 113.32617 162.2168 C 120.74489 184.32847 144.32069 190.69723 161.53125 202.72852 C 138.41241 214.15609 124.84868 244.19617 141.95312 266.72266 C 150.16687 276.55314 163.7675 277.78454 165.21484 292.31641 C 177.42634 310.68553 141.54416 295.57956 139.11133 313.9668 C 149.80334 321.41966 176.3981 315.01332 193.06641 317.2207 C 211.4151 316.10124 234.25757 319.44325 249.98828 315.7168 C 249.54502 297.61976 217.96149 309.47947 223.73828 291.31055 C 225.20582 273.92859 248.6913 274.85166 251.81055 257.50195 C 261.20283 234.58316 246.04691 209.32332 223.25781 202.06445 C 250.67276 193.13047 283.19091 172.50981 277.51562 139.02344 C 298.18031 131.95712 286.50922 97.907467 266.26562 108.23242 C 253.35375 119.53853 239.98054 98.795086 225.01562 98.931641 C 214.83625 96.287547 203.71266 95.196757 193.66406 94.605469 z M 164.74023 124.01172 C 167.42701 124.00757 168.71421 124.46432 171.23633 126.07617 C 175.89184 129.05145 178.5932 134.88332 177.75781 140.15234 C 177.04182 144.66831 173.90849 148.81178 169.61328 150.92188 C 167.69241 151.86553 167.1663 151.98146 164.50781 152.05273 C 162.28673 152.11226 161.19577 151.99759 160.15234 151.5957 C 154.55438 149.43961 151.12913 145.4273 150.26367 140.00977 C 149.36645 134.3934 152.76344 128.14 158.29492 125.22461 C 160.13074 124.25704 160.58407 124.15199 163.49414 124.03906 C 163.94275 124.02165 164.35641 124.01231 164.74023 124.01172 z M 225.44141 124.14258 C 228.93131 124.14258 229.0923 124.17184 231.17188 125.22461 C 236.88104 128.11433 240.18157 134.66049 238.9375 140.62695 C 237.94261 145.39843 235.30299 148.83854 231.10938 150.83008 C 228.98861 151.83724 228.38904 151.98015 225.91602 152.06445 C 223.74335 152.13853 222.76298 152.02722 221.51562 151.56445 C 217.1638 149.94985 214.66066 147.72138 212.78125 143.79102 C 211.71482 141.56085 211.67187 141.3371 211.67188 138.05078 C 211.67188 134.71898 211.70255 134.57105 212.83984 132.26953 C 214.34202 129.23007 216.82995 126.67571 219.70508 125.22461 C 221.78987 124.17238 221.95268 124.14258 225.44141 124.14258 z "
       style="display:inline;fill:#000000;fill-opacity:1;stroke:#000000;stroke-width:0.30943078;stroke-opacity:1"
       transform="scale(0.26458333)" />
  </g>
  <g
     id="g828"
     inkscape:groupmode="layer"
     inkscape:label="B.Mask"
     style="display:none">
    <path
       sodipodi:nodetypes="cssssscccccsccsccccc"
       style="display:inline;fill:#000000;stroke-width:0.08187023"
       d="m 42.373574,40.109798 c -1.481128,-0.570467 -2.387212,-1.632189 -2.616197,-3.065578 -0.23739,-1.485996 0.661438,-3.140751 2.124975,-3.912115 0.485726,-0.256004 0.605757,-0.283332 1.375712,-0.313212 0.94955,-0.03685 1.28562,0.05158 2.04826,0.538973 1.23177,0.787209 1.94666,2.330016 1.72563,3.724111 -0.18944,1.19485 -1.01844,2.291002 -2.15488,2.849299 -0.50823,0.249676 -0.64747,0.280537 -1.350861,0.299394 -0.587661,0.01575 -0.876566,-0.01454 -1.152639,-0.120872 z m 16.23593,-0.0086 c -1.15142,-0.427197 -1.81366,-1.016498 -2.31092,-2.056407 -0.28216,-0.590064 -0.29362,-0.649339 -0.29362,-1.518845 0,-0.881538 0.008,-0.920901 0.30891,-1.529844 0.39745,-0.80419 1.05581,-1.479589 1.81652,-1.863525 0.5516,-0.278403 0.59474,-0.286545 1.5178,-0.286545 0.92337,0 0.96596,0.008 1.51618,0.286545 1.51055,0.764571 2.38369,2.496355 2.05453,4.074982 -0.26323,1.262452 -0.96148,2.172595 -2.07104,2.699524 -0.56112,0.266477 -0.71969,0.304151 -1.37401,0.326456 -0.57485,0.0196 -0.83432,-0.0099 -1.16435,-0.132341 z"
       id="path1035"
       inkscape:connector-curvature="0" />
  </g>
  <g
     id="g830"
     inkscape:groupmode="layer"
     inkscape:label="B.Silk-disabled" />
  <g
     id="g832"
     inkscape:groupmode="layer"
     inkscape:label="F.Cu"
     style="display:inline">
    <path
       style="display:inline;fill:#000000;fill-opacity:1;stroke:#000000;stroke-width:0.30943078;stroke-opacity:1"
       d="M 193.66406 94.605469 C 171.63217 95.426352 149.91158 101.28311 131.125 113.01758 C 119.15329 99.010173 93.697893 110.79239 102.0918 129.2207 C 113.95306 137.61798 110.01587 149.23432 113.32617 162.2168 C 120.74489 184.32847 144.32069 190.69723 161.53125 202.72852 C 138.41241 214.15609 124.84868 244.19617 141.95312 266.72266 C 150.16687 276.55314 163.7675 277.78454 165.21484 292.31641 C 177.42634 310.68553 141.54416 295.57956 139.11133 313.9668 C 149.80334 321.41966 176.3981 315.01332 193.06641 317.2207 C 211.4151 316.10124 234.25757 319.44325 249.98828 315.7168 C 249.54502 297.61976 217.96149 309.47947 223.73828 291.31055 C 225.20582 273.92859 248.6913 274.85166 251.81055 257.50195 C 261.20283 234.58316 246.04691 209.32332 223.25781 202.06445 C 250.67276 193.13047 283.19091 172.50981 277.51562 139.02344 C 298.18031 131.95712 286.50922 97.907467 266.26562 108.23242 C 253.35375 119.53853 239.98054 98.795086 225.01562 98.931641 C 214.83625 96.287547 203.71266 95.196757 193.66406 94.605469 z M 164.74023 124.01172 C 167.42701 124.00757 168.71421 124.46432 171.23633 126.07617 C 175.89184 129.05145 178.5932 134.88332 177.75781 140.15234 C 177.04182 144.66831 173.90849 148.81178 169.61328 150.92188 C 167.69241 151.86553 167.1663 151.98146 164.50781 152.05273 C 162.28673 152.11226 161.19577 151.99759 160.15234 151.5957 C 154.55438 149.43961 151.12913 145.4273 150.26367 140.00977 C 149.36645 134.3934 152.76344 128.14 158.29492 125.22461 C 160.13074 124.25704 160.58407 124.15199 163.49414 124.03906 C 163.94275 124.02165 164.35641 124.01231 164.74023 124.01172 z M 225.44141 124.14258 C 228.93131 124.14258 229.0923 124.17184 231.17188 125.22461 C 236.88104 128.11433 240.18157 134.66049 238.9375 140.62695 C 237.94261 145.39843 235.30299 148.83854 231.10938 150.83008 C 228.98861 151.83724 228.38904 151.98015 225.91602 152.06445 C 223.74335 152.13853 222.76298 152.02722 221.51562 151.56445 C 217.1638 149.94985 214.66066 147.72138 212.78125 143.79102 C 211.71482 141.56085 211.67187 141.3371 211.67188 138.05078 C 211.67188 134.71898 211.70255 134.57105 212.83984 132.26953 C 214.34202 129.23007 216.82995 126.67571 219.70508 125.22461 C 221.78987 124.17238 221.95268 124.14258 225.44141 124.14258 z "
       transform="scale(0.26458333)"
       id="path1060" />
  </g>
  <g
     id="g834"
     inkscape:groupmode="layer"
     inkscape:label="F.Mask"
     style="display:none">
    <path
       inkscape:connector-curvature="0"
       id="path1032"
       d="m 42.373574,40.109798 c -1.481128,-0.570467 -2.387212,-1.632189 -2.616197,-3.065578 -0.23739,-1.485996 0.661438,-3.140751 2.124975,-3.912115 0.485726,-0.256004 0.605757,-0.283332 1.375712,-0.313212 0.94955,-0.03685 1.28562,0.05158 2.04826,0.538973 1.23177,0.787209 1.94666,2.330016 1.72563,3.724111 -0.18944,1.19485 -1.01844,2.291002 -2.15488,2.849299 -0.50823,0.249676 -0.64747,0.280537 -1.350861,0.299394 -0.587661,0.01575 -0.876566,-0.01454 -1.152639,-0.120872 z m 16.23593,-0.0086 c -1.15142,-0.427197 -1.81366,-1.016498 -2.31092,-2.056407 -0.28216,-0.590064 -0.29362,-0.649339 -0.29362,-1.518845 0,-0.881538 0.008,-0.920901 0.30891,-1.529844 0.39745,-0.80419 1.05581,-1.479589 1.81652,-1.863525 0.5516,-0.278403 0.59474,-0.286545 1.5178,-0.286545 0.92337,0 0.96596,0.008 1.51618,0.286545 1.51055,0.764571 2.38369,2.496355 2.05453,4.074982 -0.26323,1.262452 -0.96148,2.172595 -2.07104,2.699524 -0.56112,0.266477 -0.71969,0.304151 -1.37401,0.326456 -0.57485,0.0196 -0.83432,-0.0099 -1.16435,-0.132341 z"
       style="display:inline;fill:#000000;stroke-width:0.08187023"
       sodipodi:nodetypes="cssssscccccsccsccccc" />
  </g>
  <g
     id="g836"
     inkscape:groupmode="layer"
     inkscape:label="F.Silk"
     style="display:none">
    <path
       style="fill:#000000;stroke-width:0.08187023"
       d="m 35.269142,85.883875 c -0.1667,-0.06702 -0.403638,-0.60182 -0.513076,-1.158078 -0.200425,-1.01874 0.05422,-2.44922 0.600214,-3.371704 1.140434,-1.926824 3.273243,-3.10767 5.830175,-3.227921 0.360229,-0.01694 0.662101,-0.03442 0.670826,-0.03885 0.0087,-0.0044 -0.06334,-0.18304 -0.160136,-0.396926 -0.0968,-0.213886 -0.34341,-0.863137 -0.548021,-1.44278 l -0.37202,-1.053897 -0.614027,-0.223016 c -2.619747,-0.951496 -4.741072,-3.222629 -5.82103,-6.232113 -1.202669,-3.351439 -0.999782,-7.230124 0.539347,-10.310934 0.927121,-1.855779 2.54379,-3.620359 4.026776,-4.395191 0.239698,-0.125238 0.435904,-0.247897 0.43601,-0.272575 8.2e-5,-0.02468 -0.418005,-0.220851 -0.929137,-0.435942 -1.167061,-0.491111 -2.78391,-1.368088 -3.901012,-2.115904 -4.56133,-3.053468 -7.119352,-7.194739 -7.144716,-11.566833 -0.0031,-0.540344 0.01835,-1.203492 0.04774,-1.473664 l 0.05344,-0.491221 -0.504953,-0.389798 c -0.99822,-0.770575 -1.749989,-1.907182 -2.127859,-3.217125 -0.267932,-0.928829 -0.264685,-2.509197 0.007,-3.392981 0.648296,-2.109109 2.147044,-3.639118 4.184078,-4.271352 0.887053,-0.275314 2.474796,-0.274685 3.353794,0.0013 0.747869,0.234839 1.406225,0.561133 1.913587,0.948412 0.210695,0.160826 0.411347,0.292412 0.445894,0.292412 0.03455,0 0.328089,-0.165087 0.652318,-0.36686 2.031463,-1.264216 5.068409,-2.485422 7.838892,-3.152147 2.269618,-0.546191 3.645038,-0.751158 6.058398,-0.902827 0.81051,-0.05094 1.49593,-0.117638 1.52315,-0.148224 0.0272,-0.03059 0.24163,-0.681916 0.47648,-1.447403 0.23485,-0.765486 0.53242,-1.723368 0.66127,-2.128626 0.12884,-0.405257 0.43814,-1.39998 0.68734,-2.210496 1.32505,-4.309794 1.86243,-5.982519 1.97926,-6.160814 0.0713,-0.108792 0.2649,-0.255109 0.43025,-0.325147 0.34188,-0.14481 0.38521,-0.136465 4.76257,0.917161 1.23829,0.298054 2.87774,0.689412 3.64323,0.869683 0.76549,0.180272 1.45329,0.345766 1.52844,0.367764 0.10109,0.02959 0.20753,-0.09408 0.40893,-0.475107 0.56075,-1.060849 1.79123,-2.02981 3.05671,-2.407066 0.66508,-0.1982677 1.95477,-0.1982677 2.61985,0 2.21077,0.659056 3.72225,2.673993 3.72225,4.962095 0,2.299489 -1.58978,4.389963 -3.7677,4.954319 -0.68069,0.176385 -1.84552,0.176589 -2.53386,4.09e-4 -1.01329,-0.259301 -2.01932,-0.928712 -2.67361,-1.779009 -0.60442,-0.785494 -1.08748,-2.049137 -1.09081,-2.853511 l -10e-4,-0.291748 -1.73975,-0.423248 c -0.95685,-0.232787 -2.82656,-0.683171 -4.15491,-1.000855 -1.32834,-0.317683 -2.47616,-0.595971 -2.5507,-0.618417 -0.13512,-0.04069 -0.29729,0.357553 -0.66935,1.643648 -0.0651,0.225143 -0.35957,1.183024 -0.6543,2.128625 -1.61178,5.171196 -1.93844,6.239769 -1.93844,6.341095 0,0.04937 0.19191,0.08572 0.45262,0.08572 0.66383,0 2.72182,0.224124 3.80464,0.414342 3.78108,0.664222 7.19106,1.880092 9.99996,3.565606 0.47929,0.287602 0.89677,0.522914 0.92773,0.522914 0.031,0 0.20986,-0.125131 0.39755,-0.278068 0.49338,-0.402012 1.31373,-0.826873 2.0196,-1.045956 0.88706,-0.275314 2.4748,-0.274685 3.3538,0.0013 2.07545,0.651714 3.61144,2.200882 4.1931,4.229087 0.26946,0.939567 0.26946,2.580853 0,3.52042 -0.3544,1.235767 -1.19673,2.470352 -2.19607,3.218752 l -0.55264,0.413868 -0.01,1.663175 c -0.0107,1.778981 -0.057,2.099891 -0.51752,3.587124 -1.01778,3.286662 -3.60301,6.329751 -7.34083,8.640955 -0.75204,0.465008 -2.67317,1.441962 -3.80326,1.934075 l -0.28284,0.123167 0.56939,0.335172 c 2.24092,1.319129 3.93881,3.604884 4.73657,6.376521 0.92757,3.222618 0.6634,6.602706 -0.74046,9.474362 -1.11987,2.290731 -2.99549,4.13883 -5.011,4.937461 -0.38945,0.154317 -0.78954,0.313906 -0.88908,0.354641 -0.12721,0.05206 -0.22095,0.211569 -0.31553,0.536884 -0.074,0.25455 -0.29642,0.873098 -0.49428,1.37455 -0.19786,0.501452 -0.35982,0.943657 -0.3599,0.982678 -9e-5,0.03902 0.10009,0.05178 0.22262,0.02836 0.12253,-0.02342 0.56978,-0.0098 0.99389,0.03037 2.38105,0.22527 4.41266,1.477796 5.38652,3.320896 0.47536,0.899668 0.63492,1.625186 0.57792,2.627869 -0.0512,0.900125 -0.14803,1.296387 -0.39306,1.607887 l -0.16845,0.214153 -16.10202,-0.0065 c -8.856116,-0.0036 -16.149065,-0.02537 -16.206555,-0.04849 z m 9.952782,-1.877858 0.24897,-0.04979 -0.49381,-0.584701 c -0.54049,-0.639973 -1.495078,-2.022124 -1.77286,-2.566915 -0.199799,-0.39185 -0.398066,-0.47376 -1.362807,-0.563016 -1.148215,-0.106229 -2.471627,0.230684 -3.433677,0.874142 -0.911892,0.60991 -1.518543,1.472389 -1.649391,2.344951 -0.09648,0.643381 -0.431257,0.595126 4.128758,0.595126 2.247215,0 4.197877,-0.02241 4.334817,-0.04979 z m 20.83613,-0.474343 c -0.0696,-1.984508 -2.88779,-3.666332 -5.43286,-3.242209 -0.33472,0.05578 -0.6665,0.131716 -0.73728,0.168749 -0.0708,0.03703 -0.3023,0.361335 -0.51449,0.720674 -0.3997,0.676873 -1.41225,2.067407 -1.83842,2.524684 l -0.24398,0.261788 0.33941,0.0313 c 0.18668,0.01721 2.16308,0.02836 4.39199,0.02476 l 4.05258,-0.0065 -0.017,-0.483202 z m -11.47436,0.0614 c 3.18234,-2.327778 5.71111,-7.92497 6.78174,-15.01073 0.59008,-3.905376 0.65494,-8.95056 0.16506,-12.839153 -0.0812,-0.644954 -0.16657,-1.19149 -0.1896,-1.214522 -0.023,-0.02303 -0.62516,0.105937 -1.33805,0.286598 -3.2948,0.834971 -6.08739,1.144191 -9.48318,1.050062 -2.94865,-0.08174 -4.80834,-0.328503 -7.562458,-1.003484 -0.827232,-0.20274 -1.51491,-0.357732 -1.528174,-0.34443 -0.04113,0.04125 -0.277929,2.261325 -0.360607,3.380865 -0.218658,2.960855 -0.178545,5.820282 0.122889,8.760114 0.524662,5.116924 1.890492,9.818261 3.80261,13.088996 0.32645,0.558407 0.77945,1.268091 1.00666,1.577075 0.47524,0.646269 1.94408,2.133386 2.40536,2.435275 l 0.31257,0.204572 2.67225,0.0048 2.67224,0.0048 0.52069,-0.380872 z M 39.802035,71.236335 C 38.9367,66.942166 38.645436,61.858491 39.01985,57.584188 c 0.05063,-0.578006 0.06967,-1.073304 0.04231,-1.100665 -0.07505,-0.07504 -1.066908,0.933318 -1.512397,1.537557 -0.770788,1.045457 -1.41689,2.492073 -1.687416,3.778111 -0.278933,1.326002 -0.292911,3.30966 -0.0328,4.654522 0.379341,1.961308 1.581707,4.158686 2.882538,5.267971 0.447176,0.381329 1.30021,0.968495 1.34376,0.924945 0.01391,-0.01391 -0.100309,-0.64854 -0.253814,-1.410294 z m 23.533609,1.103486 c 3.22013,-2.081268 4.71349,-6.908305 3.48002,-11.248607 -0.45467,-1.599898 -1.61152,-3.498358 -2.67363,-4.387607 l -0.4204,-0.351982 0.0714,1.182676 c 0.12696,2.101908 0.0784,7.477877 -0.081,8.960347 -0.22551,2.097938 -0.78981,5.497357 -1.00612,6.061065 -0.0742,0.193393 0.0762,0.141807 0.62967,-0.215892 z M 54.285694,53.67418 c 5.66081,-0.501286 10.66149,-2.34578 14.28573,-5.269269 3.68107,-2.969329 5.43853,-7.036931 4.63544,-10.72858 -1.11177,-5.110525 -6.10529,-9.32294 -13.43587,-11.334155 -2.47431,-0.678853 -4.70257,-0.982771 -7.6598,-1.044741 -2.3046,-0.04829 -3.50513,0.01955 -5.5213,0.312009 -7.467888,1.083274 -13.645488,4.717799 -16.044735,9.439749 -0.79186,1.558454 -1.106416,2.840595 -1.106509,4.510153 -8.2e-5,1.524881 0.262004,2.671674 0.938592,4.106899 0.620532,1.316314 1.27496,2.237786 2.452114,3.452719 4.572884,4.719642 13.024898,7.301852 21.456338,6.555216 z m -4.38006,-3.64612 c -2.42247,-0.180646 -4.48086,-0.796155 -5.967371,-1.784385 -0.642603,-0.427201 -1.288983,-1.085725 -1.365689,-1.391345 -0.15764,-0.628084 0.336117,-1.275523 0.97275,-1.275523 0.376147,0 0.5443,0.09165 1.14275,0.622859 0.86007,0.763422 2.59567,1.396519 4.47762,1.633307 1.09943,0.138332 3.35602,0.154534 4.48873,0.03223 1.91522,-0.206797 3.76337,-0.878579 4.71683,-1.714522 0.53235,-0.466731 0.74895,-0.575312 1.13899,-0.570972 0.55476,0.0062 0.95521,0.449568 0.95611,1.058628 4.9e-4,0.346702 -0.0302,0.395448 -0.59368,0.941508 -1.2094,1.172054 -3.0583,1.960595 -5.38231,2.295509 -0.84944,0.122413 -3.71227,0.217767 -4.58473,0.152706 z m 25.3725,-14.82826 c 1.8309,-2.138475 1.20641,-5.338952 -1.27626,-6.540765 -0.58584,-0.283594 -0.71103,-0.312767 -1.46898,-0.342301 -0.61539,-0.02398 -0.95241,0.0035 -1.30992,0.106992 -0.50411,0.145859 -1.27355,0.535997 -1.23857,0.628002 0.0112,0.02948 0.28813,0.293054 0.61539,0.585725 1.1189,1.000647 2.24702,2.339729 3.01346,3.576995 0.35242,0.568896 1.09906,2.11583 1.09906,2.277084 0,0.207628 0.24757,0.07999 0.56582,-0.291732 z M 28.249782,35.03869 c 0.676089,-1.814234 2.452231,-4.160597 4.367865,-5.770145 l 0.355046,-0.298317 -0.191306,-0.125101 c -0.105219,-0.06881 -0.375514,-0.208027 -0.600657,-0.309381 -0.563709,-0.25377 -1.859535,-0.311011 -2.547838,-0.112547 -2.836556,0.817892 -3.88601,4.309458 -2.000011,6.654106 0.190313,0.236594 0.374139,0.412795 0.408505,0.391556 0.03436,-0.02124 0.128142,-0.214815 0.208396,-0.430171 z M 70.992744,17.775708 c 1.28726,-0.608971 1.99044,-2.098805 1.63868,-3.47186 -0.75974,-2.965571 -4.8099,-3.062275 -5.70916,-0.136315 -0.24328,0.791581 -0.18296,1.429314 0.2105,2.22542 0.40474,0.818939 1.08681,1.376245 1.96183,1.602972 0.48636,0.126018 1.38719,0.02151 1.89815,-0.220217 z"
       id="path981"
       inkscape:connector-curvature="0"
       sodipodi:nodetypes="ccscccscssscccscccsscsccscsccsccccsccccssscccccscccssscscccccccccscccccsccscsccccccccccsscssscccccccccccccccccscccsscccccccccccssccscccccccccccsscscsscssssssscssccccsscscccccscscccccccscccccc" />
  </g>
  <g
     id="g838"
     inkscape:groupmode="layer"
     inkscape:label="Drill"
     style="display:inline" />
</svg>
