<?xml version="1.0" encoding="UTF-8" standalone="no"?>
<!-- Created with Inkscape (http://www.inkscape.org/) -->

<svg
   xmlns:dc="http://purl.org/dc/elements/1.1/"
   xmlns:cc="http://creativecommons.org/ns#"
   xmlns:rdf="http://www.w3.org/1999/02/22-rdf-syntax-ns#"
   xmlns:svg="http://www.w3.org/2000/svg"
   xmlns="http://www.w3.org/2000/svg"
   xmlns:sodipodi="http://sodipodi.sourceforge.net/DTD/sodipodi-0.dtd"
   xmlns:inkscape="http://www.inkscape.org/namespaces/inkscape"
   sodipodi:docname="reddit-snoo-meetup.svg"
   width="100.0mm"
   height="100.0mm"
   viewBox="0 0 100.0 100.0"
   version="1.1"
   id="svg8"
   inkscape:version="0.92.4 (5da689c313, 2019-01-14)">
  <defs
     id="defs2" />
  <sodipodi:namedview
     id="base"
     pagecolor="#ffffff"
     bordercolor="#666666"
     borderopacity="1.0"
     inkscape:pageopacity="0.0"
     inkscape:pageshadow="2"
     inkscape:zoom="3.959798"
     inkscape:cx="104.09638"
     inkscape:cy="220.29406"
     inkscape:document-units="mm"
     inkscape:current-layer="g828"
     showgrid="true"
     inkscape:window-width="1920"
     inkscape:window-height="1017"
     inkscape:window-x="1672"
     inkscape:window-y="-8"
     inkscape:window-maximized="1"
     inkscape:snap-global="false"
     borderlayer="true">
    <inkscape:grid
       id="grid816"
       units="mm"
       type="xygrid"
       empspacing="1"
       spacingy="2.54"
       spacingx="2.54" />
  </sodipodi:namedview>
  <metadata
     id="metadata5">
    <rdf:RDF>
      <cc:Work
         rdf:about="">
        <dc:format>image/svg+xml</dc:format>
        <dc:type
           rdf:resource="http://purl.org/dc/dcmitype/StillImage" />
        <dc:title />
      </cc:Work>
    </rdf:RDF>
  </metadata>
  <g
     id="g822"
     sodipodi:insensitive="true"
     inkscape:groupmode="layer"
     inkscape:label="[fixed] BG">
    <rect
       id="rect820"
       style="stroke:none;fill-opacity:1;fill:#FFFFFF"
       height="100.0"
       width="100.0"
       y="0"
       x="0" />
  </g>
  <g
     id="g824"
     inkscape:groupmode="layer"
     inkscape:label="Edge.Cuts"
     style="display:inline"
     sodipodi:insensitive="true">
    <g
       transform="matrix(0.35210845,0,0,0.35210845,39.816405,23.363765)"
       id="g909" />
    <path
       inkscape:connector-curvature="0"
       id="path983"
       d="M35.269142 85.883875L35.203722 85.837685L35.134032 85.752875L34.991126 85.4883L34.858956 85.131993L34.756061 84.725797L34.701911 84.326266L34.688511 83.898912L34.713931 83.454513L34.776261 83.003849L34.873581 82.557697L35.003969 82.126834L35.165507 81.72204L35.356278 81.354093L35.5816 81.001632L35.829348 80.667116L36.098691 80.351006L36.388795 80.053762L36.698828 79.775845L37.027958 79.517717L37.375352 79.279837L37.740179 79.062668L38.121605 78.866669L38.518798 78.692302L38.930926 78.540027L39.357156 78.410306L39.796656 78.303599L40.248594 78.220369L40.712137 78.161069L41.186453 78.126169L41.857279 78.087319L41.697143 77.690393L41.463562 77.106162L41.149122 76.247613L40.777102 75.193716L40.163075 74.9707L39.677846 74.776972L39.205094 74.553166L38.745614 74.300135L38.300202 74.018729L37.869654 73.7098L37.454763 73.374199L37.056327 73.012778L36.675139 72.626389L36.311996 72.215883L35.967693 71.782111L35.643024 71.325925L35.338786 70.848177L35.055774 70.349717L34.794783 69.831398L34.556608 69.294071L34.342045 68.738587L34.132999 68.104337L33.956794 67.459671L33.813329 66.80653L33.702502 66.146854L33.624212 65.482586L33.578352 64.815666L33.564832 64.148035L33.583542 63.481634L33.634382 62.818405L33.717252 62.160288L33.832049 61.509225L33.978672 60.867157L34.157019 60.236025L34.366988 59.617769L34.608479 59.014331L34.88139 58.427653L35.259775 57.737766L35.693158 57.066958L36.171892 56.425761L36.686329 55.824702L37.226822 55.274314L37.783724 54.785124L38.065314 54.566769L38.347388 54.367663L38.628741 54.189122L38.908166 54.032462L39.216018 53.858465L39.344176 53.759885L39.270916 53.711605L39.071318 53.613315L38.415044 53.32394L37.470249 52.891304L36.445803 52.362252L35.430725 51.785068L34.514032 51.208036L33.682388 50.622972L32.898472 50.013669L32.16306 49.38138L31.476926 48.727362L30.840846 48.05287L30.255596 47.35916L29.721951 46.647486L29.240687 45.919104L28.812578 45.17527L28.438401 44.417238L28.11893 43.646264L27.854941 42.863604L27.64721 42.070512L27.496512 41.268245L27.403622 40.458056L27.369312 39.641203L27.381002 38.803056L27.417052 38.167539L27.470492 37.676318L26.965539 37.28652L26.603008 36.980773L26.265075 36.642969L25.953234 36.275365L25.668978 35.88022L25.413801 35.459793L25.189197 35.016341L24.996659 34.552122L24.83768 34.069395L24.74991 33.693176L24.68753 33.271674L24.65051 32.820687L24.63882 32.356013L24.65242 31.89345L24.69128 31.448797L24.75538 31.037852L24.84467 30.676414L24.976116 30.28782L25.127036 29.913266L25.296975 29.553218L25.485474 29.208143L25.692077 28.878508L25.916326 28.564779L26.157763 28.267424L26.415932 27.98691L26.690376 27.723702L26.980636 27.478269L27.286256 27.251076L27.606779 27.042591L27.941746 26.85328L28.290702 26.683611L28.653188 26.534049L29.028748 26.405062L29.391485 26.314752L29.803395 26.250302L30.247961 26.211712L30.708666 26.198972L31.168993 26.212072L31.612426 26.251012L32.022448 26.315772L32.382542 26.406362L32.925699 26.599163L33.429526 26.823403L33.888257 27.076226L34.296129 27.354774L34.585131 27.56129L34.742023 27.64719L34.959552 27.539425L35.394341 27.28033L36.200787 26.809264L37.086592 26.348224L38.03685 25.903204L39.036654 25.480197L40.071101 25.085198L41.125283 24.7242L42.184296 24.403197L43.233233 24.128183L44.046198 23.938794L44.797974 23.77802L45.511204 23.642488L46.208529 23.528824L46.912592 23.433654L47.646035 23.353604L49.291631 23.22536L50.34694 23.14362L50.679283 23.10604L50.814781 23.07714L50.975152 22.629025L51.291261 21.629737L51.952531 19.501111L52.639871 17.290615L54.082583 12.660896L54.446919 11.561582L54.554889 11.268945L54.619129 11.129801L54.693179 11.042951L54.798981 10.952701L54.922418 10.869711L55.049375 10.804661L55.172633 10.759281L55.322191 10.738711L55.552335 10.753411L55.917355 10.813831L57.269172 11.113656L59.811945 11.721825L63.455175 12.591508L64.983615 12.959272L65.021955 12.962972L65.061845 12.951092L65.150475 12.875692L65.257911 12.723299L65.392556 12.484157L65.632991 12.091622L65.928775 11.713559L66.27247 11.355825L66.656637 11.024277L67.073839 10.724772L67.516636 10.463168L67.977591 10.245322L68.449266 10.077091L68.72551 10.012031L69.045671 9.965562L69.395112 9.937681L69.759191 9.928391L70.12327 9.937681L70.472711 9.965562L70.792872 10.012031L71.069116 10.077091L71.475242 10.216289L71.863789 10.385679L72.233567 10.583676L72.583386 10.808693L72.912057 11.059145L73.218389 11.333445L73.501193 11.630007L73.75928 11.947246L73.991459 12.283575L74.196541 12.637409L74.373336 13.007161L74.520654 13.391245L74.637306 13.788076L74.722106 14.196067L74.773856 14.613632L74.791366 15.039186L74.772976 15.467569L74.718796 15.889124L74.630296 16.301922L74.508933 16.704033L74.356178 17.093527L74.173498 17.468476L73.962362 17.82695L73.724236 18.16702L73.460587 18.486757L73.172884 18.78423L72.862592 19.057511L72.531179 19.304671L72.180113 19.523779L71.810861 19.712907L71.424889 19.870126L71.023666 19.993505L70.747589 20.051385L70.437382 20.092755L70.104301 20.117595L69.759605 20.125895L69.414549 20.117695L69.080393 20.092965L68.768393 20.051695L68.489806 19.993895L68.110835 19.877881L67.736582 19.726105L67.371084 19.541254L67.018376 19.326014L66.682497 19.083071L66.367482 18.815111L66.07737 18.524821L65.816196 18.214886L65.595927 17.899743L65.391236 17.55076L65.206321 17.17892L65.045382 16.79521L64.91262 16.410616L64.812233 16.036121L64.748423 15.682713L64.725383 15.361375L64.724383 15.069627L62.984633 14.646379L58.829723 13.645524L56.279023 13.027107L56.226723 13.033307L56.169753 13.085907L56.105963 13.190182L56.033203 13.35139L55.852224 13.865645L55.609676 14.670758L54.955376 16.799383L53.381738 21.871132L53.093161 22.834134L53.016931 23.140478L53.050991 23.174698L53.145471 23.201848L53.469547 23.226198L54.191804 23.264188L55.214746 23.362038L56.316248 23.495552L57.274187 23.640541L58.674248 23.915323L60.036822 24.24086L61.359216 24.616193L62.638734 25.040359L63.261573 25.270455L63.872682 25.512399L64.471724 25.766071L65.058363 26.031351L65.632262 26.308119L66.193083 26.596254L66.74049 26.895637L67.274147 27.206147L67.906136 27.575455L68.201877 27.729061L68.341893 27.647381L68.599427 27.450996L68.798909 27.299617L69.023871 27.148775L69.529543 26.85942L70.075057 26.604363L70.619027 26.40504L70.981766 26.31473L71.393677 26.25028L71.838244 26.21169L72.29895 26.19895L72.759277 26.21205L73.20271 26.25099L73.612733 26.31575L73.972827 26.40634L74.355551 26.538951L74.725023 26.691984L75.080637 26.864824L75.421783 27.05686L75.747856 27.267479L76.058246 27.496067L76.352346 27.742011L76.629548 28.004699L76.889245 28.283518L77.130829 28.577855L77.353693 28.887097L77.557227 29.21063L77.740826 29.547843L77.903881 29.898122L78.045783 30.260854L78.165927 30.635427L78.254347 31.017917L78.317497 31.449746L78.355387 31.914468L78.368017 32.395637L78.355387 32.876806L78.317497 33.341528L78.254347 33.773357L78.165927 34.155847L78.010802 34.618257L77.813811 35.074872L77.578832 35.52001L77.309744 35.947986L77.010425 36.353116L76.684752 36.729717L76.336603 37.072106L75.969857 37.374599L75.417217 37.788467L75.407217 39.451642L75.386597 40.553496L75.360187 40.976268L75.317127 41.35461L75.252987 41.719276L75.163327 42.101021L74.889687 43.038766L74.680586 43.652042L74.435356 44.258893L74.154603 44.858605L73.838937 45.450463L73.488965 46.03375L73.105294 46.607753L72.688532 47.171754L72.239287 47.72504L71.758166 48.266895L71.245778 48.796603L70.70273 49.31345L70.129629 49.816719L69.527084 50.305697L68.895702 50.779666L68.23609 51.237913L67.548857 51.679721L66.79625 52.108892L65.788996 52.636594L64.710857 53.169378L63.745597 53.613796L63.462757 53.736963L64.032147 54.072135L64.445869 54.330682L64.84634 54.61118L65.233038 54.912925L65.605439 55.235213L65.963021 55.577339L66.30526 55.938599L66.631633 56.318289L66.941617 56.715705L67.234689 57.130143L67.510326 57.560898L67.768005 58.007266L68.007202 58.468543L68.227395 58.944025L68.428061 59.433007L68.608676 59.934785L68.768717 60.448656L68.928683 61.05458L69.060795 61.663219L69.165127 62.273597L69.241757 62.88474L69.290757 63.495672L69.312207 64.105418L69.306207 64.713002L69.272787 65.317448L69.212047 65.917781L69.124067 66.513026L69.008913 67.102208L68.866666 67.68435L68.697402 68.258477L68.501199 68.823615L68.278131 69.378787L68.028276 69.923018L67.809594 70.347195L67.574102 70.760109L67.322701 71.16087L67.056293 71.548591L66.775781 71.922382L66.482067 72.281354L66.176053 72.624618L65.858641 72.951286L65.530733 73.260468L65.193232 73.551276L64.847039 73.82282L64.493056 74.074212L64.132187 74.304563L63.765332 74.512984L63.393394 74.698585L63.017276 74.860479L62.128196 75.21512L62.038526 75.27522L61.958196 75.381087L61.883986 75.538191L61.812676 75.752L61.611983 76.346687L61.318396 77.12655L61.064278 77.791301L60.958496 78.109228L60.976016 78.133418L61.023826 78.146828L61.181119 78.137628L61.328466 78.126848L61.564971 78.128948L62.175009 78.167978L62.617188 78.222148L63.050139 78.299758L63.472826 78.400161L63.884209 78.522722L64.283252 78.6668L64.668918 78.831756L65.040168 79.016951L65.395965 79.221744L65.735272 79.445496L66.057051 79.687567L66.360263 79.947318L66.643873 80.224109L66.906842 80.5173L67.148133 80.826252L67.366708 81.150324L67.561529 81.488878L67.72518 81.818972L67.860387 82.138028L67.968314 82.451335L68.050124 82.764182L68.106974 83.081858L68.140034 83.409651L68.150474 83.752852L68.139444 84.116747L68.090884 84.703915L68.015594 85.141425L67.964924 85.316337L67.903964 85.468568L67.831514 85.60303L67.746374 85.724634L67.577924 85.938787L51.475904 85.932287L40.073142 85.915357L36.580485 85.900617L35.269349 85.883797L35.269132 85.883889"
       style="display:inline;fill:none;stroke:#000000;stroke-width:0.08187023;stroke-opacity:1"
       sodipodi:nodetypes="ccscccscssscccscccsscsccscsccsccccsccccssscccccscccssscscccccccccscccccsccscscccccccc" />
  </g>
  <g
     id="g826"
     inkscape:groupmode="layer"
     inkscape:label="B.Cu"
     style="display:none">
    <path
       id="path1071"
       d="m 193.66406,94.605469 c -22.03189,0.820883 -43.75248,6.677641 -62.53906,18.412111 -11.97171,-14.007407 -37.427107,-2.22519 -29.0332,16.20312 11.86126,8.39728 7.92407,20.01362 11.23437,32.9961 7.41872,22.11167 30.99452,28.48043 48.20508,40.51172 -23.11884,11.42757 -36.68257,41.46765 -19.57813,63.99414 8.21375,9.83048 21.81438,11.06188 23.26172,25.59375 12.2115,18.36912 -23.67068,3.26315 -26.10351,21.65039 10.69201,7.45286 37.28677,1.04652 53.95508,3.2539 18.34869,-1.11946 41.19116,2.22255 56.92187,-1.5039 -0.44326,-18.09704 -32.02679,-6.23733 -26.25,-24.40625 1.46754,-17.38196 24.95302,-16.45889 28.07227,-33.8086 9.39228,-22.91879 -5.76364,-48.17863 -28.55274,-55.4375 27.41495,-8.93398 59.9331,-29.55464 54.25781,-63.04101 20.66469,-7.06632 8.9936,-41.115973 -11.25,-30.79102 -12.91187,11.30611 -26.28508,-9.437334 -41.25,-9.300779 -10.17937,-2.644094 -21.30296,-3.734884 -31.35156,-4.326172 z m -28.92383,29.406251 c 2.68678,-0.004 3.97398,0.4526 6.4961,2.06445 4.65551,2.97528 7.35687,8.80715 6.52148,14.07617 -0.71599,4.51597 -3.84932,8.65944 -8.14453,10.76954 -1.92087,0.94365 -2.44698,1.05958 -5.10547,1.13085 -2.22108,0.0595 -3.31204,-0.0551 -4.35547,-0.45703 -5.59796,-2.15609 -9.02321,-6.1684 -9.88867,-11.58593 -0.89722,-5.61637 2.49977,-11.86977 8.03125,-14.78516 1.83582,-0.96757 2.28915,-1.07262 5.19922,-1.18555 0.44861,-0.0174 0.86227,-0.0268 1.24609,-0.0273 z m 60.70118,0.13086 c 3.4899,0 3.65089,0.0293 5.73047,1.08203 5.70916,2.88972 9.00969,9.43588 7.76562,15.40234 -0.99489,4.77148 -3.63451,8.21159 -7.82812,10.20313 -2.12077,1.00716 -2.72034,1.15007 -5.19336,1.23437 -2.17267,0.0741 -3.15304,-0.0372 -4.4004,-0.5 -4.35182,-1.6146 -6.85496,-3.84307 -8.73437,-7.77343 -1.06643,-2.23017 -1.10938,-2.45392 -1.10937,-5.74024 0,-3.3318 0.0307,-3.47973 1.16796,-5.78125 1.50218,-3.03946 3.99011,-5.59382 6.86524,-7.04492 2.08479,-1.05223 2.2476,-1.08203 5.73633,-1.08203 z"
       style="display:inline;fill:#000000;fill-opacity:1;stroke:#000000;stroke-width:0.30943078;stroke-opacity:1"
       transform="scale(0.26458333)"
       inkscape:connector-curvature="0" />
  </g>
  <g
     id="g828"
     inkscape:groupmode="layer"
     inkscape:label="B.Mask"
     style="display:inline">
    <path
       sodipodi:nodetypes="cssssscccccsccsccccc"
       style="display:inline;fill:#000000;stroke-width:0.08187023"
       d="m 42.373574,40.109798 c -1.481128,-0.570467 -2.387212,-1.632189 -2.616197,-3.065578 -0.23739,-1.485996 0.661438,-3.140751 2.124975,-3.912115 0.485726,-0.256004 0.605757,-0.283332 1.375712,-0.313212 0.94955,-0.03685 1.28562,0.05158 2.04826,0.538973 1.23177,0.787209 1.94666,2.330016 1.72563,3.724111 -0.18944,1.19485 -1.01844,2.291002 -2.15488,2.849299 -0.50823,0.249676 -0.64747,0.280537 -1.350861,0.299394 -0.587661,0.01575 -0.876566,-0.01454 -1.152639,-0.120872 z m 16.23593,-0.0086 c -1.15142,-0.427197 -1.81366,-1.016498 -2.31092,-2.056407 -0.28216,-0.590064 -0.29362,-0.649339 -0.29362,-1.518845 0,-0.881538 0.008,-0.920901 0.30891,-1.529844 0.39745,-0.80419 1.05581,-1.479589 1.81652,-1.863525 0.5516,-0.278403 0.59474,-0.286545 1.5178,-0.286545 0.92337,0 0.96596,0.008 1.51618,0.286545 1.51055,0.764571 2.38369,2.496355 2.05453,4.074982 -0.26323,1.262452 -0.96148,2.172595 -2.07104,2.699524 -0.56112,0.266477 -0.71969,0.304151 -1.37401,0.326456 -0.57485,0.0196 -0.83432,-0.0099 -1.16435,-0.132341 z"
       id="path1035"
       inkscape:connector-curvature="0" />
    <path
       d="m 67.502689,39.181677 c 0.02115,-0.02034 0.03847,-0.18181 0.03847,-0.358835 0,-0.25583 0.01688,-0.315618 0.08226,-0.291505 0.04798,0.0177 0.12158,-0.02733 0.176583,-0.108027 0.138288,-0.202871 0.254345,-0.225979 0.318634,-0.06342 0.08596,0.217347 0.198783,0.161987 0.313043,-0.153607 0.137404,-0.379498 0.484991,-0.873684 0.614528,-0.873684 0.06223,0 0.290933,-0.24985 0.596619,-0.651796 0.272631,-0.358488 0.590165,-0.759985 0.705614,-0.892199 L 70.55835,35.548203 70.525,35.053601 c -0.03257,-0.483318 -0.03041,-0.494603 0.09453,-0.494603 0.08644,0 0.147355,-0.04942 0.188019,-0.152548 0.04041,-0.102502 0.295407,-0.310782 0.777278,-0.634878 1.529904,-1.028988 1.64393,-1.115611 1.888106,-1.434367 0.376248,-0.491291 0.494151,-0.789401 0.455309,-1.151183 -0.06182,-0.575713 -0.392465,-0.747555 -1.453104,-0.755147 -0.646663,-0.0047 -0.779043,-0.0339 -0.779043,-0.172282 0,-0.08814 -0.171703,-0.189871 -0.382475,-0.226604 -0.07783,-0.01357 -0.275025,0.01345 -0.43821,0.06003 -0.402871,0.115005 -0.781015,0.107073 -1.025946,-0.02152 -0.517558,-0.271744 -0.573914,-0.286513 -0.75322,-0.197377 -0.09167,0.04557 -0.195645,0.134872 -0.231027,0.198452 -0.04068,0.07308 -0.09969,0.104183 -0.160404,0.08457 -0.780798,-0.252258 -1.120367,-0.303934 -1.870973,-0.284727 -1.108032,0.02835 -1.77718,0.182954 -2.207475,0.509979 -0.392301,0.298179 -0.526812,0.689829 -0.362258,1.054696 0.134001,0.297105 0.616709,0.932901 0.835255,1.100184 0.814916,0.623696 1.191346,0.810342 1.706003,0.845844 0.357548,0.02467 0.389524,0.03715 0.389524,0.152047 0,0.06884 -0.08998,0.246469 -0.199957,0.394718 -0.109973,0.148252 -0.277732,0.395654 -0.372787,0.54978 -0.09506,0.154125 -0.289762,0.360949 -0.432697,0.45962 -0.310299,0.214208 -0.399621,0.327389 -0.169495,0.214798 0.09078,-0.04442 0.223473,-0.09809 0.294882,-0.119265 0.12264,-0.03637 0.129563,-0.02368 0.124797,0.228735 -0.0026,0.146977 -0.03643,0.479417 -0.07479,0.738749 -0.05614,0.37948 -0.05507,0.519496 0.0055,0.717357 0.04135,0.135215 0.0919,0.490927 0.112316,0.790476 0.02041,0.299549 0.054,0.544632 0.07463,0.544632 0.02063,0 0.06865,-0.02996 0.106739,-0.06657 0.05386,-0.05178 0.06983,-0.01171 0.07185,0.180284 0.0033,0.317196 0.08421,0.483213 0.388115,0.796855 0.245362,0.25323 0.305503,0.287744 0.37872,0.217364 z m -0.38123,-0.404495 c -0.276631,-0.295769 -0.365339,-0.571639 -0.296793,-0.922933 0.04062,-0.208107 -0.006,-0.240437 -0.132272,-0.09173 -0.0726,0.08549 -0.07891,0.04743 -0.05289,-0.318964 0.0265,-0.373275 0.02145,-0.401791 -0.04913,-0.27736 -0.07372,0.12995 -0.07848,0.118221 -0.07566,-0.186334 0.0018,-0.206131 -0.02387,-0.34098 -0.07048,-0.368681 -0.09092,-0.05402 -0.03286,-0.647671 0.09126,-0.933264 0.09525,-0.219132 0.10862,-0.419941 0.02465,-0.370051 -0.03484,0.0207 -0.0577,-0.05489 -0.0577,-0.190875 0,-0.175847 0.02212,-0.226084 0.100988,-0.229412 0.130607,-0.0055 0.220948,-0.0227 0.660853,-0.125871 0.199902,-0.04689 0.413994,-0.09296 0.47576,-0.102378 0.06177,-0.0094 0.198745,-0.09677 0.304369,-0.1941 0.233784,-0.215422 0.377709,-0.264757 0.535485,-0.183595 0.160334,0.08248 0.341193,0.02001 0.404346,-0.139678 0.04194,-0.106042 0.08944,-0.128309 0.256114,-0.120066 0.112542,0.0055 0.204749,0.02885 0.204875,0.05172 1.31e-4,0.02289 0.05869,0.03963 0.130102,0.03723 0.07141,-0.0025 0.09738,-0.01697 0.0577,-0.03236 -0.03967,-0.01538 -0.07213,-0.06601 -0.07213,-0.112499 0,-0.05526 -0.03249,-0.07253 -0.09387,-0.04989 -0.05163,0.01904 -0.127225,0.008 -0.167985,-0.0245 -0.05154,-0.04111 -0.0855,-0.0414 -0.111505,-9.84e-4 -0.04936,0.07678 -0.279052,0.0745 -0.360255,-0.0036 -0.07285,-0.07002 -0.209244,-0.01355 -0.158375,0.06557 0.01825,0.0284 0.0836,0.05164 0.145211,0.05164 0.140791,0 0.145221,0.08995 0.0079,0.160592 -0.06361,0.03273 -0.136556,0.03381 -0.187548,0.0028 -0.145173,-0.08829 -0.328642,-0.057 -0.505732,0.08623 -0.0943,0.07627 -0.196979,0.13868 -0.228197,0.13868 -0.03123,0 -0.09013,0.03868 -0.130945,0.08595 -0.09853,0.114126 -0.511919,0.08676 -0.59408,-0.03932 -0.04625,-0.07096 -0.02569,-0.135264 0.08963,-0.28062 0.144704,-0.182364 0.663701,-0.487148 0.829537,-0.487148 0.04469,0 0.08124,-0.0211 0.08124,-0.0469 0,-0.06364 -0.461871,0.05362 -0.637518,0.161848 -0.07784,0.04797 -0.168278,0.102211 -0.200964,0.120539 -0.03927,0.02202 -0.05569,-0.137903 -0.04841,-0.471547 0.009,-0.413213 0.02762,-0.507205 0.102525,-0.517779 0.06967,-0.0098 0.08317,0.01899 0.05658,0.120836 -0.05657,0.21667 0.02,0.391563 0.203434,0.464595 0.317426,0.126394 0.549374,-0.05844 0.534983,-0.426337 -0.0039,-0.100026 0.01807,-0.181862 0.04883,-0.181862 0.03078,0 0.0577,-0.04368 0.05986,-0.09708 0.003,-0.07729 0.01666,-0.07163 0.06652,0.02773 0.03442,0.06865 0.111082,0.124812 0.170316,0.124812 0.08606,0 0.100419,0.02786 0.07148,0.138681 -0.05889,0.225545 0.01714,0.395862 0.21123,0.473141 0.23939,0.09532 0.592414,0.01553 0.620836,-0.140308 0.02011,-0.110339 0.01974,-0.110346 -0.06591,-0.0012 -0.07967,0.101447 -0.08405,0.09103 -0.05836,-0.13868 0.04202,-0.375753 -0.05404,-0.464196 -0.487786,-0.44915 -0.310032,0.01075 -0.353853,-0.001 -0.387936,-0.104223 -0.04802,-0.145414 0.05563,-0.270613 0.307979,-0.372006 0.135258,-0.05435 0.214144,-0.06019 0.264984,-0.01963 0.03982,0.03177 0.08949,0.04133 0.110371,0.02126 0.0209,-0.02007 0.03797,0.0051 0.03797,0.05596 0,0.08179 0.191173,0.119826 0.440777,0.08771 0.02026,-0.0026 0.0578,0.02787 0.08342,0.06773 0.02562,0.03986 0.06359,0.05613 0.08436,0.03616 0.07448,-0.0716 -0.0421,-0.154951 -0.264549,-0.189143 -0.124536,-0.01914 -0.256058,-0.06913 -0.292286,-0.111089 -0.145546,-0.168579 -0.738778,-0.03591 -0.827899,0.185155 -0.03558,0.08823 -0.04744,0.0897 -0.107981,0.01337 -0.181633,-0.229012 -0.631045,-0.370778 -0.684713,-0.215994 -0.01123,0.03235 -0.104271,0.06111 -0.206791,0.06392 -0.102512,0.0028 -0.186391,0.02626 -0.186391,0.05213 0,0.02587 -0.05843,0.04737 -0.129842,0.04779 -0.242082,0.0014 -0.364206,0.06091 -0.433381,0.211141 -0.08455,0.183612 -0.02146,0.471581 0.08894,0.405881 0.05205,-0.03098 0.05863,-0.08378 0.02223,-0.178342 -0.04066,-0.105658 -0.02684,-0.155057 0.06473,-0.231405 0.06403,-0.05339 0.170884,-0.100878 0.237446,-0.105525 0.06656,-0.0047 0.14995,-0.01127 0.185328,-0.01471 0.0354,-0.0034 0.10645,-0.03987 0.157948,-0.08095 0.0547,-0.04364 0.151942,-0.06063 0.233873,-0.04087 0.08553,0.02064 0.149204,0.008 0.163212,-0.0324 0.03651,-0.105234 0.448241,0.165364 0.448241,0.294574 0,0.05949 -0.03424,0.120786 -0.07606,0.136215 -0.06563,0.02421 -0.772772,0.07056 -1.183788,0.0776 -0.08188,0.0014 -0.124598,0.02936 -0.10911,0.0714 0.01402,0.038 0.09169,0.0647 0.172657,0.05933 0.113666,-0.0075 0.155606,0.0224 0.184053,0.131358 0.02026,0.07762 0.02528,0.152222 0.01119,0.165796 -0.01412,0.01357 -0.190108,-0.004 -0.391074,-0.03902 -1.108467,-0.193221 -2.43993,-1.331594 -2.515853,-2.150933 -0.0207,-0.223482 -0.0022,-0.282889 0.128235,-0.415155 0.24318,-0.246296 0.545259,-0.410476 1.009855,-0.548827 0.383988,-0.114356 0.546705,-0.128775 1.442678,-0.127847 0.95581,10e-4 1.036112,0.0095 1.499968,0.159217 0.846981,0.273355 1.522189,0.695151 2.396829,1.497258 0.372267,0.341396 0.494676,0.422039 0.641109,0.422333 0.169395,3.26e-4 0.183095,-0.01476 0.213821,-0.235392 0.01807,-0.129666 0.04967,-0.474095 0.07025,-0.765392 l 0.03742,-0.529636 0.72978,0.0055 c 1.089908,0.0082 1.376098,0.173085 1.324451,0.763243 -0.04427,0.505749 -0.635573,1.248813 -1.328184,1.669066 -0.361049,0.21908 -0.420994,0.253732 -0.507194,0.293309 -0.04761,0.02185 -0.09954,0.05461 -0.115412,0.0728 -0.01588,0.01818 -0.09928,0.07612 -0.185351,0.128754 l -0.156496,0.09569 -0.05989,-0.207916 c -0.09702,-0.336837 -0.134091,-0.366514 -0.412893,-0.330579 -0.269186,0.03471 -0.767162,-0.126625 -0.898267,-0.29102 -0.05195,-0.06514 -0.08451,-0.07017 -0.136355,-0.02107 -0.09536,0.09032 -0.02364,0.175447 0.193012,0.229117 0.127024,0.03147 0.19047,0.08372 0.203148,0.167294 0.01015,0.06684 -0.0077,0.121532 -0.03965,0.121532 -0.0345,0 -0.04435,0.08139 -0.02424,0.200515 0.03137,0.185814 0.02476,0.19774 -0.09019,0.162678 -0.0909,-0.02774 -0.124038,-0.01462 -0.124038,0.0491 0,0.04782 -0.03895,0.08695 -0.08656,0.08695 -0.06018,0 -0.08656,0.05819 -0.08656,0.190876 0,0.104981 -0.02602,0.206355 -0.05786,0.22525 -0.03848,0.02286 -0.0378,0.07042 0.0018,0.141955 0.09493,0.170511 0.141964,0.126798 0.147812,-0.137363 0.0054,-0.243141 0.140965,-0.460296 0.247778,-0.39685 0.06335,0.03763 0.121904,-0.09593 0.121904,-0.278036 0,-0.07378 0.02922,-0.134143 0.06492,-0.134143 0.04083,0 0.05252,-0.05958 0.03153,-0.160554 -0.02893,-0.139009 -0.01829,-0.15675 0.07935,-0.13221 0.134343,0.03377 0.146236,0.141522 0.02617,0.237298 -0.04761,0.03798 -0.08656,0.139963 -0.08656,0.226621 0,0.08666 -0.05194,0.284224 -0.115417,0.439043 -0.06433,0.156906 -0.112391,0.397163 -0.108583,0.542898 0.0059,0.226378 0.01216,0.239119 0.04645,0.09502 0.03052,-0.128203 0.04981,-0.06054 0.08401,0.294678 0.03677,0.381872 0.02833,0.484635 -0.04899,0.598092 -0.05135,0.07534 -0.117903,0.122416 -0.147887,0.104605 -0.03,-0.01781 -0.03913,0.0061 -0.02034,0.05324 0.02037,0.051 -0.0044,0.09984 -0.06115,0.12079 -0.05243,0.01934 -0.126544,0.105386 -0.164684,0.191205 -0.09422,0.212025 -0.930109,1.228514 -0.954185,1.160354 -0.02673,-0.07568 -0.12503,-0.06848 -0.12503,0.0092 0,0.03499 -0.09161,0.171097 -0.203583,0.302443 -0.111966,0.131351 -0.263794,0.392794 -0.337386,0.581001 -0.09524,0.243539 -0.144686,0.314959 -0.171517,0.247734 -0.07087,-0.177528 -0.03956,-0.317178 0.07772,-0.346648 0.07469,-0.01877 0.115413,-0.07567 0.115413,-0.161223 0,-0.191811 -0.06422,-0.159388 -0.259678,0.131083 -0.209137,0.310782 -0.300946,0.349924 -0.333442,0.142168 -0.0207,-0.132315 -0.02569,-0.125122 -0.03301,0.04764 -0.0048,0.111917 -0.02473,0.243695 -0.04432,0.292858 -0.03204,0.08027 -0.04331,0.07933 -0.110699,-0.0092 -0.113721,-0.149502 -0.171014,-0.04168 -0.171014,0.321877 0,0.180509 -0.01706,0.328203 -0.03793,0.328203 -0.02086,0 -0.153702,-0.123779 -0.295206,-0.275071 z m 0.557795,-0.97759 c 0.01926,-0.04826 0.0342,-0.129387 0.0332,-0.180284 -0.0015,-0.07983 -0.01346,-0.07775 -0.08656,0.01514 -0.09459,0.120211 -0.112,0.252883 -0.0332,0.252883 0.02833,0 0.0673,-0.03948 0.08656,-0.08774 z m -0.54205,-0.567705 c 0,-0.120025 0.01517,-0.302478 0.03372,-0.405448 0.02662,-0.147871 0.01981,-0.16973 -0.03234,-0.10401 -0.05179,0.06523 -0.05776,0.04126 -0.02762,-0.110944 0.0294,-0.148651 0.02242,-0.17947 -0.02989,-0.131529 -0.0893,0.08183 -0.158178,0.550872 -0.07351,0.500583 0.04063,-0.02414 0.051,0.03544 0.03104,0.178464 -0.01792,0.128306 -0.0041,0.230087 0.03435,0.252917 0.0431,0.02561 0.0643,-0.03375 0.0643,-0.180023 z m 1.498689,-0.309499 c 0.03956,-0.135849 0.06037,-0.280099 0.04623,-0.320559 -0.01412,-0.04045 -0.05884,0.05884 -0.09934,0.220658 -0.0902,0.360464 -0.04665,0.442372 0.05311,0.09989 z M 69.5831,36.000669 c 0.05617,-0.122382 0.122291,-0.210534 0.146936,-0.195885 0.08027,0.04769 0.177282,-0.246314 0.169387,-0.513359 l -0.0077,-0.260875 -0.03943,0.27398 c -0.02168,0.150686 -0.0707,0.283999 -0.108918,0.296238 -0.07018,0.02249 -0.196675,0.227851 -0.297734,0.483369 -0.09036,0.228475 0.02703,0.157218 0.137474,-0.08345 z m -2.856499,-0.227643 c 0.0038,-0.04927 0.05909,-0.153623 0.123123,-0.231873 0.06403,-0.07826 0.09244,-0.156536 0.06312,-0.173957 -0.02933,-0.01742 -0.03867,-0.08547 -0.02079,-0.151233 0.02227,-0.08191 0.01149,-0.107066 -0.03428,-0.07988 -0.03674,0.02183 -0.0668,0.102257 -0.0668,0.178741 0,0.07648 -0.02762,0.188639 -0.06136,0.24926 -0.03376,0.06061 -0.04974,0.152579 -0.03554,0.20438 0.02235,0.08146 0.02673,0.08208 0.03249,0.0046 z m 3.410487,-0.700889 c -7.38e-4,-0.118873 -0.01324,-0.13418 -0.05682,-0.06934 -0.07297,0.108532 -0.07297,0.221888 0,0.221888 0.03175,0 0.05731,-0.06865 0.05682,-0.152548 z m -1.500023,0.101894 c 0.196815,-0.02473 0.264369,-0.05882 0.280762,-0.141734 0.01796,-0.09087 0.0072,-0.09774 -0.06391,-0.04096 -0.05289,0.04219 -0.226052,0.06268 -0.453885,0.0537 -0.29667,-0.01168 -0.38202,-0.03611 -0.438466,-0.125455 -0.06952,-0.110039 -0.07011,-0.11 -0.07214,0.0045 -0.0033,0.194482 0.322296,0.30338 0.747633,0.249954 z m 0.49103,-0.424379 c 0.126957,-0.04506 0.315516,-0.120164 0.41901,-0.166907 0.103505,-0.04674 0.21723,-0.06773 0.252738,-0.04664 0.03898,0.02316 0.05365,0.0078 0.03703,-0.03871 -0.02093,-0.0586 -0.12989,-0.073 -0.454714,-0.06013 -0.234956,0.0093 -0.60897,0.02179 -0.831144,0.02774 -0.441062,0.01179 -0.684297,0.130544 -0.560676,0.27372 0.09086,0.105238 0.851413,0.112537 1.137748,0.01092 z m -0.490507,0.0081 c 0,-0.01276 -0.0165,-0.06452 -0.03666,-0.115017 -0.0303,-0.07591 -0.0038,-0.08871 0.154253,-0.07388 0.210252,0.01976 0.295242,0.132301 0.130852,0.173266 -0.146325,0.03646 -0.248447,0.04288 -0.248447,0.01563 z m -0.540229,-0.11548 c 0.01825,-0.04576 0.06939,-0.08321 0.113602,-0.08321 0.04421,0 0.08039,0.03744 0.08039,0.08321 0,0.04579 -0.0511,0.08321 -0.113606,0.08321 -0.07727,0 -0.102981,-0.02661 -0.08038,-0.08321 z m 1.726344,-0.420879 c 0.02134,-0.03317 0.0099,-0.08809 -0.02543,-0.122038 -0.04715,-0.04533 -0.06422,-0.02931 -0.06422,0.0603 0,0.133937 0.02996,0.154576 0.08967,0.06173 z m -0.252306,-0.556125 c 0.04,-0.02377 0.05597,-0.05933 0.03547,-0.07903 -0.04637,-0.04457 -0.276776,0.02182 -0.276776,0.07975 0,0.05515 0.148017,0.05471 0.241305,-7.38e-4 z m -1.222326,-0.186177 c 0,-0.04949 -0.03383,-0.06898 -0.08623,-0.04966 -0.04743,0.0175 -0.07186,0.05416 -0.0543,0.08147 0.05036,0.07832 0.140529,0.05791 0.140529,-0.0318 z m 1.498886,-0.527834 c 0.07459,-0.04432 0.07458,-0.05361 -1.26e-4,-0.07708 -0.04672,-0.01468 -0.162851,-0.02172 -0.258062,-0.01565 -0.09521,0.0061 -0.205578,-0.01128 -0.245254,-0.03856 -0.04484,-0.03083 -0.07213,-0.02728 -0.07213,0.0094 0,0.03244 0.02528,0.074 0.05614,0.09235 0.10375,0.06164 0.433813,0.08041 0.519439,0.02955 z m 0.13614,-0.204276 c 0.07835,-0.07532 0.04029,-0.23756 -0.04809,-0.204969 -0.04761,0.01756 -0.08656,0.07918 -0.08656,0.13694 0,0.105375 0.0628,0.1371 0.134652,0.06803 z m -4.143732,-1.037916 c 0.09605,-0.09527 0.251008,-0.229395 0.344349,-0.298041 0.148501,-0.109211 0.15501,-0.124812 0.0521,-0.124812 -0.12054,0 -0.657627,0.452287 -0.657627,0.553784 0,0.09126 0.07519,0.05357 0.261195,-0.130937 z m -0.217914,-0.09311 c 0.188053,-0.169409 0.237699,-0.274273 0.129841,-0.274273 -0.03175,0 -0.0577,0.02787 -0.0577,0.06194 0,0.03615 -0.06005,0.0509 -0.14427,0.03543 -0.07935,-0.01458 -0.144266,-0.005 -0.144266,0.02126 0,0.02628 0.02599,0.04778 0.0577,0.04778 0.03175,0 0.0577,0.02787 0.0577,0.06194 0,0.03522 -0.05125,0.04906 -0.118773,0.03209 -0.08693,-0.02185 -0.114008,-0.0062 -0.100988,0.05828 0.02952,0.146332 0.123421,0.133324 0.320742,-0.04444 z m 0.937737,3.160172 c 0,-0.03317 0.129076,-0.249312 0.286841,-0.480318 0.29822,-0.436669 0.416429,-0.455252 0.265958,-0.04182 -0.0591,0.16238 -0.0638,0.241615 -0.01751,0.295458 0.07637,0.08884 -0.03476,0.173904 -0.228896,0.175204 -0.06954,4.89e-4 -0.142485,0.02581 -0.162104,0.05632 -0.04762,0.07407 -0.144265,0.07082 -0.144265,-0.0048 z m 3.856097,-0.483317 c 0.01019,-0.07018 0.06806,-0.232428 0.128573,-0.360568 0.06051,-0.128135 0.110602,-0.299913 0.111298,-0.381752 0.0011,-0.144176 0.177253,-0.311301 0.414031,-0.393106 0.15192,-0.05249 0.284802,0.08357 0.318667,0.32628 0.03038,0.217762 0.02279,0.23014 -0.261069,0.426181 -0.160802,0.11105 -0.333911,0.279146 -0.384691,0.373535 -0.06754,0.12554 -0.126302,0.166983 -0.218836,0.154323 -0.09516,-0.01302 -0.121915,-0.04892 -0.107966,-0.144902 z m 0.468402,-0.312047 c 0.03883,-0.04497 0.06216,-0.15891 0.05188,-0.253213 -0.01933,-0.177025 0.08156,-0.290378 0.214724,-0.241251 0.03934,0.01451 0.08867,-2.77e-4 0.109623,-0.03287 0.06016,-0.09357 -0.243001,-0.07079 -0.403554,0.03033 -0.159966,0.100754 -0.185763,0.187772 -0.05568,0.187772 0.102256,0 0.110208,0.07576 0.02417,0.230279 -0.07672,0.137809 -0.03748,0.190477 0.05882,0.07894 z m -2.189262,-0.592529 c 0,-0.02724 0.03742,-0.04954 0.08315,-0.04954 0.109212,0 0.151333,-0.07097 0.09455,-0.159295 -0.03565,-0.05545 -0.06609,-0.05101 -0.140459,0.02048 -0.114714,0.110272 -0.131555,-0.0049 -0.02097,-0.143412 0.106635,-0.133602 0.226915,-0.154334 0.402112,-0.0693 0.170799,0.0829 0.216672,0.292165 0.08656,0.394892 -0.14253,0.112527 -0.504937,0.116958 -0.504937,0.0062 z m -1.007404,0.0098 c -0.01825,-0.0284 -0.008,-0.06664 0.02294,-0.08499 0.07753,-0.04606 0.0092,-0.196214 -0.08927,-0.196214 -0.04421,0 -0.08244,0.03121 -0.08494,0.06934 -0.0033,0.05216 -0.01205,0.05137 -0.03476,-0.0032 -0.01662,-0.0399 0.01398,-0.119476 0.06796,-0.176834 0.07986,-0.08482 0.126722,-0.09385 0.251168,-0.04836 0.08415,0.03076 0.165044,0.0508 0.179759,0.04454 0.01472,-0.0063 0.05247,0.02781 0.0839,0.0757 0.08445,0.128706 -0.06747,0.371662 -0.232417,0.371662 -0.07211,0 -0.14605,-0.02324 -0.164307,-0.05163 z m 3.23917,-1.731233 c -0.591368,-0.565762 -1.096796,-0.945625 -1.616734,-1.215115 l -0.452568,-0.23456 0.147076,-0.131098 c 0.194403,-0.173271 0.341104,-0.16536 0.682949,0.03683 0.364581,0.215647 0.672861,0.254807 1.122148,0.142549 0.724441,-0.180994 0.828422,-0.101073 0.828422,0.636749 0,0.26332 -0.01669,0.632208 -0.03707,0.819738 -0.04978,0.457783 -0.146377,0.449896 -0.674214,-0.0551 z m -5.31915,3.750948 c 0.225795,-0.187079 0.239807,-0.245949 0.03324,-0.139675 -0.08452,0.04348 -0.333799,0.34013 -0.279825,0.333005 0.0087,-0.0011 0.119629,-0.08814 0.246589,-0.193319 z"
       id="path12"
       inkscape:connector-curvature="0"
       style="stroke-width:0.05657852" />
    <text
       xml:space="preserve"
       style="font-style:normal;font-variant:normal;font-weight:normal;font-stretch:normal;font-size:4.93888855px;line-height:1.25;font-family:Roboto;-inkscape-font-specification:Roboto;letter-spacing:0px;word-spacing:0px;display:inline;fill:#000000;fill-opacity:1;stroke:none;stroke-width:0.26458332"
       x="-72.056847"
       y="40.799801"
       id="text849"
       transform="scale(-1,1)"><tspan
         sodipodi:role="line"
         id="tspan847"
         x="-72.056847"
         y="40.799801"
         style="font-size:2.11666656px;stroke-width:0.26458332">jigglebilly</tspan></text>
    <path
       style="fill:#000000;fill-opacity:1;stroke:#000000;stroke-width:0;stroke-miterlimit:4;stroke-dasharray:none;stroke-opacity:1"
       d="m 34.750124,31.29576 c -0.428397,0 -0.908367,0.09814 -0.908367,0.185773 0,0.111291 0.426748,0.725382 0.822702,1.183838 0.377997,0.437678 0.589349,0.560866 0.657449,0.383414 0.05054,-0.131719 0.339578,-0.263895 0.48231,-0.220637 0.343341,0.104052 0.561586,0.495607 0.506735,0.909133 -0.03432,0.258601 -0.02936,0.271463 0.12345,0.328121 0.259552,0.09619 0.360998,0.05273 0.56266,-0.240198 0.172663,-0.250826 0.189164,-0.307773 0.168941,-0.583711 -0.07891,-1.075727 -1.15909,-1.945745 -2.415889,-1.945745 z m -1.075145,0.239206 c -0.141191,-0.0054 -0.614832,0.280106 -0.837362,0.521507 -0.257691,0.27961 -0.494076,0.752296 -0.537244,1.074173 -0.02977,0.222166 -0.01613,0.383786 0.06795,0.559287 0.0022,0.01 0.0079,0.01903 0.01365,0.02688 0.06225,0.120428 0.157609,0.248965 0.295864,0.409263 0.405208,0.469612 0.49673,0.677263 0.497835,1.129002 9.76e-4,0.400702 0.01205,0.423365 0.283579,0.588393 0.325847,0.197891 0.382629,0.170637 0.382629,-0.183621 0,-0.168156 0.02523,-0.305748 0.05558,-0.305748 0.0306,0 0.05558,0.146029 0.05558,0.326839 0,0.410048 0.08019,0.484167 0.542019,0.50066 0.180604,0.0066 0.180686,0.0066 0.180686,-0.271546 0,-0.152853 0.02523,-0.277956 0.05558,-0.277956 0.0306,0 0.05558,0.128618 0.05558,0.285772 v 0.285649 l 0.283829,-0.03391 c 0.390115,-0.04615 0.438881,-0.10045 0.438881,-0.488932 0,-0.180767 0.02482,-0.326838 0.05558,-0.326838 0.0306,0 0.05558,0.137592 0.05558,0.305747 0,0.01572 8.43e-4,0.02729 0.0011,0.04201 v 0.04959 c 0,0.0054 6.71e-4,0.01119 0.0022,0.01613 0.01407,0.248717 0.09128,0.251281 0.379817,0.07605 0.274027,-0.166417 0.282464,-0.185193 0.284822,-0.628355 0.0011,-0.265301 0.03722,-0.46628 0.112069,-0.631499 0.146608,-0.323158 0.13999,-0.371008 -0.06315,-0.455159 -0.13354,-0.05525 -0.19698,-0.05678 -0.277212,-0.0066 -0.18784,0.117325 -0.46094,0.07857 -0.619766,-0.08797 -0.158354,-0.166004 -0.26406,-0.398716 -0.26406,-0.581338 0,-0.06861 -0.177212,-0.300247 -0.435937,-0.569716 -0.385317,-0.401322 -0.960592,-1.144868 -1.026617,-1.326827 -0.0045,-0.01365 -0.0182,-0.02027 -0.03846,-0.0211 z m 1.852904,0.03639 c 0.0011,3.64e-4 0.0022,7.36e-4 0.0033,0.0011 -0.0011,7.11e-4 -0.0033,0.0011 -0.0045,0.0022 4.92e-4,-0.0011 8.85e-4,-0.0022 0.0011,-0.0033 z M 33.736,32.821218 c 0.06687,-0.0022 0.134161,0.01613 0.206618,0.05339 0.168112,0.08688 0.343877,0.383332 0.343877,0.579915 0,0.359635 -0.311,0.731825 -0.611516,0.731825 -0.148055,0 -0.23966,-0.04053 -0.345076,-0.152895 -0.275186,-0.293134 -0.251447,-0.740559 0.05451,-1.026947 0.130025,-0.121712 0.240114,-0.181762 0.35157,-0.185318 z m 0.995241,1.309561 c 0.05206,0 0.152811,0.347641 0.124978,0.431176 -0.01282,0.03805 -0.06894,0.06915 -0.124978,0.06915 -0.05604,0 -0.112325,-0.03101 -0.124979,-0.06915 -0.0277,-0.0835 0.07287,-0.431176 0.124979,-0.431176 z m -0.237137,0.166459 c 2.85e-4,5.4e-5 5.79e-4,6.6e-5 8.64e-4,1.08e-4 -2.73e-4,9.84e-4 -5.79e-4,0.0022 -8.64e-4,0.0033 z"
       id="path66"
       inkscape:connector-curvature="0" />
    <text
       xml:space="preserve"
       style="font-style:normal;font-variant:normal;font-weight:normal;font-stretch:normal;font-size:4.93888855px;line-height:1.25;font-family:Roboto;-inkscape-font-specification:Roboto;letter-spacing:0px;word-spacing:0px;fill:#000000;fill-opacity:1;stroke:none;stroke-width:0.26458332"
       x="-39.312889"
       y="37.659386"
       id="text1418"
       transform="scale(-1,1)"><tspan
         sodipodi:role="line"
         id="tspan1416"
         x="-39.312889"
         y="37.659386"
         style="font-size:1.41111112px;stroke-width:0.26458332">@BadgePirates</tspan></text>
  </g>
  <g
     id="g830"
     inkscape:groupmode="layer"
     inkscape:label="B.Silk-disabled"
     style="display:none" />
  <g
     id="g832"
     inkscape:groupmode="layer"
     inkscape:label="F.Cu"
     style="display:none">
    <path
       style="display:inline;fill:#000000;fill-opacity:1;stroke:#000000;stroke-width:0.30943078;stroke-opacity:1"
       d="m 193.66406,94.605469 c -22.03189,0.820883 -43.75248,6.677641 -62.53906,18.412111 -11.97171,-14.007407 -37.427107,-2.22519 -29.0332,16.20312 11.86126,8.39728 7.92407,20.01362 11.23437,32.9961 7.41872,22.11167 30.99452,28.48043 48.20508,40.51172 -23.11884,11.42757 -36.68257,41.46765 -19.57813,63.99414 8.21375,9.83048 21.81438,11.06188 23.26172,25.59375 12.2115,18.36912 -23.67068,3.26315 -26.10351,21.65039 10.69201,7.45286 37.28677,1.04652 53.95508,3.2539 18.34869,-1.11946 41.19116,2.22255 56.92187,-1.5039 -0.44326,-18.09704 -32.02679,-6.23733 -26.25,-24.40625 1.46754,-17.38196 24.95302,-16.45889 28.07227,-33.8086 9.39228,-22.91879 -5.76364,-48.17863 -28.55274,-55.4375 27.41495,-8.93398 59.9331,-29.55464 54.25781,-63.04101 20.66469,-7.06632 8.9936,-41.115973 -11.25,-30.79102 -12.91187,11.30611 -26.28508,-9.437334 -41.25,-9.300779 -10.17937,-2.644094 -21.30296,-3.734884 -31.35156,-4.326172 z m -28.92383,29.406251 c 2.68678,-0.004 3.97398,0.4526 6.4961,2.06445 4.65551,2.97528 7.35687,8.80715 6.52148,14.07617 -0.71599,4.51597 -3.84932,8.65944 -8.14453,10.76954 -1.92087,0.94365 -2.44698,1.05958 -5.10547,1.13085 -2.22108,0.0595 -3.31204,-0.0551 -4.35547,-0.45703 -5.59796,-2.15609 -9.02321,-6.1684 -9.88867,-11.58593 -0.89722,-5.61637 2.49977,-11.86977 8.03125,-14.78516 1.83582,-0.96757 2.28915,-1.07262 5.19922,-1.18555 0.44861,-0.0174 0.86227,-0.0268 1.24609,-0.0273 z m 60.70118,0.13086 c 3.4899,0 3.65089,0.0293 5.73047,1.08203 5.70916,2.88972 9.00969,9.43588 7.76562,15.40234 -0.99489,4.77148 -3.63451,8.21159 -7.82812,10.20313 -2.12077,1.00716 -2.72034,1.15007 -5.19336,1.23437 -2.17267,0.0741 -3.15304,-0.0372 -4.4004,-0.5 -4.35182,-1.6146 -6.85496,-3.84307 -8.73437,-7.77343 -1.06643,-2.23017 -1.10938,-2.45392 -1.10937,-5.74024 0,-3.3318 0.0307,-3.47973 1.16796,-5.78125 1.50218,-3.03946 3.99011,-5.59382 6.86524,-7.04492 2.08479,-1.05223 2.2476,-1.08203 5.73633,-1.08203 z"
       transform="scale(0.26458333)"
       id="path1060"
       inkscape:connector-curvature="0" />
  </g>
  <g
     id="g834"
     inkscape:groupmode="layer"
     inkscape:label="F.Mask"
     style="display:none">
    <path
       inkscape:connector-curvature="0"
       id="path1032"
       d="m 42.373574,40.109798 c -1.481128,-0.570467 -2.387212,-1.632189 -2.616197,-3.065578 -0.23739,-1.485996 0.661438,-3.140751 2.124975,-3.912115 0.485726,-0.256004 0.605757,-0.283332 1.375712,-0.313212 0.94955,-0.03685 1.28562,0.05158 2.04826,0.538973 1.23177,0.787209 1.94666,2.330016 1.72563,3.724111 -0.18944,1.19485 -1.01844,2.291002 -2.15488,2.849299 -0.50823,0.249676 -0.64747,0.280537 -1.350861,0.299394 -0.587661,0.01575 -0.876566,-0.01454 -1.152639,-0.120872 z m 16.23593,-0.0086 c -1.15142,-0.427197 -1.81366,-1.016498 -2.31092,-2.056407 -0.28216,-0.590064 -0.29362,-0.649339 -0.29362,-1.518845 0,-0.881538 0.008,-0.920901 0.30891,-1.529844 0.39745,-0.80419 1.05581,-1.479589 1.81652,-1.863525 0.5516,-0.278403 0.59474,-0.286545 1.5178,-0.286545 0.92337,0 0.96596,0.008 1.51618,0.286545 1.51055,0.764571 2.38369,2.496355 2.05453,4.074982 -0.26323,1.262452 -0.96148,2.172595 -2.07104,2.699524 -0.56112,0.266477 -0.71969,0.304151 -1.37401,0.326456 -0.57485,0.0196 -0.83432,-0.0099 -1.16435,-0.132341 z"
       style="display:inline;fill:#000000;stroke-width:0.08187023"
       sodipodi:nodetypes="cssssscccccsccsccccc" />
  </g>
  <g
     id="g836"
     inkscape:groupmode="layer"
     inkscape:label="F.Silk"
     style="display:inline">
    <path
       style="fill:#000000;stroke-width:0.08187023"
       d="m 35.269142,85.883875 c -0.1667,-0.06702 -0.403638,-0.60182 -0.513076,-1.158078 -0.200425,-1.01874 0.05422,-2.44922 0.600214,-3.371704 1.140434,-1.926824 3.273243,-3.10767 5.830175,-3.227921 0.360229,-0.01694 0.662101,-0.03442 0.670826,-0.03885 0.0087,-0.0044 -0.06334,-0.18304 -0.160136,-0.396926 -0.0968,-0.213886 -0.34341,-0.863137 -0.548021,-1.44278 l -0.37202,-1.053897 -0.614027,-0.223016 c -2.619747,-0.951496 -4.741072,-3.222629 -5.82103,-6.232113 -1.202669,-3.351439 -0.999782,-7.230124 0.539347,-10.310934 0.927121,-1.855779 2.54379,-3.620359 4.026776,-4.395191 0.239698,-0.125238 0.435904,-0.247897 0.43601,-0.272575 8.2e-5,-0.02468 -0.418005,-0.220851 -0.929137,-0.435942 -1.167061,-0.491111 -2.78391,-1.368088 -3.901012,-2.115904 -4.56133,-3.053468 -7.119352,-7.194739 -7.144716,-11.566833 -0.0031,-0.540344 0.01835,-1.203492 0.04774,-1.473664 l 0.05344,-0.491221 -0.504953,-0.389798 c -0.99822,-0.770575 -1.749989,-1.907182 -2.127859,-3.217125 -0.267932,-0.928829 -0.264685,-2.509197 0.007,-3.392981 0.648296,-2.109109 2.147044,-3.639118 4.184078,-4.271352 0.887053,-0.275314 2.474796,-0.274685 3.353794,0.0013 0.747869,0.234839 1.406225,0.561133 1.913587,0.948412 0.210695,0.160826 0.411347,0.292412 0.445894,0.292412 0.03455,0 0.328089,-0.165087 0.652318,-0.36686 2.031463,-1.264216 5.068409,-2.485422 7.838892,-3.152147 2.269618,-0.546191 3.645038,-0.751158 6.058398,-0.902827 0.81051,-0.05094 1.49593,-0.117638 1.52315,-0.148224 0.0272,-0.03059 0.24163,-0.681916 0.47648,-1.447403 0.23485,-0.765486 0.53242,-1.723368 0.66127,-2.128626 0.12884,-0.405257 0.43814,-1.39998 0.68734,-2.210496 1.32505,-4.309794 1.86243,-5.982519 1.97926,-6.160814 0.0713,-0.108792 0.2649,-0.255109 0.43025,-0.325147 0.34188,-0.14481 0.38521,-0.136465 4.76257,0.917161 1.23829,0.298054 2.87774,0.689412 3.64323,0.869683 0.76549,0.180272 1.45329,0.345766 1.52844,0.367764 0.10109,0.02959 0.20753,-0.09408 0.40893,-0.475107 0.56075,-1.060849 1.79123,-2.02981 3.05671,-2.407066 0.66508,-0.1982677 1.95477,-0.1982677 2.61985,0 2.21077,0.659056 3.72225,2.673993 3.72225,4.962095 0,2.299489 -1.58978,4.389963 -3.7677,4.954319 -0.68069,0.176385 -1.84552,0.176589 -2.53386,4.09e-4 -1.01329,-0.259301 -2.01932,-0.928712 -2.67361,-1.779009 -0.60442,-0.785494 -1.08748,-2.049137 -1.09081,-2.853511 l -10e-4,-0.291748 -1.73975,-0.423248 c -0.95685,-0.232787 -2.82656,-0.683171 -4.15491,-1.000855 -1.32834,-0.317683 -2.47616,-0.595971 -2.5507,-0.618417 -0.13512,-0.04069 -0.29729,0.357553 -0.66935,1.643648 -0.0651,0.225143 -0.35957,1.183024 -0.6543,2.128625 -1.61178,5.171196 -1.93844,6.239769 -1.93844,6.341095 0,0.04937 0.19191,0.08572 0.45262,0.08572 0.66383,0 2.72182,0.224124 3.80464,0.414342 3.78108,0.664222 7.19106,1.880092 9.99996,3.565606 0.47929,0.287602 0.89677,0.522914 0.92773,0.522914 0.031,0 0.20986,-0.125131 0.39755,-0.278068 0.49338,-0.402012 1.31373,-0.826873 2.0196,-1.045956 0.88706,-0.275314 2.4748,-0.274685 3.3538,0.0013 2.07545,0.651714 3.61144,2.200882 4.1931,4.229087 0.26946,0.939567 0.26946,2.580853 0,3.52042 -0.3544,1.235767 -1.19673,2.470352 -2.19607,3.218752 l -0.55264,0.413868 -0.01,1.663175 c -0.0107,1.778981 -0.057,2.099891 -0.51752,3.587124 -1.01778,3.286662 -3.60301,6.329751 -7.34083,8.640955 -0.75204,0.465008 -2.67317,1.441962 -3.80326,1.934075 l -0.28284,0.123167 0.56939,0.335172 c 2.24092,1.319129 3.93881,3.604884 4.73657,6.376521 0.92757,3.222618 0.6634,6.602706 -0.74046,9.474362 -1.11987,2.290731 -2.99549,4.13883 -5.011,4.937461 -0.38945,0.154317 -0.78954,0.313906 -0.88908,0.354641 -0.12721,0.05206 -0.22095,0.211569 -0.31553,0.536884 -0.074,0.25455 -0.29642,0.873098 -0.49428,1.37455 -0.19786,0.501452 -0.35982,0.943657 -0.3599,0.982678 -9e-5,0.03902 0.10009,0.05178 0.22262,0.02836 0.12253,-0.02342 0.56978,-0.0098 0.99389,0.03037 2.38105,0.22527 4.41266,1.477796 5.38652,3.320896 0.47536,0.899668 0.63492,1.625186 0.57792,2.627869 -0.0512,0.900125 -0.14803,1.296387 -0.39306,1.607887 l -0.16845,0.214153 -16.10202,-0.0065 c -8.856116,-0.0036 -16.149065,-0.02537 -16.206555,-0.04849 z m 9.952782,-1.877858 0.24897,-0.04979 -0.49381,-0.584701 c -0.54049,-0.639973 -1.495078,-2.022124 -1.77286,-2.566915 -0.199799,-0.39185 -0.398066,-0.47376 -1.362807,-0.563016 -1.148215,-0.106229 -2.471627,0.230684 -3.433677,0.874142 -0.911892,0.60991 -1.518543,1.472389 -1.649391,2.344951 -0.09648,0.643381 -0.431257,0.595126 4.128758,0.595126 2.247215,0 4.197877,-0.02241 4.334817,-0.04979 z m 20.83613,-0.474343 c -0.0696,-1.984508 -2.88779,-3.666332 -5.43286,-3.242209 -0.33472,0.05578 -0.6665,0.131716 -0.73728,0.168749 -0.0708,0.03703 -0.3023,0.361335 -0.51449,0.720674 -0.3997,0.676873 -1.41225,2.067407 -1.83842,2.524684 l -0.24398,0.261788 0.33941,0.0313 c 0.18668,0.01721 2.16308,0.02836 4.39199,0.02476 l 4.05258,-0.0065 -0.017,-0.483202 z m -11.47436,0.0614 c 3.18234,-2.327778 5.71111,-7.92497 6.78174,-15.01073 0.59008,-3.905376 0.65494,-8.95056 0.16506,-12.839153 -0.0812,-0.644954 -0.16657,-1.19149 -0.1896,-1.214522 -0.023,-0.02303 -0.62516,0.105937 -1.33805,0.286598 -3.2948,0.834971 -6.08739,1.144191 -9.48318,1.050062 -2.94865,-0.08174 -4.80834,-0.328503 -7.562458,-1.003484 -0.827232,-0.20274 -1.51491,-0.357732 -1.528174,-0.34443 -0.04113,0.04125 -0.277929,2.261325 -0.360607,3.380865 -0.218658,2.960855 -0.178545,5.820282 0.122889,8.760114 0.524662,5.116924 1.890492,9.818261 3.80261,13.088996 0.32645,0.558407 0.77945,1.268091 1.00666,1.577075 0.47524,0.646269 1.94408,2.133386 2.40536,2.435275 l 0.31257,0.204572 2.67225,0.0048 2.67224,0.0048 0.52069,-0.380872 z M 39.802035,71.236335 C 38.9367,66.942166 38.645436,61.858491 39.01985,57.584188 c 0.05063,-0.578006 0.06967,-1.073304 0.04231,-1.100665 -0.07505,-0.07504 -1.066908,0.933318 -1.512397,1.537557 -0.770788,1.045457 -1.41689,2.492073 -1.687416,3.778111 -0.278933,1.326002 -0.292911,3.30966 -0.0328,4.654522 0.379341,1.961308 1.581707,4.158686 2.882538,5.267971 0.447176,0.381329 1.30021,0.968495 1.34376,0.924945 0.01391,-0.01391 -0.100309,-0.64854 -0.253814,-1.410294 z m 23.533609,1.103486 c 3.22013,-2.081268 4.71349,-6.908305 3.48002,-11.248607 -0.45467,-1.599898 -1.61152,-3.498358 -2.67363,-4.387607 l -0.4204,-0.351982 0.0714,1.182676 c 0.12696,2.101908 0.0784,7.477877 -0.081,8.960347 -0.22551,2.097938 -0.78981,5.497357 -1.00612,6.061065 -0.0742,0.193393 0.0762,0.141807 0.62967,-0.215892 z M 54.285694,53.67418 c 5.66081,-0.501286 10.66149,-2.34578 14.28573,-5.269269 3.68107,-2.969329 5.43853,-7.036931 4.63544,-10.72858 -1.11177,-5.110525 -6.10529,-9.32294 -13.43587,-11.334155 -2.47431,-0.678853 -4.70257,-0.982771 -7.6598,-1.044741 -2.3046,-0.04829 -3.50513,0.01955 -5.5213,0.312009 -7.467888,1.083274 -13.645488,4.717799 -16.044735,9.439749 -0.79186,1.558454 -1.106416,2.840595 -1.106509,4.510153 -8.2e-5,1.524881 0.262004,2.671674 0.938592,4.106899 0.620532,1.316314 1.27496,2.237786 2.452114,3.452719 4.572884,4.719642 13.024898,7.301852 21.456338,6.555216 z m -4.38006,-3.64612 c -2.42247,-0.180646 -4.48086,-0.796155 -5.967371,-1.784385 -0.642603,-0.427201 -1.288983,-1.085725 -1.365689,-1.391345 -0.15764,-0.628084 0.336117,-1.275523 0.97275,-1.275523 0.376147,0 0.5443,0.09165 1.14275,0.622859 0.86007,0.763422 2.59567,1.396519 4.47762,1.633307 1.09943,0.138332 3.35602,0.154534 4.48873,0.03223 1.91522,-0.206797 3.76337,-0.878579 4.71683,-1.714522 0.53235,-0.466731 0.74895,-0.575312 1.13899,-0.570972 0.55476,0.0062 0.95521,0.449568 0.95611,1.058628 4.9e-4,0.346702 -0.0302,0.395448 -0.59368,0.941508 -1.2094,1.172054 -3.0583,1.960595 -5.38231,2.295509 -0.84944,0.122413 -3.71227,0.217767 -4.58473,0.152706 z m 25.3725,-14.82826 c 1.8309,-2.138475 1.20641,-5.338952 -1.27626,-6.540765 -0.58584,-0.283594 -0.71103,-0.312767 -1.46898,-0.342301 -0.61539,-0.02398 -0.95241,0.0035 -1.30992,0.106992 -0.50411,0.145859 -1.27355,0.535997 -1.23857,0.628002 0.0112,0.02948 0.28813,0.293054 0.61539,0.585725 1.1189,1.000647 2.24702,2.339729 3.01346,3.576995 0.35242,0.568896 1.09906,2.11583 1.09906,2.277084 0,0.207628 0.24757,0.07999 0.56582,-0.291732 z M 28.249782,35.03869 c 0.676089,-1.814234 2.452231,-4.160597 4.367865,-5.770145 l 0.355046,-0.298317 -0.191306,-0.125101 c -0.105219,-0.06881 -0.375514,-0.208027 -0.600657,-0.309381 -0.563709,-0.25377 -1.859535,-0.311011 -2.547838,-0.112547 -2.836556,0.817892 -3.88601,4.309458 -2.000011,6.654106 0.190313,0.236594 0.374139,0.412795 0.408505,0.391556 0.03436,-0.02124 0.128142,-0.214815 0.208396,-0.430171 z M 70.992744,17.775708 c 1.28726,-0.608971 1.99044,-2.098805 1.63868,-3.47186 -0.75974,-2.965571 -4.8099,-3.062275 -5.70916,-0.136315 -0.24328,0.791581 -0.18296,1.429314 0.2105,2.22542 0.40474,0.818939 1.08681,1.376245 1.96183,1.602972 0.48636,0.126018 1.38719,0.02151 1.89815,-0.220217 z"
       id="path981"
       inkscape:connector-curvature="0"
       sodipodi:nodetypes="ccscccscssscccscccsscsccscsccsccccsccccssscccccscccssscscccccccccscccccsccscsccccccccccsscssscccccccccccccccccscccsscccccccccccssccscccccccccccsscscsscssssssscssccccsscscccccscscccccccscccccc" />
    <text
       xml:space="preserve"
       style="font-style:normal;font-variant:normal;font-weight:normal;font-stretch:normal;font-size:2.64707661px;line-height:1.25;font-family:Roboto;-inkscape-font-specification:Roboto;letter-spacing:0px;word-spacing:0px;display:inline;fill:#000000;fill-opacity:1;stroke:none;stroke-width:0.14180768"
       x="51.455601"
       y="64.308937"
       id="text840"><tspan
         sodipodi:role="line"
         id="tspan838"
         x="51.455601"
         y="64.308937"
         style="text-align:center;text-anchor:middle;stroke-width:0.14180768">Defcon 27</tspan><tspan
         sodipodi:role="line"
         x="51.455601"
         y="67.617783"
         style="text-align:center;text-anchor:middle;stroke-width:0.14180768"
         id="tspan842">Reddit Meetup</tspan></text>
  </g>
  <g
     id="g838"
     inkscape:groupmode="layer"
     inkscape:label="Drill"
     style="display:inline" />
</svg>
