G04 #@! TF.GenerationSoftware,KiCad,Pcbnew,(5.1.2)-1*
G04 #@! TF.CreationDate,2019-07-21T19:57:09-05:00*
G04 #@! TF.ProjectId,reddit-snoo-meetup,72656464-6974-42d7-936e-6f6f2d6d6565,rev?*
G04 #@! TF.SameCoordinates,Original*
G04 #@! TF.FileFunction,Profile,NP*
%FSLAX46Y46*%
G04 Gerber Fmt 4.6, Leading zero omitted, Abs format (unit mm)*
G04 Created by KiCad (PCBNEW (5.1.2)-1) date 2019-07-21 19:57:09*
%MOMM*%
%LPD*%
G04 APERTURE LIST*
%ADD10C,0.100000*%
G04 APERTURE END LIST*
D10*
X-14730858Y-35883875D02*
X-14796278Y-35837685D01*
X-14796278Y-35837685D02*
X-14865968Y-35752875D01*
X-14865968Y-35752875D02*
X-15008874Y-35488300D01*
X-15008874Y-35488300D02*
X-15141044Y-35131993D01*
X-15141044Y-35131993D02*
X-15243939Y-34725797D01*
X-15243939Y-34725797D02*
X-15298089Y-34326266D01*
X-15298089Y-34326266D02*
X-15311489Y-33898912D01*
X-15311489Y-33898912D02*
X-15286069Y-33454513D01*
X-15286069Y-33454513D02*
X-15223739Y-33003849D01*
X-15223739Y-33003849D02*
X-15126419Y-32557697D01*
X-15126419Y-32557697D02*
X-14996031Y-32126834D01*
X-14996031Y-32126834D02*
X-14834493Y-31722040D01*
X-14834493Y-31722040D02*
X-14643722Y-31354093D01*
X-14643722Y-31354093D02*
X-14418400Y-31001632D01*
X-14418400Y-31001632D02*
X-14170652Y-30667116D01*
X-14170652Y-30667116D02*
X-13901309Y-30351006D01*
X-13901309Y-30351006D02*
X-13611205Y-30053762D01*
X-13611205Y-30053762D02*
X-13301172Y-29775845D01*
X-13301172Y-29775845D02*
X-12972042Y-29517717D01*
X-12972042Y-29517717D02*
X-12624648Y-29279837D01*
X-12624648Y-29279837D02*
X-12259821Y-29062668D01*
X-12259821Y-29062668D02*
X-11878395Y-28866669D01*
X-11878395Y-28866669D02*
X-11481202Y-28692302D01*
X-11481202Y-28692302D02*
X-11069074Y-28540027D01*
X-11069074Y-28540027D02*
X-10642844Y-28410306D01*
X-10642844Y-28410306D02*
X-10203344Y-28303599D01*
X-10203344Y-28303599D02*
X-9751406Y-28220369D01*
X-9751406Y-28220369D02*
X-9287863Y-28161069D01*
X-9287863Y-28161069D02*
X-8813547Y-28126169D01*
X-8813547Y-28126169D02*
X-8142721Y-28087319D01*
X-8142721Y-28087319D02*
X-8302857Y-27690393D01*
X-8302857Y-27690393D02*
X-8536438Y-27106162D01*
X-8536438Y-27106162D02*
X-8850878Y-26247613D01*
X-8850878Y-26247613D02*
X-9222898Y-25193716D01*
X-9222898Y-25193716D02*
X-9836925Y-24970700D01*
X-9836925Y-24970700D02*
X-10322154Y-24776972D01*
X-10322154Y-24776972D02*
X-10794906Y-24553166D01*
X-10794906Y-24553166D02*
X-11254386Y-24300135D01*
X-11254386Y-24300135D02*
X-11699798Y-24018729D01*
X-11699798Y-24018729D02*
X-12130346Y-23709800D01*
X-12130346Y-23709800D02*
X-12545237Y-23374199D01*
X-12545237Y-23374199D02*
X-12943673Y-23012778D01*
X-12943673Y-23012778D02*
X-13324861Y-22626389D01*
X-13324861Y-22626389D02*
X-13688004Y-22215883D01*
X-13688004Y-22215883D02*
X-14032307Y-21782111D01*
X-14032307Y-21782111D02*
X-14356976Y-21325925D01*
X-14356976Y-21325925D02*
X-14661214Y-20848177D01*
X-14661214Y-20848177D02*
X-14944226Y-20349717D01*
X-14944226Y-20349717D02*
X-15205217Y-19831398D01*
X-15205217Y-19831398D02*
X-15443392Y-19294071D01*
X-15443392Y-19294071D02*
X-15657955Y-18738587D01*
X-15657955Y-18738587D02*
X-15867001Y-18104337D01*
X-15867001Y-18104337D02*
X-16043206Y-17459671D01*
X-16043206Y-17459671D02*
X-16186671Y-16806530D01*
X-16186671Y-16806530D02*
X-16297498Y-16146854D01*
X-16297498Y-16146854D02*
X-16375788Y-15482586D01*
X-16375788Y-15482586D02*
X-16421648Y-14815666D01*
X-16421648Y-14815666D02*
X-16435168Y-14148035D01*
X-16435168Y-14148035D02*
X-16416458Y-13481634D01*
X-16416458Y-13481634D02*
X-16365618Y-12818405D01*
X-16365618Y-12818405D02*
X-16282748Y-12160288D01*
X-16282748Y-12160288D02*
X-16167951Y-11509225D01*
X-16167951Y-11509225D02*
X-16021328Y-10867157D01*
X-16021328Y-10867157D02*
X-15842981Y-10236025D01*
X-15842981Y-10236025D02*
X-15633012Y-9617769D01*
X-15633012Y-9617769D02*
X-15391521Y-9014331D01*
X-15391521Y-9014331D02*
X-15118610Y-8427653D01*
X-15118610Y-8427653D02*
X-14740225Y-7737766D01*
X-14740225Y-7737766D02*
X-14306842Y-7066958D01*
X-14306842Y-7066958D02*
X-13828108Y-6425761D01*
X-13828108Y-6425761D02*
X-13313671Y-5824702D01*
X-13313671Y-5824702D02*
X-12773178Y-5274314D01*
X-12773178Y-5274314D02*
X-12216276Y-4785124D01*
X-12216276Y-4785124D02*
X-11934686Y-4566769D01*
X-11934686Y-4566769D02*
X-11652612Y-4367663D01*
X-11652612Y-4367663D02*
X-11371259Y-4189122D01*
X-11371259Y-4189122D02*
X-11091834Y-4032462D01*
X-11091834Y-4032462D02*
X-10783982Y-3858465D01*
X-10783982Y-3858465D02*
X-10655824Y-3759885D01*
X-10655824Y-3759885D02*
X-10729084Y-3711605D01*
X-10729084Y-3711605D02*
X-10928682Y-3613315D01*
X-10928682Y-3613315D02*
X-11584956Y-3323940D01*
X-11584956Y-3323940D02*
X-12529751Y-2891304D01*
X-12529751Y-2891304D02*
X-13554197Y-2362252D01*
X-13554197Y-2362252D02*
X-14569275Y-1785068D01*
X-14569275Y-1785068D02*
X-15485968Y-1208036D01*
X-15485968Y-1208036D02*
X-16317612Y-622972D01*
X-16317612Y-622972D02*
X-17101528Y-13669D01*
X-17101528Y-13669D02*
X-17836940Y618620D01*
X-17836940Y618620D02*
X-18523074Y1272638D01*
X-18523074Y1272638D02*
X-19159154Y1947130D01*
X-19159154Y1947130D02*
X-19744404Y2640840D01*
X-19744404Y2640840D02*
X-20278049Y3352514D01*
X-20278049Y3352514D02*
X-20759313Y4080896D01*
X-20759313Y4080896D02*
X-21187422Y4824730D01*
X-21187422Y4824730D02*
X-21561599Y5582762D01*
X-21561599Y5582762D02*
X-21881070Y6353736D01*
X-21881070Y6353736D02*
X-22145059Y7136396D01*
X-22145059Y7136396D02*
X-22352790Y7929488D01*
X-22352790Y7929488D02*
X-22503488Y8731755D01*
X-22503488Y8731755D02*
X-22596378Y9541944D01*
X-22596378Y9541944D02*
X-22630688Y10358797D01*
X-22630688Y10358797D02*
X-22618998Y11196944D01*
X-22618998Y11196944D02*
X-22582948Y11832461D01*
X-22582948Y11832461D02*
X-22529508Y12323682D01*
X-22529508Y12323682D02*
X-23034461Y12713480D01*
X-23034461Y12713480D02*
X-23396992Y13019227D01*
X-23396992Y13019227D02*
X-23734925Y13357031D01*
X-23734925Y13357031D02*
X-24046766Y13724635D01*
X-24046766Y13724635D02*
X-24331022Y14119780D01*
X-24331022Y14119780D02*
X-24586199Y14540207D01*
X-24586199Y14540207D02*
X-24810803Y14983659D01*
X-24810803Y14983659D02*
X-25003341Y15447878D01*
X-25003341Y15447878D02*
X-25162320Y15930605D01*
X-25162320Y15930605D02*
X-25250090Y16306824D01*
X-25250090Y16306824D02*
X-25312470Y16728326D01*
X-25312470Y16728326D02*
X-25349490Y17179313D01*
X-25349490Y17179313D02*
X-25361180Y17643987D01*
X-25361180Y17643987D02*
X-25347580Y18106550D01*
X-25347580Y18106550D02*
X-25308720Y18551203D01*
X-25308720Y18551203D02*
X-25244620Y18962148D01*
X-25244620Y18962148D02*
X-25155330Y19323586D01*
X-25155330Y19323586D02*
X-25023884Y19712180D01*
X-25023884Y19712180D02*
X-24872964Y20086734D01*
X-24872964Y20086734D02*
X-24703025Y20446782D01*
X-24703025Y20446782D02*
X-24514526Y20791857D01*
X-24514526Y20791857D02*
X-24307923Y21121492D01*
X-24307923Y21121492D02*
X-24083674Y21435221D01*
X-24083674Y21435221D02*
X-23842237Y21732576D01*
X-23842237Y21732576D02*
X-23584068Y22013090D01*
X-23584068Y22013090D02*
X-23309624Y22276298D01*
X-23309624Y22276298D02*
X-23019364Y22521731D01*
X-23019364Y22521731D02*
X-22713744Y22748924D01*
X-22713744Y22748924D02*
X-22393221Y22957409D01*
X-22393221Y22957409D02*
X-22058254Y23146720D01*
X-22058254Y23146720D02*
X-21709298Y23316389D01*
X-21709298Y23316389D02*
X-21346812Y23465951D01*
X-21346812Y23465951D02*
X-20971252Y23594938D01*
X-20971252Y23594938D02*
X-20608515Y23685248D01*
X-20608515Y23685248D02*
X-20196605Y23749698D01*
X-20196605Y23749698D02*
X-19752039Y23788288D01*
X-19752039Y23788288D02*
X-19291334Y23801028D01*
X-19291334Y23801028D02*
X-18831007Y23787928D01*
X-18831007Y23787928D02*
X-18387574Y23748988D01*
X-18387574Y23748988D02*
X-17977552Y23684228D01*
X-17977552Y23684228D02*
X-17617458Y23593638D01*
X-17617458Y23593638D02*
X-17074301Y23400837D01*
X-17074301Y23400837D02*
X-16570474Y23176597D01*
X-16570474Y23176597D02*
X-16111743Y22923774D01*
X-16111743Y22923774D02*
X-15703871Y22645226D01*
X-15703871Y22645226D02*
X-15414869Y22438710D01*
X-15414869Y22438710D02*
X-15257977Y22352810D01*
X-15257977Y22352810D02*
X-15040448Y22460575D01*
X-15040448Y22460575D02*
X-14605659Y22719670D01*
X-14605659Y22719670D02*
X-13799213Y23190736D01*
X-13799213Y23190736D02*
X-12913408Y23651776D01*
X-12913408Y23651776D02*
X-11963150Y24096796D01*
X-11963150Y24096796D02*
X-10963346Y24519803D01*
X-10963346Y24519803D02*
X-9928899Y24914802D01*
X-9928899Y24914802D02*
X-8874717Y25275800D01*
X-8874717Y25275800D02*
X-7815704Y25596803D01*
X-7815704Y25596803D02*
X-6766767Y25871817D01*
X-6766767Y25871817D02*
X-5953802Y26061206D01*
X-5953802Y26061206D02*
X-5202026Y26221980D01*
X-5202026Y26221980D02*
X-4488796Y26357512D01*
X-4488796Y26357512D02*
X-3791471Y26471176D01*
X-3791471Y26471176D02*
X-3087408Y26566346D01*
X-3087408Y26566346D02*
X-2353965Y26646396D01*
X-2353965Y26646396D02*
X-708369Y26774640D01*
X-708369Y26774640D02*
X346940Y26856380D01*
X346940Y26856380D02*
X679283Y26893960D01*
X679283Y26893960D02*
X814781Y26922860D01*
X814781Y26922860D02*
X975152Y27370975D01*
X975152Y27370975D02*
X1291261Y28370263D01*
X1291261Y28370263D02*
X1952531Y30498889D01*
X1952531Y30498889D02*
X2639871Y32709385D01*
X2639871Y32709385D02*
X4082583Y37339104D01*
X4082583Y37339104D02*
X4446919Y38438418D01*
X4446919Y38438418D02*
X4554889Y38731055D01*
X4554889Y38731055D02*
X4619129Y38870199D01*
X4619129Y38870199D02*
X4693179Y38957049D01*
X4693179Y38957049D02*
X4798981Y39047299D01*
X4798981Y39047299D02*
X4922418Y39130289D01*
X4922418Y39130289D02*
X5049375Y39195339D01*
X5049375Y39195339D02*
X5172633Y39240719D01*
X5172633Y39240719D02*
X5322191Y39261289D01*
X5322191Y39261289D02*
X5552335Y39246589D01*
X5552335Y39246589D02*
X5917355Y39186169D01*
X5917355Y39186169D02*
X7269172Y38886344D01*
X7269172Y38886344D02*
X9811945Y38278175D01*
X9811945Y38278175D02*
X13455175Y37408492D01*
X13455175Y37408492D02*
X14983615Y37040728D01*
X14983615Y37040728D02*
X15021955Y37037028D01*
X15021955Y37037028D02*
X15061845Y37048908D01*
X15061845Y37048908D02*
X15150475Y37124308D01*
X15150475Y37124308D02*
X15257911Y37276701D01*
X15257911Y37276701D02*
X15392556Y37515843D01*
X15392556Y37515843D02*
X15632991Y37908378D01*
X15632991Y37908378D02*
X15928775Y38286441D01*
X15928775Y38286441D02*
X16272470Y38644175D01*
X16272470Y38644175D02*
X16656637Y38975723D01*
X16656637Y38975723D02*
X17073839Y39275228D01*
X17073839Y39275228D02*
X17516636Y39536832D01*
X17516636Y39536832D02*
X17977591Y39754678D01*
X17977591Y39754678D02*
X18449266Y39922909D01*
X18449266Y39922909D02*
X18725510Y39987969D01*
X18725510Y39987969D02*
X19045671Y40034438D01*
X19045671Y40034438D02*
X19395112Y40062319D01*
X19395112Y40062319D02*
X19759191Y40071609D01*
X19759191Y40071609D02*
X20123270Y40062319D01*
X20123270Y40062319D02*
X20472711Y40034438D01*
X20472711Y40034438D02*
X20792872Y39987969D01*
X20792872Y39987969D02*
X21069116Y39922909D01*
X21069116Y39922909D02*
X21475242Y39783711D01*
X21475242Y39783711D02*
X21863789Y39614321D01*
X21863789Y39614321D02*
X22233567Y39416324D01*
X22233567Y39416324D02*
X22583386Y39191307D01*
X22583386Y39191307D02*
X22912057Y38940855D01*
X22912057Y38940855D02*
X23218389Y38666555D01*
X23218389Y38666555D02*
X23501193Y38369993D01*
X23501193Y38369993D02*
X23759280Y38052754D01*
X23759280Y38052754D02*
X23991459Y37716425D01*
X23991459Y37716425D02*
X24196541Y37362591D01*
X24196541Y37362591D02*
X24373336Y36992839D01*
X24373336Y36992839D02*
X24520654Y36608755D01*
X24520654Y36608755D02*
X24637306Y36211924D01*
X24637306Y36211924D02*
X24722106Y35803933D01*
X24722106Y35803933D02*
X24773856Y35386368D01*
X24773856Y35386368D02*
X24791366Y34960814D01*
X24791366Y34960814D02*
X24772976Y34532431D01*
X24772976Y34532431D02*
X24718796Y34110876D01*
X24718796Y34110876D02*
X24630296Y33698078D01*
X24630296Y33698078D02*
X24508933Y33295967D01*
X24508933Y33295967D02*
X24356178Y32906473D01*
X24356178Y32906473D02*
X24173498Y32531524D01*
X24173498Y32531524D02*
X23962362Y32173050D01*
X23962362Y32173050D02*
X23724236Y31832980D01*
X23724236Y31832980D02*
X23460587Y31513243D01*
X23460587Y31513243D02*
X23172884Y31215770D01*
X23172884Y31215770D02*
X22862592Y30942489D01*
X22862592Y30942489D02*
X22531179Y30695329D01*
X22531179Y30695329D02*
X22180113Y30476221D01*
X22180113Y30476221D02*
X21810861Y30287093D01*
X21810861Y30287093D02*
X21424889Y30129874D01*
X21424889Y30129874D02*
X21023666Y30006495D01*
X21023666Y30006495D02*
X20747589Y29948615D01*
X20747589Y29948615D02*
X20437382Y29907245D01*
X20437382Y29907245D02*
X20104301Y29882405D01*
X20104301Y29882405D02*
X19759605Y29874105D01*
X19759605Y29874105D02*
X19414549Y29882305D01*
X19414549Y29882305D02*
X19080393Y29907035D01*
X19080393Y29907035D02*
X18768393Y29948305D01*
X18768393Y29948305D02*
X18489806Y30006105D01*
X18489806Y30006105D02*
X18110835Y30122119D01*
X18110835Y30122119D02*
X17736582Y30273895D01*
X17736582Y30273895D02*
X17371084Y30458746D01*
X17371084Y30458746D02*
X17018376Y30673986D01*
X17018376Y30673986D02*
X16682497Y30916929D01*
X16682497Y30916929D02*
X16367482Y31184889D01*
X16367482Y31184889D02*
X16077370Y31475179D01*
X16077370Y31475179D02*
X15816196Y31785114D01*
X15816196Y31785114D02*
X15595927Y32100257D01*
X15595927Y32100257D02*
X15391236Y32449240D01*
X15391236Y32449240D02*
X15206321Y32821080D01*
X15206321Y32821080D02*
X15045382Y33204790D01*
X15045382Y33204790D02*
X14912620Y33589384D01*
X14912620Y33589384D02*
X14812233Y33963879D01*
X14812233Y33963879D02*
X14748423Y34317287D01*
X14748423Y34317287D02*
X14725383Y34638625D01*
X14725383Y34638625D02*
X14724383Y34930373D01*
X14724383Y34930373D02*
X12984633Y35353621D01*
X12984633Y35353621D02*
X8829723Y36354476D01*
X8829723Y36354476D02*
X6279023Y36972893D01*
X6279023Y36972893D02*
X6226723Y36966693D01*
X6226723Y36966693D02*
X6169753Y36914093D01*
X6169753Y36914093D02*
X6105963Y36809818D01*
X6105963Y36809818D02*
X6033203Y36648610D01*
X6033203Y36648610D02*
X5852224Y36134355D01*
X5852224Y36134355D02*
X5609676Y35329242D01*
X5609676Y35329242D02*
X4955376Y33200617D01*
X4955376Y33200617D02*
X3381738Y28128868D01*
X3381738Y28128868D02*
X3093161Y27165866D01*
X3093161Y27165866D02*
X3016931Y26859522D01*
X3016931Y26859522D02*
X3050991Y26825302D01*
X3050991Y26825302D02*
X3145471Y26798152D01*
X3145471Y26798152D02*
X3469547Y26773802D01*
X3469547Y26773802D02*
X4191804Y26735812D01*
X4191804Y26735812D02*
X5214746Y26637962D01*
X5214746Y26637962D02*
X6316248Y26504448D01*
X6316248Y26504448D02*
X7274187Y26359459D01*
X7274187Y26359459D02*
X8674248Y26084677D01*
X8674248Y26084677D02*
X10036822Y25759140D01*
X10036822Y25759140D02*
X11359216Y25383807D01*
X11359216Y25383807D02*
X12638734Y24959641D01*
X12638734Y24959641D02*
X13261573Y24729545D01*
X13261573Y24729545D02*
X13872682Y24487601D01*
X13872682Y24487601D02*
X14471724Y24233929D01*
X14471724Y24233929D02*
X15058363Y23968649D01*
X15058363Y23968649D02*
X15632262Y23691881D01*
X15632262Y23691881D02*
X16193083Y23403746D01*
X16193083Y23403746D02*
X16740490Y23104363D01*
X16740490Y23104363D02*
X17274147Y22793853D01*
X17274147Y22793853D02*
X17906136Y22424545D01*
X17906136Y22424545D02*
X18201877Y22270939D01*
X18201877Y22270939D02*
X18341893Y22352619D01*
X18341893Y22352619D02*
X18599427Y22549004D01*
X18599427Y22549004D02*
X18798909Y22700383D01*
X18798909Y22700383D02*
X19023871Y22851225D01*
X19023871Y22851225D02*
X19529543Y23140580D01*
X19529543Y23140580D02*
X20075057Y23395637D01*
X20075057Y23395637D02*
X20619027Y23594960D01*
X20619027Y23594960D02*
X20981766Y23685270D01*
X20981766Y23685270D02*
X21393677Y23749720D01*
X21393677Y23749720D02*
X21838244Y23788310D01*
X21838244Y23788310D02*
X22298950Y23801050D01*
X22298950Y23801050D02*
X22759277Y23787950D01*
X22759277Y23787950D02*
X23202710Y23749010D01*
X23202710Y23749010D02*
X23612733Y23684250D01*
X23612733Y23684250D02*
X23972827Y23593660D01*
X23972827Y23593660D02*
X24355551Y23461049D01*
X24355551Y23461049D02*
X24725023Y23308016D01*
X24725023Y23308016D02*
X25080637Y23135176D01*
X25080637Y23135176D02*
X25421783Y22943140D01*
X25421783Y22943140D02*
X25747856Y22732521D01*
X25747856Y22732521D02*
X26058246Y22503933D01*
X26058246Y22503933D02*
X26352346Y22257989D01*
X26352346Y22257989D02*
X26629548Y21995301D01*
X26629548Y21995301D02*
X26889245Y21716482D01*
X26889245Y21716482D02*
X27130829Y21422145D01*
X27130829Y21422145D02*
X27353693Y21112903D01*
X27353693Y21112903D02*
X27557227Y20789370D01*
X27557227Y20789370D02*
X27740826Y20452157D01*
X27740826Y20452157D02*
X27903881Y20101878D01*
X27903881Y20101878D02*
X28045783Y19739146D01*
X28045783Y19739146D02*
X28165927Y19364573D01*
X28165927Y19364573D02*
X28254347Y18982083D01*
X28254347Y18982083D02*
X28317497Y18550254D01*
X28317497Y18550254D02*
X28355387Y18085532D01*
X28355387Y18085532D02*
X28368017Y17604363D01*
X28368017Y17604363D02*
X28355387Y17123194D01*
X28355387Y17123194D02*
X28317497Y16658472D01*
X28317497Y16658472D02*
X28254347Y16226643D01*
X28254347Y16226643D02*
X28165927Y15844153D01*
X28165927Y15844153D02*
X28010802Y15381743D01*
X28010802Y15381743D02*
X27813811Y14925128D01*
X27813811Y14925128D02*
X27578832Y14479990D01*
X27578832Y14479990D02*
X27309744Y14052014D01*
X27309744Y14052014D02*
X27010425Y13646884D01*
X27010425Y13646884D02*
X26684752Y13270283D01*
X26684752Y13270283D02*
X26336603Y12927894D01*
X26336603Y12927894D02*
X25969857Y12625401D01*
X25969857Y12625401D02*
X25417217Y12211533D01*
X25417217Y12211533D02*
X25407217Y10548358D01*
X25407217Y10548358D02*
X25386597Y9446504D01*
X25386597Y9446504D02*
X25360187Y9023732D01*
X25360187Y9023732D02*
X25317127Y8645390D01*
X25317127Y8645390D02*
X25252987Y8280724D01*
X25252987Y8280724D02*
X25163327Y7898979D01*
X25163327Y7898979D02*
X24889687Y6961234D01*
X24889687Y6961234D02*
X24680586Y6347958D01*
X24680586Y6347958D02*
X24435356Y5741107D01*
X24435356Y5741107D02*
X24154603Y5141395D01*
X24154603Y5141395D02*
X23838937Y4549537D01*
X23838937Y4549537D02*
X23488965Y3966250D01*
X23488965Y3966250D02*
X23105294Y3392247D01*
X23105294Y3392247D02*
X22688532Y2828246D01*
X22688532Y2828246D02*
X22239287Y2274960D01*
X22239287Y2274960D02*
X21758166Y1733105D01*
X21758166Y1733105D02*
X21245778Y1203397D01*
X21245778Y1203397D02*
X20702730Y686550D01*
X20702730Y686550D02*
X20129629Y183281D01*
X20129629Y183281D02*
X19527084Y-305697D01*
X19527084Y-305697D02*
X18895702Y-779666D01*
X18895702Y-779666D02*
X18236090Y-1237913D01*
X18236090Y-1237913D02*
X17548857Y-1679721D01*
X17548857Y-1679721D02*
X16796250Y-2108892D01*
X16796250Y-2108892D02*
X15788996Y-2636594D01*
X15788996Y-2636594D02*
X14710857Y-3169378D01*
X14710857Y-3169378D02*
X13745597Y-3613796D01*
X13745597Y-3613796D02*
X13462757Y-3736963D01*
X13462757Y-3736963D02*
X14032147Y-4072135D01*
X14032147Y-4072135D02*
X14445869Y-4330682D01*
X14445869Y-4330682D02*
X14846340Y-4611180D01*
X14846340Y-4611180D02*
X15233038Y-4912925D01*
X15233038Y-4912925D02*
X15605439Y-5235213D01*
X15605439Y-5235213D02*
X15963021Y-5577339D01*
X15963021Y-5577339D02*
X16305260Y-5938599D01*
X16305260Y-5938599D02*
X16631633Y-6318289D01*
X16631633Y-6318289D02*
X16941617Y-6715705D01*
X16941617Y-6715705D02*
X17234689Y-7130143D01*
X17234689Y-7130143D02*
X17510326Y-7560898D01*
X17510326Y-7560898D02*
X17768005Y-8007266D01*
X17768005Y-8007266D02*
X18007202Y-8468543D01*
X18007202Y-8468543D02*
X18227395Y-8944025D01*
X18227395Y-8944025D02*
X18428061Y-9433007D01*
X18428061Y-9433007D02*
X18608676Y-9934785D01*
X18608676Y-9934785D02*
X18768717Y-10448656D01*
X18768717Y-10448656D02*
X18928683Y-11054580D01*
X18928683Y-11054580D02*
X19060795Y-11663219D01*
X19060795Y-11663219D02*
X19165127Y-12273597D01*
X19165127Y-12273597D02*
X19241757Y-12884740D01*
X19241757Y-12884740D02*
X19290757Y-13495672D01*
X19290757Y-13495672D02*
X19312207Y-14105418D01*
X19312207Y-14105418D02*
X19306207Y-14713002D01*
X19306207Y-14713002D02*
X19272787Y-15317448D01*
X19272787Y-15317448D02*
X19212047Y-15917781D01*
X19212047Y-15917781D02*
X19124067Y-16513026D01*
X19124067Y-16513026D02*
X19008913Y-17102208D01*
X19008913Y-17102208D02*
X18866666Y-17684350D01*
X18866666Y-17684350D02*
X18697402Y-18258477D01*
X18697402Y-18258477D02*
X18501199Y-18823615D01*
X18501199Y-18823615D02*
X18278131Y-19378787D01*
X18278131Y-19378787D02*
X18028276Y-19923018D01*
X18028276Y-19923018D02*
X17809594Y-20347195D01*
X17809594Y-20347195D02*
X17574102Y-20760109D01*
X17574102Y-20760109D02*
X17322701Y-21160870D01*
X17322701Y-21160870D02*
X17056293Y-21548591D01*
X17056293Y-21548591D02*
X16775781Y-21922382D01*
X16775781Y-21922382D02*
X16482067Y-22281354D01*
X16482067Y-22281354D02*
X16176053Y-22624618D01*
X16176053Y-22624618D02*
X15858641Y-22951286D01*
X15858641Y-22951286D02*
X15530733Y-23260468D01*
X15530733Y-23260468D02*
X15193232Y-23551276D01*
X15193232Y-23551276D02*
X14847039Y-23822820D01*
X14847039Y-23822820D02*
X14493056Y-24074212D01*
X14493056Y-24074212D02*
X14132187Y-24304563D01*
X14132187Y-24304563D02*
X13765332Y-24512984D01*
X13765332Y-24512984D02*
X13393394Y-24698585D01*
X13393394Y-24698585D02*
X13017276Y-24860479D01*
X13017276Y-24860479D02*
X12128196Y-25215120D01*
X12128196Y-25215120D02*
X12038526Y-25275220D01*
X12038526Y-25275220D02*
X11958196Y-25381087D01*
X11958196Y-25381087D02*
X11883986Y-25538191D01*
X11883986Y-25538191D02*
X11812676Y-25752000D01*
X11812676Y-25752000D02*
X11611983Y-26346687D01*
X11611983Y-26346687D02*
X11318396Y-27126550D01*
X11318396Y-27126550D02*
X11064278Y-27791301D01*
X11064278Y-27791301D02*
X10958496Y-28109228D01*
X10958496Y-28109228D02*
X10976016Y-28133418D01*
X10976016Y-28133418D02*
X11023826Y-28146828D01*
X11023826Y-28146828D02*
X11181119Y-28137628D01*
X11181119Y-28137628D02*
X11328466Y-28126848D01*
X11328466Y-28126848D02*
X11564971Y-28128948D01*
X11564971Y-28128948D02*
X12175009Y-28167978D01*
X12175009Y-28167978D02*
X12617188Y-28222148D01*
X12617188Y-28222148D02*
X13050139Y-28299758D01*
X13050139Y-28299758D02*
X13472826Y-28400161D01*
X13472826Y-28400161D02*
X13884209Y-28522722D01*
X13884209Y-28522722D02*
X14283252Y-28666800D01*
X14283252Y-28666800D02*
X14668918Y-28831756D01*
X14668918Y-28831756D02*
X15040168Y-29016951D01*
X15040168Y-29016951D02*
X15395965Y-29221744D01*
X15395965Y-29221744D02*
X15735272Y-29445496D01*
X15735272Y-29445496D02*
X16057051Y-29687567D01*
X16057051Y-29687567D02*
X16360263Y-29947318D01*
X16360263Y-29947318D02*
X16643873Y-30224109D01*
X16643873Y-30224109D02*
X16906842Y-30517300D01*
X16906842Y-30517300D02*
X17148133Y-30826252D01*
X17148133Y-30826252D02*
X17366708Y-31150324D01*
X17366708Y-31150324D02*
X17561529Y-31488878D01*
X17561529Y-31488878D02*
X17725180Y-31818972D01*
X17725180Y-31818972D02*
X17860387Y-32138028D01*
X17860387Y-32138028D02*
X17968314Y-32451335D01*
X17968314Y-32451335D02*
X18050124Y-32764182D01*
X18050124Y-32764182D02*
X18106974Y-33081858D01*
X18106974Y-33081858D02*
X18140034Y-33409651D01*
X18140034Y-33409651D02*
X18150474Y-33752852D01*
X18150474Y-33752852D02*
X18139444Y-34116747D01*
X18139444Y-34116747D02*
X18090884Y-34703915D01*
X18090884Y-34703915D02*
X18015594Y-35141425D01*
X18015594Y-35141425D02*
X17964924Y-35316337D01*
X17964924Y-35316337D02*
X17903964Y-35468568D01*
X17903964Y-35468568D02*
X17831514Y-35603030D01*
X17831514Y-35603030D02*
X17746374Y-35724634D01*
X17746374Y-35724634D02*
X17577924Y-35938787D01*
X17577924Y-35938787D02*
X1475904Y-35932287D01*
X1475904Y-35932287D02*
X-9926858Y-35915357D01*
X-9926858Y-35915357D02*
X-13419515Y-35900617D01*
X-13419515Y-35900617D02*
X-14730651Y-35883797D01*
X-14730651Y-35883797D02*
X-14730868Y-35883889D01*
X-14730868Y-35883889D02*
X-14730858Y-35883875D01*
M02*
