G04 #@! TF.GenerationSoftware,KiCad,Pcbnew,(5.1.2)-1*
G04 #@! TF.CreationDate,2019-07-21T19:57:09-05:00*
G04 #@! TF.ProjectId,reddit-snoo-meetup,72656464-6974-42d7-936e-6f6f2d6d6565,rev?*
G04 #@! TF.SameCoordinates,Original*
G04 #@! TF.FileFunction,Legend,Bot*
G04 #@! TF.FilePolarity,Positive*
%FSLAX46Y46*%
G04 Gerber Fmt 4.6, Leading zero omitted, Abs format (unit mm)*
G04 Created by KiCad (PCBNEW (5.1.2)-1) date 2019-07-21 19:57:09*
%MOMM*%
%LPD*%
G04 APERTURE LIST*
%ADD10C,0.700000*%
%ADD11C,0.120000*%
%ADD12C,0.150000*%
G04 APERTURE END LIST*
D10*
X-1117600Y-25552400D02*
X-5943600Y-25552400D01*
X8702040Y-25501600D02*
X3962400Y-25501600D01*
X-5943600Y-25552400D02*
X-5943600Y-33934400D01*
X-5943600Y-33934400D02*
X8788400Y-33934400D01*
X8788400Y-33934400D02*
X8788400Y-25552400D01*
D11*
X6307400Y-15816700D02*
X6307400Y-14209610D01*
X4422400Y-15816700D02*
X6307400Y-15816700D01*
X4422400Y5123300D02*
X6307400Y5123300D01*
X-1577600Y-15816700D02*
X-3462600Y-15816700D01*
X-1577600Y5123300D02*
X-3462600Y5123300D01*
X6307400Y5123300D02*
X6307400Y3516210D01*
X-3462600Y-15816700D02*
X-3462600Y-14209610D01*
X-3462600Y5123300D02*
X-3462600Y3516210D01*
X6307400Y-14209610D02*
G75*
G03X6307400Y3516210I-4885000J8862910D01*
G01*
X-3458768Y3518321D02*
G75*
G03X-3462600Y-14209610I4881168J-8865021D01*
G01*
X-5207200Y18346800D02*
X-9092200Y18346800D01*
X-9092200Y18346800D02*
X-9092200Y20616800D01*
X-9092200Y20616800D02*
X-5207200Y20616800D01*
X7354300Y20616800D02*
X11239300Y20616800D01*
X7354300Y18346800D02*
X7354300Y20616800D01*
X11239300Y18346800D02*
X7354300Y18346800D01*
X347300Y16499464D02*
X347300Y15295336D01*
X2167300Y16499464D02*
X2167300Y15295336D01*
X2167300Y22328764D02*
X2167300Y21124636D01*
X347300Y22328764D02*
X347300Y21124636D01*
D12*
X2231923Y-23226780D02*
X1565257Y-24226780D01*
X1565257Y-23226780D02*
X2231923Y-24226780D01*
X660495Y-24226780D02*
X1231923Y-24226780D01*
X946209Y-24226780D02*
X946209Y-23226780D01*
X1041447Y-23369638D01*
X1136685Y-23464876D01*
X1231923Y-23512495D01*
X-117600Y-26411685D02*
X-367600Y-27161685D01*
X-617600Y-26411685D01*
X-1296171Y-27090257D02*
X-1260457Y-27125971D01*
X-1153314Y-27161685D01*
X-1081885Y-27161685D01*
X-974742Y-27125971D01*
X-903314Y-27054542D01*
X-867600Y-26983114D01*
X-831885Y-26840257D01*
X-831885Y-26733114D01*
X-867600Y-26590257D01*
X-903314Y-26518828D01*
X-974742Y-26447400D01*
X-1081885Y-26411685D01*
X-1153314Y-26411685D01*
X-1260457Y-26447400D01*
X-1296171Y-26483114D01*
X-2046171Y-27090257D02*
X-2010457Y-27125971D01*
X-1903314Y-27161685D01*
X-1831885Y-27161685D01*
X-1724742Y-27125971D01*
X-1653314Y-27054542D01*
X-1617600Y-26983114D01*
X-1581885Y-26840257D01*
X-1581885Y-26733114D01*
X-1617600Y-26590257D01*
X-1653314Y-26518828D01*
X-1724742Y-26447400D01*
X-1831885Y-26411685D01*
X-1903314Y-26411685D01*
X-2010457Y-26447400D01*
X-2046171Y-26483114D01*
X2333114Y-27125971D02*
X2225971Y-27161685D01*
X2047399Y-27161685D01*
X1975971Y-27125971D01*
X1940257Y-27090257D01*
X1904542Y-27018828D01*
X1904542Y-26947400D01*
X1940257Y-26875971D01*
X1975971Y-26840257D01*
X2047399Y-26804542D01*
X2190257Y-26768828D01*
X2261685Y-26733114D01*
X2297400Y-26697400D01*
X2333114Y-26625971D01*
X2333114Y-26554542D01*
X2297400Y-26483114D01*
X2261685Y-26447400D01*
X2190257Y-26411685D01*
X2011685Y-26411685D01*
X1904542Y-26447400D01*
X1583114Y-27161685D02*
X1583114Y-26411685D01*
X1404542Y-26411685D01*
X1297400Y-26447400D01*
X1225971Y-26518828D01*
X1190257Y-26590257D01*
X1154542Y-26733114D01*
X1154542Y-26840257D01*
X1190257Y-26983114D01*
X1225971Y-27054542D01*
X1297400Y-27125971D01*
X1404542Y-27161685D01*
X1583114Y-27161685D01*
X868828Y-26947400D02*
X511685Y-26947400D01*
X940257Y-27161685D02*
X690257Y-26411685D01*
X440257Y-27161685D01*
X6466542Y-26447400D02*
X6537971Y-26411685D01*
X6645114Y-26411685D01*
X6752257Y-26447400D01*
X6823685Y-26518828D01*
X6859400Y-26590257D01*
X6895114Y-26733114D01*
X6895114Y-26840257D01*
X6859400Y-26983114D01*
X6823685Y-27054542D01*
X6752257Y-27125971D01*
X6645114Y-27161685D01*
X6573685Y-27161685D01*
X6466542Y-27125971D01*
X6430828Y-27090257D01*
X6430828Y-26840257D01*
X6573685Y-26840257D01*
X6109400Y-27161685D02*
X6109400Y-26411685D01*
X5823685Y-26411685D01*
X5752257Y-26447400D01*
X5716542Y-26483114D01*
X5680828Y-26554542D01*
X5680828Y-26661685D01*
X5716542Y-26733114D01*
X5752257Y-26768828D01*
X5823685Y-26804542D01*
X6109400Y-26804542D01*
X5359400Y-27161685D02*
X5359400Y-26411685D01*
X4859400Y-26411685D02*
X4716542Y-26411685D01*
X4645114Y-26447400D01*
X4573685Y-26518828D01*
X4537971Y-26661685D01*
X4537971Y-26911685D01*
X4573685Y-27054542D01*
X4645114Y-27125971D01*
X4716542Y-27161685D01*
X4859400Y-27161685D01*
X4930828Y-27125971D01*
X5002257Y-27054542D01*
X5037971Y-26911685D01*
X5037971Y-26661685D01*
X5002257Y-26518828D01*
X4930828Y-26447400D01*
X4859400Y-26411685D01*
X3823685Y-27161685D02*
X4252257Y-27161685D01*
X4037971Y-27161685D02*
X4037971Y-26411685D01*
X4109400Y-26518828D01*
X4180828Y-26590257D01*
X4252257Y-26625971D01*
X-546171Y-32289400D02*
X-474742Y-32253685D01*
X-367600Y-32253685D01*
X-260457Y-32289400D01*
X-189028Y-32360828D01*
X-153314Y-32432257D01*
X-117600Y-32575114D01*
X-117600Y-32682257D01*
X-153314Y-32825114D01*
X-189028Y-32896542D01*
X-260457Y-32967971D01*
X-367600Y-33003685D01*
X-439028Y-33003685D01*
X-546171Y-32967971D01*
X-581885Y-32932257D01*
X-581885Y-32682257D01*
X-439028Y-32682257D01*
X-903314Y-33003685D02*
X-903314Y-32253685D01*
X-1331885Y-33003685D01*
X-1331885Y-32253685D01*
X-1689028Y-33003685D02*
X-1689028Y-32253685D01*
X-1867600Y-32253685D01*
X-1974742Y-32289400D01*
X-2046171Y-32360828D01*
X-2081885Y-32432257D01*
X-2117600Y-32575114D01*
X-2117600Y-32682257D01*
X-2081885Y-32825114D01*
X-2046171Y-32896542D01*
X-1974742Y-32967971D01*
X-1867600Y-33003685D01*
X-1689028Y-33003685D01*
X2315257Y-32967971D02*
X2208114Y-33003685D01*
X2029542Y-33003685D01*
X1958114Y-32967971D01*
X1922400Y-32932257D01*
X1886685Y-32860828D01*
X1886685Y-32789400D01*
X1922400Y-32717971D01*
X1958114Y-32682257D01*
X2029542Y-32646542D01*
X2172400Y-32610828D01*
X2243828Y-32575114D01*
X2279542Y-32539400D01*
X2315257Y-32467971D01*
X2315257Y-32396542D01*
X2279542Y-32325114D01*
X2243828Y-32289400D01*
X2172400Y-32253685D01*
X1993828Y-32253685D01*
X1886685Y-32289400D01*
X1136685Y-32932257D02*
X1172400Y-32967971D01*
X1279542Y-33003685D01*
X1350971Y-33003685D01*
X1458114Y-32967971D01*
X1529542Y-32896542D01*
X1565257Y-32825114D01*
X1600971Y-32682257D01*
X1600971Y-32575114D01*
X1565257Y-32432257D01*
X1529542Y-32360828D01*
X1458114Y-32289400D01*
X1350971Y-32253685D01*
X1279542Y-32253685D01*
X1172400Y-32289400D01*
X1136685Y-32325114D01*
X458114Y-33003685D02*
X815257Y-33003685D01*
X815257Y-32253685D01*
X6466542Y-32289400D02*
X6537971Y-32253685D01*
X6645114Y-32253685D01*
X6752257Y-32289400D01*
X6823685Y-32360828D01*
X6859400Y-32432257D01*
X6895114Y-32575114D01*
X6895114Y-32682257D01*
X6859400Y-32825114D01*
X6823685Y-32896542D01*
X6752257Y-32967971D01*
X6645114Y-33003685D01*
X6573685Y-33003685D01*
X6466542Y-32967971D01*
X6430828Y-32932257D01*
X6430828Y-32682257D01*
X6573685Y-32682257D01*
X6109400Y-33003685D02*
X6109400Y-32253685D01*
X5823685Y-32253685D01*
X5752257Y-32289400D01*
X5716542Y-32325114D01*
X5680828Y-32396542D01*
X5680828Y-32503685D01*
X5716542Y-32575114D01*
X5752257Y-32610828D01*
X5823685Y-32646542D01*
X6109400Y-32646542D01*
X5359400Y-33003685D02*
X5359400Y-32253685D01*
X4859400Y-32253685D02*
X4716542Y-32253685D01*
X4645114Y-32289400D01*
X4573685Y-32360828D01*
X4537971Y-32503685D01*
X4537971Y-32753685D01*
X4573685Y-32896542D01*
X4645114Y-32967971D01*
X4716542Y-33003685D01*
X4859400Y-33003685D01*
X4930828Y-32967971D01*
X5002257Y-32896542D01*
X5037971Y-32753685D01*
X5037971Y-32503685D01*
X5002257Y-32360828D01*
X4930828Y-32289400D01*
X4859400Y-32253685D01*
X4252257Y-32325114D02*
X4216542Y-32289400D01*
X4145114Y-32253685D01*
X3966542Y-32253685D01*
X3895114Y-32289400D01*
X3859400Y-32325114D01*
X3823685Y-32396542D01*
X3823685Y-32467971D01*
X3859400Y-32575114D01*
X4287971Y-33003685D01*
X3823685Y-33003685D01*
X12550971Y-4560985D02*
X12598590Y-4703842D01*
X12646209Y-4751461D01*
X12741447Y-4799080D01*
X12884304Y-4799080D01*
X12979542Y-4751461D01*
X13027161Y-4703842D01*
X13074780Y-4608604D01*
X13074780Y-4227652D01*
X12074780Y-4227652D01*
X12074780Y-4560985D01*
X12122400Y-4656223D01*
X12170019Y-4703842D01*
X12265257Y-4751461D01*
X12360495Y-4751461D01*
X12455733Y-4703842D01*
X12503352Y-4656223D01*
X12550971Y-4560985D01*
X12550971Y-4227652D01*
X12074780Y-5084795D02*
X12074780Y-5656223D01*
X13074780Y-5370509D02*
X12074780Y-5370509D01*
X13074780Y-6513366D02*
X13074780Y-5941938D01*
X13074780Y-6227652D02*
X12074780Y-6227652D01*
X12217638Y-6132414D01*
X12312876Y-6037176D01*
X12360495Y-5941938D01*
X-6069104Y17209419D02*
X-6069104Y18209419D01*
X-6307200Y18209419D01*
X-6450057Y18161800D01*
X-6545295Y18066561D01*
X-6592914Y17971323D01*
X-6640533Y17780847D01*
X-6640533Y17637990D01*
X-6592914Y17447514D01*
X-6545295Y17352276D01*
X-6450057Y17257038D01*
X-6307200Y17209419D01*
X-6069104Y17209419D01*
X-7592914Y17209419D02*
X-7021485Y17209419D01*
X-7307199Y17209419D02*
X-7307199Y18209419D01*
X-7211961Y18066561D01*
X-7116723Y17971323D01*
X-7021485Y17923704D01*
X10377395Y17209419D02*
X10377395Y18209419D01*
X10139300Y18209419D01*
X9996442Y18161800D01*
X9901204Y18066561D01*
X9853585Y17971323D01*
X9805966Y17780847D01*
X9805966Y17637990D01*
X9853585Y17447514D01*
X9901204Y17352276D01*
X9996442Y17257038D01*
X10139300Y17209419D01*
X10377395Y17209419D01*
X9425014Y18114180D02*
X9377395Y18161800D01*
X9282157Y18209419D01*
X9044061Y18209419D01*
X8948823Y18161800D01*
X8901204Y18114180D01*
X8853585Y18018942D01*
X8853585Y17923704D01*
X8901204Y17780847D01*
X9472633Y17209419D01*
X8853585Y17209419D01*
X-110319Y16064066D02*
X-586509Y16397400D01*
X-110319Y16635495D02*
X-1110319Y16635495D01*
X-1110319Y16254542D01*
X-1062700Y16159304D01*
X-1015080Y16111685D01*
X-919842Y16064066D01*
X-776985Y16064066D01*
X-681747Y16111685D01*
X-634128Y16159304D01*
X-586509Y16254542D01*
X-586509Y16635495D01*
X-110319Y15111685D02*
X-110319Y15683114D01*
X-110319Y15397400D02*
X-1110319Y15397400D01*
X-967461Y15492638D01*
X-872223Y15587876D01*
X-824604Y15683114D01*
X-110319Y21893366D02*
X-586509Y22226700D01*
X-110319Y22464795D02*
X-1110319Y22464795D01*
X-1110319Y22083842D01*
X-1062700Y21988604D01*
X-1015080Y21940985D01*
X-919842Y21893366D01*
X-776985Y21893366D01*
X-681747Y21940985D01*
X-634128Y21988604D01*
X-586509Y22083842D01*
X-586509Y22464795D01*
X-1015080Y21512414D02*
X-1062700Y21464795D01*
X-1110319Y21369557D01*
X-1110319Y21131461D01*
X-1062700Y21036223D01*
X-1015080Y20988604D01*
X-919842Y20940985D01*
X-824604Y20940985D01*
X-681747Y20988604D01*
X-110319Y21560033D01*
X-110319Y20940985D01*
M02*
