G04 #@! TF.GenerationSoftware,KiCad,Pcbnew,(5.1.2)-1*
G04 #@! TF.CreationDate,2019-07-21T19:57:09-05:00*
G04 #@! TF.ProjectId,reddit-snoo-meetup,72656464-6974-42d7-936e-6f6f2d6d6565,rev?*
G04 #@! TF.SameCoordinates,Original*
G04 #@! TF.FileFunction,Copper,L2,Bot*
G04 #@! TF.FilePolarity,Positive*
%FSLAX46Y46*%
G04 Gerber Fmt 4.6, Leading zero omitted, Abs format (unit mm)*
G04 Created by KiCad (PCBNEW (5.1.2)-1) date 2019-07-21 19:57:09*
%MOMM*%
%LPD*%
G04 APERTURE LIST*
%ADD10C,1.727200*%
%ADD11O,1.727200X1.727200*%
%ADD12R,1.727200X1.727200*%
%ADD13R,5.560000X8.000000*%
%ADD14R,5.560000X2.600000*%
%ADD15C,0.100000*%
%ADD16C,1.250000*%
%ADD17C,0.600000*%
%ADD18C,0.250000*%
%ADD19C,0.254000*%
G04 APERTURE END LIST*
D10*
X4022400Y-28366400D03*
X4022400Y-30906400D03*
D11*
X1482400Y-28366400D03*
X1482400Y-30906400D03*
X-1057600Y-28366400D03*
D12*
X-1057600Y-30906400D03*
D13*
X1422400Y-5346700D03*
D14*
X1422400Y6558300D03*
X1422400Y-17251700D03*
D15*
G36*
X-7807696Y20355596D02*
G01*
X-7783427Y20351996D01*
X-7759629Y20346035D01*
X-7736529Y20337770D01*
X-7714351Y20327280D01*
X-7693307Y20314667D01*
X-7673602Y20300053D01*
X-7655423Y20283577D01*
X-7638947Y20265398D01*
X-7624333Y20245693D01*
X-7611720Y20224649D01*
X-7601230Y20202471D01*
X-7592965Y20179371D01*
X-7587004Y20155573D01*
X-7583404Y20131304D01*
X-7582200Y20106800D01*
X-7582200Y18856800D01*
X-7583404Y18832296D01*
X-7587004Y18808027D01*
X-7592965Y18784229D01*
X-7601230Y18761129D01*
X-7611720Y18738951D01*
X-7624333Y18717907D01*
X-7638947Y18698202D01*
X-7655423Y18680023D01*
X-7673602Y18663547D01*
X-7693307Y18648933D01*
X-7714351Y18636320D01*
X-7736529Y18625830D01*
X-7759629Y18617565D01*
X-7783427Y18611604D01*
X-7807696Y18608004D01*
X-7832200Y18606800D01*
X-8582200Y18606800D01*
X-8606704Y18608004D01*
X-8630973Y18611604D01*
X-8654771Y18617565D01*
X-8677871Y18625830D01*
X-8700049Y18636320D01*
X-8721093Y18648933D01*
X-8740798Y18663547D01*
X-8758977Y18680023D01*
X-8775453Y18698202D01*
X-8790067Y18717907D01*
X-8802680Y18738951D01*
X-8813170Y18761129D01*
X-8821435Y18784229D01*
X-8827396Y18808027D01*
X-8830996Y18832296D01*
X-8832200Y18856800D01*
X-8832200Y20106800D01*
X-8830996Y20131304D01*
X-8827396Y20155573D01*
X-8821435Y20179371D01*
X-8813170Y20202471D01*
X-8802680Y20224649D01*
X-8790067Y20245693D01*
X-8775453Y20265398D01*
X-8758977Y20283577D01*
X-8740798Y20300053D01*
X-8721093Y20314667D01*
X-8700049Y20327280D01*
X-8677871Y20337770D01*
X-8654771Y20346035D01*
X-8630973Y20351996D01*
X-8606704Y20355596D01*
X-8582200Y20356800D01*
X-7832200Y20356800D01*
X-7807696Y20355596D01*
X-7807696Y20355596D01*
G37*
D16*
X-8207200Y19481800D03*
D15*
G36*
X-5007696Y20355596D02*
G01*
X-4983427Y20351996D01*
X-4959629Y20346035D01*
X-4936529Y20337770D01*
X-4914351Y20327280D01*
X-4893307Y20314667D01*
X-4873602Y20300053D01*
X-4855423Y20283577D01*
X-4838947Y20265398D01*
X-4824333Y20245693D01*
X-4811720Y20224649D01*
X-4801230Y20202471D01*
X-4792965Y20179371D01*
X-4787004Y20155573D01*
X-4783404Y20131304D01*
X-4782200Y20106800D01*
X-4782200Y18856800D01*
X-4783404Y18832296D01*
X-4787004Y18808027D01*
X-4792965Y18784229D01*
X-4801230Y18761129D01*
X-4811720Y18738951D01*
X-4824333Y18717907D01*
X-4838947Y18698202D01*
X-4855423Y18680023D01*
X-4873602Y18663547D01*
X-4893307Y18648933D01*
X-4914351Y18636320D01*
X-4936529Y18625830D01*
X-4959629Y18617565D01*
X-4983427Y18611604D01*
X-5007696Y18608004D01*
X-5032200Y18606800D01*
X-5782200Y18606800D01*
X-5806704Y18608004D01*
X-5830973Y18611604D01*
X-5854771Y18617565D01*
X-5877871Y18625830D01*
X-5900049Y18636320D01*
X-5921093Y18648933D01*
X-5940798Y18663547D01*
X-5958977Y18680023D01*
X-5975453Y18698202D01*
X-5990067Y18717907D01*
X-6002680Y18738951D01*
X-6013170Y18761129D01*
X-6021435Y18784229D01*
X-6027396Y18808027D01*
X-6030996Y18832296D01*
X-6032200Y18856800D01*
X-6032200Y20106800D01*
X-6030996Y20131304D01*
X-6027396Y20155573D01*
X-6021435Y20179371D01*
X-6013170Y20202471D01*
X-6002680Y20224649D01*
X-5990067Y20245693D01*
X-5975453Y20265398D01*
X-5958977Y20283577D01*
X-5940798Y20300053D01*
X-5921093Y20314667D01*
X-5900049Y20327280D01*
X-5877871Y20337770D01*
X-5854771Y20346035D01*
X-5830973Y20351996D01*
X-5806704Y20355596D01*
X-5782200Y20356800D01*
X-5032200Y20356800D01*
X-5007696Y20355596D01*
X-5007696Y20355596D01*
G37*
D16*
X-5407200Y19481800D03*
D15*
G36*
X11438804Y20355596D02*
G01*
X11463073Y20351996D01*
X11486871Y20346035D01*
X11509971Y20337770D01*
X11532149Y20327280D01*
X11553193Y20314667D01*
X11572898Y20300053D01*
X11591077Y20283577D01*
X11607553Y20265398D01*
X11622167Y20245693D01*
X11634780Y20224649D01*
X11645270Y20202471D01*
X11653535Y20179371D01*
X11659496Y20155573D01*
X11663096Y20131304D01*
X11664300Y20106800D01*
X11664300Y18856800D01*
X11663096Y18832296D01*
X11659496Y18808027D01*
X11653535Y18784229D01*
X11645270Y18761129D01*
X11634780Y18738951D01*
X11622167Y18717907D01*
X11607553Y18698202D01*
X11591077Y18680023D01*
X11572898Y18663547D01*
X11553193Y18648933D01*
X11532149Y18636320D01*
X11509971Y18625830D01*
X11486871Y18617565D01*
X11463073Y18611604D01*
X11438804Y18608004D01*
X11414300Y18606800D01*
X10664300Y18606800D01*
X10639796Y18608004D01*
X10615527Y18611604D01*
X10591729Y18617565D01*
X10568629Y18625830D01*
X10546451Y18636320D01*
X10525407Y18648933D01*
X10505702Y18663547D01*
X10487523Y18680023D01*
X10471047Y18698202D01*
X10456433Y18717907D01*
X10443820Y18738951D01*
X10433330Y18761129D01*
X10425065Y18784229D01*
X10419104Y18808027D01*
X10415504Y18832296D01*
X10414300Y18856800D01*
X10414300Y20106800D01*
X10415504Y20131304D01*
X10419104Y20155573D01*
X10425065Y20179371D01*
X10433330Y20202471D01*
X10443820Y20224649D01*
X10456433Y20245693D01*
X10471047Y20265398D01*
X10487523Y20283577D01*
X10505702Y20300053D01*
X10525407Y20314667D01*
X10546451Y20327280D01*
X10568629Y20337770D01*
X10591729Y20346035D01*
X10615527Y20351996D01*
X10639796Y20355596D01*
X10664300Y20356800D01*
X11414300Y20356800D01*
X11438804Y20355596D01*
X11438804Y20355596D01*
G37*
D16*
X11039300Y19481800D03*
D15*
G36*
X8638804Y20355596D02*
G01*
X8663073Y20351996D01*
X8686871Y20346035D01*
X8709971Y20337770D01*
X8732149Y20327280D01*
X8753193Y20314667D01*
X8772898Y20300053D01*
X8791077Y20283577D01*
X8807553Y20265398D01*
X8822167Y20245693D01*
X8834780Y20224649D01*
X8845270Y20202471D01*
X8853535Y20179371D01*
X8859496Y20155573D01*
X8863096Y20131304D01*
X8864300Y20106800D01*
X8864300Y18856800D01*
X8863096Y18832296D01*
X8859496Y18808027D01*
X8853535Y18784229D01*
X8845270Y18761129D01*
X8834780Y18738951D01*
X8822167Y18717907D01*
X8807553Y18698202D01*
X8791077Y18680023D01*
X8772898Y18663547D01*
X8753193Y18648933D01*
X8732149Y18636320D01*
X8709971Y18625830D01*
X8686871Y18617565D01*
X8663073Y18611604D01*
X8638804Y18608004D01*
X8614300Y18606800D01*
X7864300Y18606800D01*
X7839796Y18608004D01*
X7815527Y18611604D01*
X7791729Y18617565D01*
X7768629Y18625830D01*
X7746451Y18636320D01*
X7725407Y18648933D01*
X7705702Y18663547D01*
X7687523Y18680023D01*
X7671047Y18698202D01*
X7656433Y18717907D01*
X7643820Y18738951D01*
X7633330Y18761129D01*
X7625065Y18784229D01*
X7619104Y18808027D01*
X7615504Y18832296D01*
X7614300Y18856800D01*
X7614300Y20106800D01*
X7615504Y20131304D01*
X7619104Y20155573D01*
X7625065Y20179371D01*
X7633330Y20202471D01*
X7643820Y20224649D01*
X7656433Y20245693D01*
X7671047Y20265398D01*
X7687523Y20283577D01*
X7705702Y20300053D01*
X7725407Y20314667D01*
X7746451Y20327280D01*
X7768629Y20337770D01*
X7791729Y20346035D01*
X7815527Y20351996D01*
X7839796Y20355596D01*
X7864300Y20356800D01*
X8614300Y20356800D01*
X8638804Y20355596D01*
X8638804Y20355596D01*
G37*
D16*
X8239300Y19481800D03*
D15*
G36*
X1906804Y17921196D02*
G01*
X1931073Y17917596D01*
X1954871Y17911635D01*
X1977971Y17903370D01*
X2000149Y17892880D01*
X2021193Y17880267D01*
X2040898Y17865653D01*
X2059077Y17849177D01*
X2075553Y17830998D01*
X2090167Y17811293D01*
X2102780Y17790249D01*
X2113270Y17768071D01*
X2121535Y17744971D01*
X2127496Y17721173D01*
X2131096Y17696904D01*
X2132300Y17672400D01*
X2132300Y16922400D01*
X2131096Y16897896D01*
X2127496Y16873627D01*
X2121535Y16849829D01*
X2113270Y16826729D01*
X2102780Y16804551D01*
X2090167Y16783507D01*
X2075553Y16763802D01*
X2059077Y16745623D01*
X2040898Y16729147D01*
X2021193Y16714533D01*
X2000149Y16701920D01*
X1977971Y16691430D01*
X1954871Y16683165D01*
X1931073Y16677204D01*
X1906804Y16673604D01*
X1882300Y16672400D01*
X632300Y16672400D01*
X607796Y16673604D01*
X583527Y16677204D01*
X559729Y16683165D01*
X536629Y16691430D01*
X514451Y16701920D01*
X493407Y16714533D01*
X473702Y16729147D01*
X455523Y16745623D01*
X439047Y16763802D01*
X424433Y16783507D01*
X411820Y16804551D01*
X401330Y16826729D01*
X393065Y16849829D01*
X387104Y16873627D01*
X383504Y16897896D01*
X382300Y16922400D01*
X382300Y17672400D01*
X383504Y17696904D01*
X387104Y17721173D01*
X393065Y17744971D01*
X401330Y17768071D01*
X411820Y17790249D01*
X424433Y17811293D01*
X439047Y17830998D01*
X455523Y17849177D01*
X473702Y17865653D01*
X493407Y17880267D01*
X514451Y17892880D01*
X536629Y17903370D01*
X559729Y17911635D01*
X583527Y17917596D01*
X607796Y17921196D01*
X632300Y17922400D01*
X1882300Y17922400D01*
X1906804Y17921196D01*
X1906804Y17921196D01*
G37*
D16*
X1257300Y17297400D03*
D15*
G36*
X1906804Y15121196D02*
G01*
X1931073Y15117596D01*
X1954871Y15111635D01*
X1977971Y15103370D01*
X2000149Y15092880D01*
X2021193Y15080267D01*
X2040898Y15065653D01*
X2059077Y15049177D01*
X2075553Y15030998D01*
X2090167Y15011293D01*
X2102780Y14990249D01*
X2113270Y14968071D01*
X2121535Y14944971D01*
X2127496Y14921173D01*
X2131096Y14896904D01*
X2132300Y14872400D01*
X2132300Y14122400D01*
X2131096Y14097896D01*
X2127496Y14073627D01*
X2121535Y14049829D01*
X2113270Y14026729D01*
X2102780Y14004551D01*
X2090167Y13983507D01*
X2075553Y13963802D01*
X2059077Y13945623D01*
X2040898Y13929147D01*
X2021193Y13914533D01*
X2000149Y13901920D01*
X1977971Y13891430D01*
X1954871Y13883165D01*
X1931073Y13877204D01*
X1906804Y13873604D01*
X1882300Y13872400D01*
X632300Y13872400D01*
X607796Y13873604D01*
X583527Y13877204D01*
X559729Y13883165D01*
X536629Y13891430D01*
X514451Y13901920D01*
X493407Y13914533D01*
X473702Y13929147D01*
X455523Y13945623D01*
X439047Y13963802D01*
X424433Y13983507D01*
X411820Y14004551D01*
X401330Y14026729D01*
X393065Y14049829D01*
X387104Y14073627D01*
X383504Y14097896D01*
X382300Y14122400D01*
X382300Y14872400D01*
X383504Y14896904D01*
X387104Y14921173D01*
X393065Y14944971D01*
X401330Y14968071D01*
X411820Y14990249D01*
X424433Y15011293D01*
X439047Y15030998D01*
X455523Y15049177D01*
X473702Y15065653D01*
X493407Y15080267D01*
X514451Y15092880D01*
X536629Y15103370D01*
X559729Y15111635D01*
X583527Y15117596D01*
X607796Y15121196D01*
X632300Y15122400D01*
X1882300Y15122400D01*
X1906804Y15121196D01*
X1906804Y15121196D01*
G37*
D16*
X1257300Y14497400D03*
D15*
G36*
X1906804Y20950496D02*
G01*
X1931073Y20946896D01*
X1954871Y20940935D01*
X1977971Y20932670D01*
X2000149Y20922180D01*
X2021193Y20909567D01*
X2040898Y20894953D01*
X2059077Y20878477D01*
X2075553Y20860298D01*
X2090167Y20840593D01*
X2102780Y20819549D01*
X2113270Y20797371D01*
X2121535Y20774271D01*
X2127496Y20750473D01*
X2131096Y20726204D01*
X2132300Y20701700D01*
X2132300Y19951700D01*
X2131096Y19927196D01*
X2127496Y19902927D01*
X2121535Y19879129D01*
X2113270Y19856029D01*
X2102780Y19833851D01*
X2090167Y19812807D01*
X2075553Y19793102D01*
X2059077Y19774923D01*
X2040898Y19758447D01*
X2021193Y19743833D01*
X2000149Y19731220D01*
X1977971Y19720730D01*
X1954871Y19712465D01*
X1931073Y19706504D01*
X1906804Y19702904D01*
X1882300Y19701700D01*
X632300Y19701700D01*
X607796Y19702904D01*
X583527Y19706504D01*
X559729Y19712465D01*
X536629Y19720730D01*
X514451Y19731220D01*
X493407Y19743833D01*
X473702Y19758447D01*
X455523Y19774923D01*
X439047Y19793102D01*
X424433Y19812807D01*
X411820Y19833851D01*
X401330Y19856029D01*
X393065Y19879129D01*
X387104Y19902927D01*
X383504Y19927196D01*
X382300Y19951700D01*
X382300Y20701700D01*
X383504Y20726204D01*
X387104Y20750473D01*
X393065Y20774271D01*
X401330Y20797371D01*
X411820Y20819549D01*
X424433Y20840593D01*
X439047Y20860298D01*
X455523Y20878477D01*
X473702Y20894953D01*
X493407Y20909567D01*
X514451Y20922180D01*
X536629Y20932670D01*
X559729Y20940935D01*
X583527Y20946896D01*
X607796Y20950496D01*
X632300Y20951700D01*
X1882300Y20951700D01*
X1906804Y20950496D01*
X1906804Y20950496D01*
G37*
D16*
X1257300Y20326700D03*
D15*
G36*
X1906804Y23750496D02*
G01*
X1931073Y23746896D01*
X1954871Y23740935D01*
X1977971Y23732670D01*
X2000149Y23722180D01*
X2021193Y23709567D01*
X2040898Y23694953D01*
X2059077Y23678477D01*
X2075553Y23660298D01*
X2090167Y23640593D01*
X2102780Y23619549D01*
X2113270Y23597371D01*
X2121535Y23574271D01*
X2127496Y23550473D01*
X2131096Y23526204D01*
X2132300Y23501700D01*
X2132300Y22751700D01*
X2131096Y22727196D01*
X2127496Y22702927D01*
X2121535Y22679129D01*
X2113270Y22656029D01*
X2102780Y22633851D01*
X2090167Y22612807D01*
X2075553Y22593102D01*
X2059077Y22574923D01*
X2040898Y22558447D01*
X2021193Y22543833D01*
X2000149Y22531220D01*
X1977971Y22520730D01*
X1954871Y22512465D01*
X1931073Y22506504D01*
X1906804Y22502904D01*
X1882300Y22501700D01*
X632300Y22501700D01*
X607796Y22502904D01*
X583527Y22506504D01*
X559729Y22512465D01*
X536629Y22520730D01*
X514451Y22531220D01*
X493407Y22543833D01*
X473702Y22558447D01*
X455523Y22574923D01*
X439047Y22593102D01*
X424433Y22612807D01*
X411820Y22633851D01*
X401330Y22656029D01*
X393065Y22679129D01*
X387104Y22702927D01*
X383504Y22727196D01*
X382300Y22751700D01*
X382300Y23501700D01*
X383504Y23526204D01*
X387104Y23550473D01*
X393065Y23574271D01*
X401330Y23597371D01*
X411820Y23619549D01*
X424433Y23640593D01*
X439047Y23660298D01*
X455523Y23678477D01*
X473702Y23694953D01*
X493407Y23709567D01*
X514451Y23722180D01*
X536629Y23732670D01*
X559729Y23740935D01*
X583527Y23746896D01*
X607796Y23750496D01*
X632300Y23751700D01*
X1882300Y23751700D01*
X1906804Y23750496D01*
X1906804Y23750496D01*
G37*
D16*
X1257300Y23126700D03*
D17*
X3073400Y20332700D03*
X3035300Y14490700D03*
X1409700Y9067800D03*
X1409700Y-19659600D03*
D18*
X1257300Y20326700D02*
X3067400Y20326700D01*
X3067400Y20326700D02*
X3073400Y20332700D01*
X2232300Y14497400D02*
X2239000Y14490700D01*
X1257300Y14497400D02*
X2232300Y14497400D01*
X2239000Y14490700D02*
X3035300Y14490700D01*
X1422400Y6558300D02*
X1422400Y9055100D01*
X1422400Y9055100D02*
X1409700Y9067800D01*
X1422400Y-17251700D02*
X1422400Y-19646900D01*
X1422400Y-19646900D02*
X1409700Y-19659600D01*
X2232300Y23126700D02*
X3108600Y22250400D01*
X1257300Y23126700D02*
X2232300Y23126700D01*
X8270700Y22250400D02*
X11039300Y19481800D01*
X3108600Y22250400D02*
X8270700Y22250400D01*
X-927100Y19481800D02*
X1257300Y17297400D01*
X-5407200Y19481800D02*
X-927100Y19481800D01*
D19*
G36*
X1271622Y24870374D02*
G01*
X1400454Y24867422D01*
X1535291Y24862455D01*
X1679103Y24855437D01*
X1834478Y24846352D01*
X2004808Y24835135D01*
X2192191Y24821809D01*
X2399559Y24806343D01*
X2612463Y24790047D01*
X3345082Y24729438D01*
X4053334Y24662455D01*
X4738023Y24588997D01*
X5400109Y24508939D01*
X6039800Y24422242D01*
X6658054Y24328775D01*
X7255299Y24228481D01*
X7832289Y24121252D01*
X8389594Y24007013D01*
X8928021Y23885639D01*
X9269084Y23802651D01*
X9360680Y23780133D01*
X9362693Y23779656D01*
X9435223Y23763073D01*
X9439058Y23762258D01*
X9497322Y23750817D01*
X9503455Y23749768D01*
X9552549Y23742604D01*
X9560338Y23741712D01*
X9605353Y23737960D01*
X9612576Y23737565D01*
X9658608Y23736359D01*
X9661665Y23736315D01*
X9666951Y23736304D01*
X9721279Y23735058D01*
X9792534Y23731593D01*
X9872624Y23726353D01*
X9952568Y23719861D01*
X9970649Y23718180D01*
X10240292Y23685189D01*
X10510521Y23637652D01*
X10784925Y23574724D01*
X11065450Y23495742D01*
X11354087Y23400014D01*
X11652836Y23286832D01*
X11963508Y23155550D01*
X12288377Y23005325D01*
X12465735Y22918396D01*
X12577351Y22862276D01*
X12686804Y22806346D01*
X12795998Y22749543D01*
X12907305Y22690559D01*
X13022530Y22628387D01*
X13144209Y22561626D01*
X13274143Y22489273D01*
X13414558Y22410091D01*
X13567610Y22322883D01*
X13735660Y22226334D01*
X13920246Y22119600D01*
X14123631Y22001425D01*
X14207151Y21952770D01*
X14207309Y21952678D01*
X14457284Y21807534D01*
X14457733Y21807274D01*
X14688021Y21674817D01*
X14688591Y21674492D01*
X14900954Y21553802D01*
X14901666Y21553400D01*
X15097865Y21443560D01*
X15098737Y21443076D01*
X15280534Y21343166D01*
X15281586Y21342595D01*
X15450743Y21251697D01*
X15451987Y21251037D01*
X15610266Y21168233D01*
X15611705Y21167492D01*
X15760868Y21091862D01*
X15762492Y21091053D01*
X15904301Y21021680D01*
X15906078Y21020828D01*
X16042293Y20956792D01*
X16044176Y20955925D01*
X16176561Y20896308D01*
X16178479Y20895463D01*
X16308795Y20839346D01*
X16310669Y20838557D01*
X16440678Y20785023D01*
X16441776Y20784577D01*
X16471776Y20772550D01*
X16474205Y20771605D01*
X16748975Y20667943D01*
X16754123Y20666126D01*
X17014709Y20580416D01*
X17020797Y20578581D01*
X17270287Y20510151D01*
X17277233Y20508455D01*
X17518717Y20456633D01*
X17526317Y20455242D01*
X17762882Y20419357D01*
X17770816Y20418408D01*
X18005551Y20397788D01*
X18013070Y20397352D01*
X18227256Y20391289D01*
X18232125Y20391244D01*
X18374535Y20392674D01*
X18378484Y20392775D01*
X18502629Y20397886D01*
X18508132Y20398233D01*
X18620979Y20407799D01*
X18627406Y20408509D01*
X18735922Y20423302D01*
X18742123Y20424304D01*
X18853276Y20445099D01*
X18858188Y20446119D01*
X18978945Y20473688D01*
X18980871Y20474143D01*
X18985684Y20475321D01*
X18991380Y20476857D01*
X19244798Y20551514D01*
X19255366Y20555139D01*
X19507464Y20654225D01*
X19517106Y20658485D01*
X19765997Y20781031D01*
X19774831Y20785824D01*
X20018628Y20930865D01*
X20026758Y20936132D01*
X20263577Y21102700D01*
X20268880Y21106639D01*
X20359996Y21178086D01*
X20428661Y21231286D01*
X20493470Y21276384D01*
X20561003Y21317599D01*
X20636671Y21357895D01*
X20725542Y21399790D01*
X20832285Y21445550D01*
X20936671Y21487654D01*
X21242114Y21596871D01*
X21541773Y21681093D01*
X21836973Y21740984D01*
X22127616Y21776689D01*
X22413672Y21788337D01*
X22695123Y21776026D01*
X22971964Y21739817D01*
X23244299Y21679702D01*
X23512112Y21595638D01*
X23776808Y21486951D01*
X23887867Y21433373D01*
X24098321Y21318833D01*
X24293624Y21194691D01*
X24480366Y21056448D01*
X24664867Y20899379D01*
X24787921Y20783380D01*
X25011924Y20547139D01*
X25217835Y20294630D01*
X25406078Y20025833D01*
X25576201Y19741640D01*
X25727748Y19442945D01*
X25860239Y19130676D01*
X25973198Y18805765D01*
X26066158Y18469105D01*
X26138636Y18121660D01*
X26190030Y17765511D01*
X26196500Y17689779D01*
X26201453Y17591608D01*
X26204702Y17477554D01*
X26206219Y17353191D01*
X26206010Y17224351D01*
X26204103Y17096359D01*
X26200540Y16974862D01*
X26195381Y16865229D01*
X26188724Y16773108D01*
X26184173Y16729585D01*
X26132501Y16397385D01*
X26060835Y16080846D01*
X25968968Y15778522D01*
X25856793Y15489829D01*
X25724168Y15214183D01*
X25569899Y14949275D01*
X25533153Y14892694D01*
X25371358Y14668475D01*
X25189537Y14452497D01*
X24990365Y14247180D01*
X24777811Y14056547D01*
X24554705Y13883603D01*
X24466254Y13822264D01*
X24309152Y13722884D01*
X24137114Y13624640D01*
X23956860Y13530952D01*
X23776000Y13445678D01*
X23601668Y13372366D01*
X23491490Y13331455D01*
X23489817Y13330821D01*
X23451214Y13315865D01*
X23426544Y13303043D01*
X23407548Y13290352D01*
X23388302Y13274559D01*
X23372507Y13255315D01*
X23360769Y13233359D01*
X23356473Y13221303D01*
X23352106Y13206772D01*
X23347312Y13182342D01*
X23348641Y13148284D01*
X23350003Y13140517D01*
X23350444Y13138133D01*
X23355548Y13111973D01*
X23363059Y13065522D01*
X23372767Y13000453D01*
X23383872Y12922352D01*
X23395796Y12835471D01*
X23407989Y12743895D01*
X23419854Y12652060D01*
X23430798Y12564417D01*
X23440333Y12484546D01*
X23447805Y12417468D01*
X23450101Y12395090D01*
X23461986Y12273210D01*
X23471891Y12165519D01*
X23479954Y12068432D01*
X23486389Y11977574D01*
X23491376Y11888994D01*
X23495115Y11798233D01*
X23497787Y11701004D01*
X23499558Y11593071D01*
X23500590Y11470622D01*
X23501055Y11329451D01*
X23501135Y11214254D01*
X23500938Y11051852D01*
X23500229Y10911678D01*
X23498820Y10788990D01*
X23496545Y10680522D01*
X23493223Y10581971D01*
X23488686Y10489511D01*
X23482727Y10398672D01*
X23475163Y10305638D01*
X23465762Y10206039D01*
X23454327Y10095980D01*
X23444268Y10003970D01*
X23374758Y9490970D01*
X23280871Y8984225D01*
X23162503Y8482457D01*
X23019718Y7985736D01*
X22852596Y7494187D01*
X22661189Y7007882D01*
X22445579Y6526977D01*
X22205803Y6051534D01*
X21941950Y5581728D01*
X21654049Y5117634D01*
X21342196Y4659433D01*
X21006418Y4207208D01*
X20646801Y3761126D01*
X20263397Y3321313D01*
X19856308Y2887945D01*
X19425528Y2461090D01*
X18971213Y2040976D01*
X18493375Y1627688D01*
X17991997Y1221303D01*
X17583488Y908374D01*
X17035344Y511596D01*
X16464557Y123661D01*
X15872170Y-254926D01*
X15259484Y-623482D01*
X14627762Y-981350D01*
X13978325Y-1327849D01*
X13312289Y-1662400D01*
X12631099Y-1984265D01*
X11935968Y-2292821D01*
X11228089Y-2587449D01*
X10508841Y-2867457D01*
X9779095Y-3132344D01*
X9403609Y-3261290D01*
X9164863Y-3341712D01*
X9142162Y-3351934D01*
X9121891Y-3366388D01*
X9104830Y-3384519D01*
X9091634Y-3405630D01*
X9082810Y-3428910D01*
X9078697Y-3453465D01*
X9079453Y-3478349D01*
X9085050Y-3502609D01*
X9095272Y-3525310D01*
X9109726Y-3545581D01*
X9127857Y-3562642D01*
X9148968Y-3575838D01*
X9162936Y-3581756D01*
X9388064Y-3661637D01*
X9891951Y-3853477D01*
X10384052Y-4066841D01*
X10865020Y-4301558D01*
X11334229Y-4556979D01*
X11790913Y-4832378D01*
X12234448Y-5127108D01*
X12664176Y-5440507D01*
X13079348Y-5771842D01*
X13479329Y-6120469D01*
X13863418Y-6485681D01*
X14230968Y-6866831D01*
X14581253Y-7263179D01*
X14913618Y-7674066D01*
X15227414Y-8098840D01*
X15521906Y-8536737D01*
X15796481Y-8987155D01*
X16050413Y-9449326D01*
X16283081Y-9922655D01*
X16493772Y-10406370D01*
X16682210Y-10900808D01*
X16734128Y-11050720D01*
X16874901Y-11498921D01*
X16994612Y-11949601D01*
X17094214Y-12406882D01*
X17174362Y-12874012D01*
X17235777Y-13354877D01*
X17262142Y-13630914D01*
X17266667Y-13700581D01*
X17270501Y-13792646D01*
X17273582Y-13903107D01*
X17275866Y-14027103D01*
X17277347Y-14160717D01*
X17278025Y-14300055D01*
X17277891Y-14440529D01*
X17276951Y-14578308D01*
X17275202Y-14709523D01*
X17272658Y-14829565D01*
X17269327Y-14934584D01*
X17265246Y-15020162D01*
X17262169Y-15063874D01*
X17212809Y-15537290D01*
X17145925Y-15994320D01*
X17060824Y-16438427D01*
X16956847Y-16872643D01*
X16833276Y-17300183D01*
X16689145Y-17724881D01*
X16614859Y-17922351D01*
X16614400Y-17923589D01*
X16586528Y-18000084D01*
X16585190Y-18003947D01*
X16558176Y-18086230D01*
X16557043Y-18089868D01*
X16533812Y-18168514D01*
X16532455Y-18173472D01*
X16515936Y-18239056D01*
X16514896Y-18243525D01*
X16514180Y-18246873D01*
X16432034Y-18581167D01*
X16328623Y-18902294D01*
X16203176Y-19213056D01*
X16055438Y-19513982D01*
X15885119Y-19805571D01*
X15691904Y-20088291D01*
X15475478Y-20362547D01*
X15235358Y-20628903D01*
X14997131Y-20863646D01*
X14887476Y-20964554D01*
X14777012Y-21062993D01*
X14665009Y-21159327D01*
X14549642Y-21254912D01*
X14429337Y-21350890D01*
X14302239Y-21448621D01*
X14166562Y-21549401D01*
X14020840Y-21654284D01*
X13863121Y-21764679D01*
X13691917Y-21881664D01*
X13505470Y-22006509D01*
X13302187Y-22140371D01*
X13080434Y-22284442D01*
X12838492Y-22439963D01*
X12796673Y-22466709D01*
X12796512Y-22466813D01*
X12554774Y-22621934D01*
X12554303Y-22622237D01*
X12332843Y-22765729D01*
X12332239Y-22766123D01*
X12129409Y-22899186D01*
X12128651Y-22899688D01*
X11942807Y-23023519D01*
X11941877Y-23024144D01*
X11771370Y-23139941D01*
X11770253Y-23140709D01*
X11613438Y-23249671D01*
X11612128Y-23250593D01*
X11467358Y-23353917D01*
X11465861Y-23355002D01*
X11331490Y-23453888D01*
X11329831Y-23455130D01*
X11204213Y-23550774D01*
X11202432Y-23552155D01*
X11083920Y-23645756D01*
X11082080Y-23647237D01*
X10969027Y-23739993D01*
X10967199Y-23741522D01*
X10857960Y-23834632D01*
X10856224Y-23836139D01*
X10749152Y-23930800D01*
X10747580Y-23932213D01*
X10641028Y-24029623D01*
X10640115Y-24030466D01*
X10608332Y-24060098D01*
X10605232Y-24063088D01*
X10353489Y-24314279D01*
X10347728Y-24320422D01*
X10119545Y-24580500D01*
X10113941Y-24587355D01*
X9909399Y-24856173D01*
X9904075Y-24863726D01*
X9723253Y-25141134D01*
X9718335Y-25149339D01*
X9561311Y-25435191D01*
X9556923Y-25443965D01*
X9423776Y-25738113D01*
X9420028Y-25747340D01*
X9310839Y-26049635D01*
X9307814Y-26059169D01*
X9222660Y-26369464D01*
X9220407Y-26379145D01*
X9159369Y-26697292D01*
X9158335Y-26703514D01*
X9145334Y-26795848D01*
X9145221Y-26796668D01*
X9132648Y-26890384D01*
X9121132Y-26967096D01*
X9109224Y-27034516D01*
X9095352Y-27100836D01*
X9077862Y-27174097D01*
X9055109Y-27262012D01*
X9040880Y-27315228D01*
X9040235Y-27317744D01*
X8997793Y-27490568D01*
X8996325Y-27497334D01*
X8965906Y-27658726D01*
X8964681Y-27666564D01*
X8944766Y-27826578D01*
X8944060Y-27834052D01*
X8933130Y-28002746D01*
X8932944Y-28006459D01*
X8931858Y-28037102D01*
X8931793Y-28039674D01*
X8929755Y-28174015D01*
X8929797Y-28179744D01*
X8933270Y-28295682D01*
X8933744Y-28303480D01*
X8943288Y-28407527D01*
X8944431Y-28416475D01*
X8960609Y-28515141D01*
X8962143Y-28522958D01*
X8981298Y-28606552D01*
X8983801Y-28615841D01*
X9033798Y-28776884D01*
X9038545Y-28789697D01*
X9104122Y-28941130D01*
X9110592Y-28954011D01*
X9192510Y-29096347D01*
X9200510Y-29108565D01*
X9299530Y-29242317D01*
X9308603Y-29253239D01*
X9425487Y-29378921D01*
X9435033Y-29388164D01*
X9570541Y-29506291D01*
X9579980Y-29513762D01*
X9734874Y-29624847D01*
X9743762Y-29630674D01*
X9918803Y-29735230D01*
X9926870Y-29739661D01*
X10122819Y-29838203D01*
X10129951Y-29841517D01*
X10347570Y-29934559D01*
X10353761Y-29937016D01*
X10593810Y-30025070D01*
X10599113Y-30026883D01*
X10862354Y-30110464D01*
X10866857Y-30111803D01*
X11154051Y-30191425D01*
X11157234Y-30192263D01*
X11356988Y-30242107D01*
X11358694Y-30242520D01*
X11408551Y-30254231D01*
X11409126Y-30254365D01*
X11480549Y-30270792D01*
X11480848Y-30270860D01*
X11570595Y-30291273D01*
X11570790Y-30291317D01*
X11675617Y-30314987D01*
X11675765Y-30315021D01*
X11792429Y-30341217D01*
X11792553Y-30341244D01*
X11917812Y-30369238D01*
X11917930Y-30369265D01*
X12048540Y-30398325D01*
X12048656Y-30398351D01*
X12181374Y-30427749D01*
X12181446Y-30427764D01*
X12205025Y-30432973D01*
X12392343Y-30474462D01*
X12557584Y-30511376D01*
X12702854Y-30544238D01*
X12831620Y-30573876D01*
X12946206Y-30600859D01*
X13049404Y-30625862D01*
X13143846Y-30649520D01*
X13232381Y-30672523D01*
X13318083Y-30695623D01*
X13403428Y-30719419D01*
X13491127Y-30744571D01*
X13507429Y-30749310D01*
X13803891Y-30841528D01*
X14075487Y-30938312D01*
X14324920Y-31040653D01*
X14553967Y-31149236D01*
X14764528Y-31264794D01*
X14959370Y-31388634D01*
X15061849Y-31461670D01*
X15128148Y-31514634D01*
X15204811Y-31582235D01*
X15287075Y-31659922D01*
X15369593Y-31742454D01*
X15447291Y-31824712D01*
X15515035Y-31901393D01*
X15568438Y-31967871D01*
X15579627Y-31983257D01*
X15707837Y-32184325D01*
X15814150Y-32391620D01*
X15900493Y-32608951D01*
X15967654Y-32838671D01*
X16016385Y-33083803D01*
X16040423Y-33272943D01*
X16049304Y-33376128D01*
X16052963Y-33453531D01*
X16052694Y-33465554D01*
X16016075Y-33473877D01*
X15953211Y-33487881D01*
X15937571Y-33491326D01*
X15539669Y-33572473D01*
X15124712Y-33644799D01*
X14690710Y-33708604D01*
X14236533Y-33764009D01*
X13761042Y-33811136D01*
X13263151Y-33850101D01*
X12819967Y-33876975D01*
X12642454Y-33885981D01*
X12469832Y-33893839D01*
X12299791Y-33900581D01*
X12128842Y-33906288D01*
X11954157Y-33911017D01*
X11772309Y-33914842D01*
X11580408Y-33917820D01*
X11375286Y-33920016D01*
X11154147Y-33921492D01*
X10913797Y-33922310D01*
X10650758Y-33922536D01*
X10642662Y-33922534D01*
X10492300Y-33922460D01*
X10350850Y-33922292D01*
X10216553Y-33921997D01*
X10088152Y-33921546D01*
X9964042Y-33920907D01*
X9842259Y-33920047D01*
X9721325Y-33918933D01*
X9599722Y-33917538D01*
X9476187Y-33915830D01*
X9348258Y-33913769D01*
X9215182Y-33911337D01*
X9074874Y-33908490D01*
X8926168Y-33905207D01*
X8766917Y-33901445D01*
X8595744Y-33897176D01*
X8411281Y-33892375D01*
X8211762Y-33887005D01*
X7995468Y-33881031D01*
X7761032Y-33874428D01*
X7761032Y-33874429D01*
X7506809Y-33867164D01*
X7231097Y-33859202D01*
X6932432Y-33850515D01*
X6772805Y-33845856D01*
X6772802Y-33845856D01*
X6606945Y-33841019D01*
X6606933Y-33841019D01*
X6432641Y-33835953D01*
X6432630Y-33835952D01*
X6254223Y-33830782D01*
X6254213Y-33830782D01*
X6076010Y-33825631D01*
X6076000Y-33825631D01*
X5902323Y-33820625D01*
X5902312Y-33820624D01*
X5737480Y-33815887D01*
X5737467Y-33815887D01*
X5585800Y-33811544D01*
X5585784Y-33811544D01*
X5451603Y-33807719D01*
X5451581Y-33807718D01*
X5356647Y-33805028D01*
X5356125Y-33805014D01*
X5259894Y-33802683D01*
X5259206Y-33802668D01*
X5140461Y-33800436D01*
X5140007Y-33800429D01*
X5001633Y-33798323D01*
X5001302Y-33798318D01*
X4846182Y-33796361D01*
X4845918Y-33796358D01*
X4676938Y-33794577D01*
X4676716Y-33794575D01*
X4496762Y-33792994D01*
X4496560Y-33792992D01*
X4308515Y-33791638D01*
X4308325Y-33791637D01*
X4115076Y-33790535D01*
X4114888Y-33790534D01*
X3919319Y-33789709D01*
X3919124Y-33789708D01*
X3724120Y-33789185D01*
X3723911Y-33789185D01*
X3537082Y-33788991D01*
X3536904Y-33788991D01*
X3289343Y-33789080D01*
X3289170Y-33789080D01*
X3064604Y-33789467D01*
X3064368Y-33789468D01*
X2860393Y-33790199D01*
X2860080Y-33790200D01*
X2674292Y-33791324D01*
X2673890Y-33791327D01*
X2503884Y-33792893D01*
X2503389Y-33792899D01*
X2346763Y-33794953D01*
X2346168Y-33794962D01*
X2200516Y-33797554D01*
X2199833Y-33797568D01*
X2062751Y-33800745D01*
X2061999Y-33800765D01*
X1931085Y-33804576D01*
X1930296Y-33804601D01*
X1803144Y-33809093D01*
X1802360Y-33809123D01*
X1676568Y-33814345D01*
X1675836Y-33814378D01*
X1548997Y-33820377D01*
X1548353Y-33820409D01*
X1418066Y-33827234D01*
X1417575Y-33827261D01*
X1302940Y-33833711D01*
X1215170Y-33838251D01*
X1146222Y-33840217D01*
X1086659Y-33839557D01*
X1026076Y-33836081D01*
X954278Y-33829328D01*
X885846Y-33821629D01*
X885846Y-33821630D01*
X731458Y-33804201D01*
X730278Y-33804073D01*
X582298Y-33788767D01*
X580887Y-33788629D01*
X436590Y-33775330D01*
X435015Y-33775195D01*
X291631Y-33763779D01*
X289975Y-33763658D01*
X144730Y-33754002D01*
X143091Y-33753903D01*
X-6787Y-33745884D01*
X-8325Y-33745811D01*
X-165607Y-33739307D01*
X-166978Y-33739258D01*
X-334437Y-33734145D01*
X-335608Y-33734115D01*
X-516015Y-33730271D01*
X-516972Y-33730254D01*
X-713100Y-33727555D01*
X-713856Y-33727547D01*
X-928477Y-33725870D01*
X-929051Y-33725867D01*
X-1164937Y-33725090D01*
X-1165263Y-33725089D01*
X-1288958Y-33724999D01*
X-1289110Y-33724999D01*
X-1439529Y-33725070D01*
X-1439697Y-33725070D01*
X-1580960Y-33725324D01*
X-1581204Y-33725325D01*
X-1714990Y-33725822D01*
X-1715311Y-33725823D01*
X-1843301Y-33726622D01*
X-1843695Y-33726626D01*
X-1967566Y-33727784D01*
X-1968028Y-33727789D01*
X-2089462Y-33729366D01*
X-2089973Y-33729373D01*
X-2210647Y-33731426D01*
X-2211190Y-33731437D01*
X-2332786Y-33734026D01*
X-2333336Y-33734039D01*
X-2457531Y-33737221D01*
X-2458067Y-33737236D01*
X-2586543Y-33741071D01*
X-2587046Y-33741087D01*
X-2721480Y-33745633D01*
X-2721937Y-33745649D01*
X-2864010Y-33750965D01*
X-2864410Y-33750980D01*
X-3015800Y-33757123D01*
X-3016144Y-33757138D01*
X-3178532Y-33764168D01*
X-3178818Y-33764181D01*
X-3353883Y-33772156D01*
X-3354117Y-33772166D01*
X-3543538Y-33781144D01*
X-3543724Y-33781153D01*
X-3749181Y-33791194D01*
X-3749325Y-33791202D01*
X-3972497Y-33802363D01*
X-3972607Y-33802368D01*
X-4215174Y-33814709D01*
X-4215253Y-33814713D01*
X-4478893Y-33828291D01*
X-4478948Y-33828294D01*
X-4765342Y-33843169D01*
X-4765371Y-33843170D01*
X-4934216Y-33851978D01*
X-5229181Y-33867264D01*
X-5501026Y-33881095D01*
X-5751942Y-33893573D01*
X-5984753Y-33904832D01*
X-5984753Y-33904833D01*
X-6201013Y-33914943D01*
X-6403650Y-33924041D01*
X-6594880Y-33932231D01*
X-6776813Y-33939614D01*
X-6952042Y-33946305D01*
X-6976543Y-33947207D01*
X-7088308Y-33950770D01*
X-7218387Y-33954012D01*
X-7364019Y-33956924D01*
X-7521240Y-33959470D01*
X-7687546Y-33961643D01*
X-7859132Y-33963415D01*
X-8033002Y-33964769D01*
X-8205506Y-33965683D01*
X-8374135Y-33966141D01*
X-8534671Y-33966120D01*
X-8684269Y-33965604D01*
X-8819535Y-33964573D01*
X-8937326Y-33963012D01*
X-9034116Y-33960908D01*
X-9069269Y-33959803D01*
X-9489799Y-33940770D01*
X-9886508Y-33914336D01*
X-10260731Y-33880351D01*
X-10613645Y-33838669D01*
X-10946353Y-33789162D01*
X-11259982Y-33731698D01*
X-11555577Y-33666174D01*
X-11834393Y-33592445D01*
X-12098929Y-33509966D01*
X-12105503Y-33507742D01*
X-12263256Y-33450335D01*
X-12426426Y-33383824D01*
X-12589975Y-33310633D01*
X-12747376Y-33233816D01*
X-12892220Y-33156449D01*
X-13019359Y-33080973D01*
X-13035816Y-33070447D01*
X-13099955Y-33028965D01*
X-13088110Y-32951802D01*
X-13067744Y-32849429D01*
X-13041964Y-32738637D01*
X-13012810Y-32628306D01*
X-12982095Y-32526193D01*
X-12980420Y-32521059D01*
X-12893866Y-32293052D01*
X-12790025Y-32081757D01*
X-12667646Y-31884118D01*
X-12580250Y-31770000D01*
X-2559272Y-31770000D01*
X-2547012Y-31894482D01*
X-2510702Y-32014180D01*
X-2451737Y-32124494D01*
X-2372385Y-32221185D01*
X-2275694Y-32300537D01*
X-2165380Y-32359502D01*
X-2045682Y-32395812D01*
X-1921200Y-32408072D01*
X-1343350Y-32405000D01*
X-1184600Y-32246250D01*
X-1184600Y-31033400D01*
X-2397450Y-31033400D01*
X-2556200Y-31192150D01*
X-2559272Y-31770000D01*
X-12580250Y-31770000D01*
X-12526305Y-31699561D01*
X-12365459Y-31527567D01*
X-12184495Y-31367715D01*
X-11982811Y-31219723D01*
X-11759864Y-31083430D01*
X-11515136Y-30958714D01*
X-11248203Y-30845512D01*
X-10958756Y-30743790D01*
X-10645337Y-30653147D01*
X-10573877Y-30634894D01*
X-10443313Y-30603227D01*
X-10313587Y-30573748D01*
X-10182315Y-30546072D01*
X-10047006Y-30519803D01*
X-9905383Y-30494592D01*
X-9754953Y-30470058D01*
X-9593613Y-30445886D01*
X-9418795Y-30421691D01*
X-9228570Y-30397177D01*
X-9020212Y-30371941D01*
X-8791925Y-30345697D01*
X-8541015Y-30318048D01*
X-8444612Y-30307674D01*
X-8444541Y-30307666D01*
X-8222311Y-30283625D01*
X-8221944Y-30283585D01*
X-8022793Y-30261455D01*
X-8022294Y-30261399D01*
X-7843999Y-30240872D01*
X-7843339Y-30240794D01*
X-7683675Y-30221565D01*
X-7682824Y-30221459D01*
X-7539569Y-30203224D01*
X-7538495Y-30203083D01*
X-7409423Y-30185534D01*
X-7408112Y-30185349D01*
X-7291001Y-30168181D01*
X-7289457Y-30167945D01*
X-7182082Y-30150853D01*
X-7180342Y-30150563D01*
X-7080480Y-30133241D01*
X-7078622Y-30132905D01*
X-6984048Y-30115048D01*
X-6982186Y-30114682D01*
X-6890678Y-30095984D01*
X-6889519Y-30095741D01*
X-6862196Y-30089892D01*
X-6858950Y-30089153D01*
X-6638758Y-30035946D01*
X-6631766Y-30034044D01*
X-6435494Y-29974583D01*
X-6426950Y-29971659D01*
X-6253774Y-29905429D01*
X-6243521Y-29900981D01*
X-6092616Y-29827468D01*
X-6080685Y-29820841D01*
X-5951227Y-29739528D01*
X-5938042Y-29730017D01*
X-5829209Y-29640390D01*
X-5815747Y-29627537D01*
X-5726714Y-29529081D01*
X-5714422Y-29513103D01*
X-5644365Y-29405302D01*
X-5634799Y-29387675D01*
X-5584403Y-29274277D01*
X-5579817Y-29262384D01*
X-5568212Y-29227104D01*
X-5565388Y-29217174D01*
X-5557246Y-29183388D01*
X-5554923Y-29171136D01*
X-5549643Y-29133188D01*
X-5548684Y-29123695D01*
X-5545666Y-29075932D01*
X-5545442Y-29070648D01*
X-5544085Y-29007413D01*
X-5544057Y-29005288D01*
X-5543767Y-28943900D01*
X-5543768Y-28942672D01*
X-5544165Y-28862380D01*
X-5544223Y-28859110D01*
X-5546131Y-28796982D01*
X-5546494Y-28790519D01*
X-5550684Y-28739330D01*
X-5551715Y-28730527D01*
X-5558962Y-28683051D01*
X-5560402Y-28675258D01*
X-5571477Y-28624270D01*
X-5572412Y-28620277D01*
X-5583588Y-28575800D01*
X-5585324Y-28569567D01*
X-5640990Y-28387770D01*
X-5644095Y-28378833D01*
X-5648940Y-28366400D01*
X-2563451Y-28366400D01*
X-2534516Y-28660177D01*
X-2448825Y-28942664D01*
X-2309669Y-29203006D01*
X-2122397Y-29431197D01*
X-2114335Y-29437814D01*
X-2165380Y-29453298D01*
X-2275694Y-29512263D01*
X-2372385Y-29591615D01*
X-2451737Y-29688306D01*
X-2510702Y-29798620D01*
X-2547012Y-29918318D01*
X-2559272Y-30042800D01*
X-2556200Y-30620650D01*
X-2397450Y-30779400D01*
X-1184600Y-30779400D01*
X-1184600Y-30759400D01*
X-930600Y-30759400D01*
X-930600Y-30779400D01*
X-910600Y-30779400D01*
X-910600Y-31033400D01*
X-930600Y-31033400D01*
X-930600Y-32246250D01*
X-771850Y-32405000D01*
X-194000Y-32408072D01*
X-69518Y-32395812D01*
X50180Y-32359502D01*
X160494Y-32300537D01*
X257185Y-32221185D01*
X336537Y-32124494D01*
X395502Y-32014180D01*
X410986Y-31963135D01*
X417603Y-31971197D01*
X645794Y-32158469D01*
X906136Y-32297625D01*
X1188623Y-32383316D01*
X1408781Y-32405000D01*
X1556019Y-32405000D01*
X1776177Y-32383316D01*
X2058664Y-32297625D01*
X2319006Y-32158469D01*
X2547197Y-31971197D01*
X2734469Y-31743006D01*
X2754283Y-31705937D01*
X2858361Y-31861702D01*
X3067098Y-32070439D01*
X3312547Y-32234442D01*
X3585275Y-32347410D01*
X3874801Y-32405000D01*
X4169999Y-32405000D01*
X4459525Y-32347410D01*
X4732253Y-32234442D01*
X4977702Y-32070439D01*
X5186439Y-31861702D01*
X5350442Y-31616253D01*
X5463410Y-31343525D01*
X5521000Y-31053999D01*
X5521000Y-30758801D01*
X5463410Y-30469275D01*
X5350442Y-30196547D01*
X5186439Y-29951098D01*
X4977702Y-29742361D01*
X4819119Y-29636400D01*
X4977702Y-29530439D01*
X5186439Y-29321702D01*
X5350442Y-29076253D01*
X5463410Y-28803525D01*
X5521000Y-28513999D01*
X5521000Y-28218801D01*
X5463410Y-27929275D01*
X5350442Y-27656547D01*
X5186439Y-27411098D01*
X4977702Y-27202361D01*
X4732253Y-27038358D01*
X4459525Y-26925390D01*
X4169999Y-26867800D01*
X3874801Y-26867800D01*
X3585275Y-26925390D01*
X3312547Y-27038358D01*
X3067098Y-27202361D01*
X2858361Y-27411098D01*
X2754283Y-27566863D01*
X2734469Y-27529794D01*
X2547197Y-27301603D01*
X2319006Y-27114331D01*
X2058664Y-26975175D01*
X1776177Y-26889484D01*
X1556019Y-26867800D01*
X1408781Y-26867800D01*
X1188623Y-26889484D01*
X906136Y-26975175D01*
X645794Y-27114331D01*
X417603Y-27301603D01*
X230331Y-27529794D01*
X212400Y-27563340D01*
X194469Y-27529794D01*
X7197Y-27301603D01*
X-220994Y-27114331D01*
X-481336Y-26975175D01*
X-763823Y-26889484D01*
X-983981Y-26867800D01*
X-1131219Y-26867800D01*
X-1351377Y-26889484D01*
X-1633864Y-26975175D01*
X-1894206Y-27114331D01*
X-2122397Y-27301603D01*
X-2309669Y-27529794D01*
X-2448825Y-27790136D01*
X-2534516Y-28072623D01*
X-2563451Y-28366400D01*
X-5648940Y-28366400D01*
X-5719878Y-28184399D01*
X-5722962Y-28177159D01*
X-5818035Y-27971821D01*
X-5821034Y-27965771D01*
X-5934570Y-27751260D01*
X-5937484Y-27746054D01*
X-6068657Y-27524105D01*
X-6070679Y-27520799D01*
X-6130341Y-27426538D01*
X-6130932Y-27425613D01*
X-6202031Y-27315402D01*
X-6218569Y-27186232D01*
X-6219074Y-27182686D01*
X-6273120Y-26838022D01*
X-6274538Y-26830479D01*
X-6346819Y-26501040D01*
X-6348864Y-26492985D01*
X-6440054Y-26177565D01*
X-6442798Y-26169179D01*
X-6553573Y-25866575D01*
X-6557032Y-25858088D01*
X-6688067Y-25567093D01*
X-6692195Y-25558755D01*
X-6844166Y-25278164D01*
X-6848851Y-25270217D01*
X-7022433Y-24998827D01*
X-7027510Y-24991473D01*
X-7223379Y-24728077D01*
X-7228657Y-24721453D01*
X-7447488Y-24464847D01*
X-7452776Y-24459022D01*
X-7695244Y-24208001D01*
X-7700376Y-24202980D01*
X-7967158Y-23956339D01*
X-7970582Y-23953287D01*
X-8083311Y-23856380D01*
X-8084936Y-23855006D01*
X-8177378Y-23778195D01*
X-8178814Y-23777020D01*
X-8273932Y-23700306D01*
X-8275411Y-23699130D01*
X-8375004Y-23621224D01*
X-8376453Y-23620108D01*
X-8482321Y-23539723D01*
X-8483670Y-23538713D01*
X-8597609Y-23454560D01*
X-8598817Y-23453679D01*
X-8722627Y-23364469D01*
X-8723670Y-23363724D01*
X-8859148Y-23268169D01*
X-8860024Y-23267557D01*
X-9008969Y-23164369D01*
X-9009684Y-23163877D01*
X-9173894Y-23051767D01*
X-9174465Y-23051380D01*
X-9355738Y-22929059D01*
X-9356185Y-22928759D01*
X-9556320Y-22794940D01*
X-9556585Y-22794763D01*
X-9664224Y-22723182D01*
X-9908072Y-22560654D01*
X-10131735Y-22410176D01*
X-10336619Y-22270656D01*
X-10524486Y-22140754D01*
X-10696958Y-22019233D01*
X-10855584Y-21904906D01*
X-11001942Y-21796568D01*
X-11137590Y-21693034D01*
X-11264292Y-21592964D01*
X-11383664Y-21495125D01*
X-11497268Y-21398329D01*
X-11606972Y-21301119D01*
X-11714290Y-21202336D01*
X-11820915Y-21100659D01*
X-11928790Y-20994505D01*
X-11976956Y-20946159D01*
X-12081393Y-20839691D01*
X-12170241Y-20746460D01*
X-12247455Y-20661914D01*
X-12317009Y-20581484D01*
X-12383129Y-20500266D01*
X-12449981Y-20413330D01*
X-12521593Y-20315843D01*
X-12553523Y-20271327D01*
X-12838029Y-19851783D01*
X-13098347Y-19425121D01*
X-13335126Y-18990549D01*
X-13548250Y-18548401D01*
X-13737613Y-18098985D01*
X-13903116Y-17642578D01*
X-14044641Y-17179495D01*
X-14162063Y-16710053D01*
X-14255330Y-16234222D01*
X-14297177Y-15951700D01*
X-1995672Y-15951700D01*
X-1995672Y-18551700D01*
X-1983412Y-18676182D01*
X-1947102Y-18795880D01*
X-1888137Y-18906194D01*
X-1808785Y-19002885D01*
X-1712094Y-19082237D01*
X-1601780Y-19141202D01*
X-1482082Y-19177512D01*
X-1357600Y-19189772D01*
X599114Y-19189772D01*
X581114Y-19216711D01*
X510632Y-19386871D01*
X474700Y-19567511D01*
X474700Y-19751689D01*
X510632Y-19932329D01*
X581114Y-20102489D01*
X683438Y-20255628D01*
X813672Y-20385862D01*
X966811Y-20488186D01*
X1136971Y-20558668D01*
X1317611Y-20594600D01*
X1501789Y-20594600D01*
X1682429Y-20558668D01*
X1852589Y-20488186D01*
X2005728Y-20385862D01*
X2135962Y-20255628D01*
X2238286Y-20102489D01*
X2308768Y-19932329D01*
X2344700Y-19751689D01*
X2344700Y-19567511D01*
X2308768Y-19386871D01*
X2238286Y-19216711D01*
X2220286Y-19189772D01*
X4202400Y-19189772D01*
X4326882Y-19177512D01*
X4446580Y-19141202D01*
X4556894Y-19082237D01*
X4653585Y-19002885D01*
X4732937Y-18906194D01*
X4791902Y-18795880D01*
X4828212Y-18676182D01*
X4840472Y-18551700D01*
X4840472Y-15951700D01*
X4828212Y-15827218D01*
X4791902Y-15707520D01*
X4732937Y-15597206D01*
X4653585Y-15500515D01*
X4556894Y-15421163D01*
X4446580Y-15362198D01*
X4326882Y-15325888D01*
X4202400Y-15313628D01*
X-1357600Y-15313628D01*
X-1482082Y-15325888D01*
X-1601780Y-15362198D01*
X-1712094Y-15421163D01*
X-1808785Y-15500515D01*
X-1888137Y-15597206D01*
X-1947102Y-15707520D01*
X-1983412Y-15827218D01*
X-1995672Y-15951700D01*
X-14297177Y-15951700D01*
X-14312943Y-15845266D01*
X-14329964Y-15706906D01*
X-14344091Y-15580920D01*
X-14355498Y-15463542D01*
X-14364457Y-15350217D01*
X-14371273Y-15235943D01*
X-14376213Y-15115876D01*
X-14379524Y-14985363D01*
X-14381453Y-14839597D01*
X-14382249Y-14673792D01*
X-14382305Y-14617881D01*
X-14382079Y-14459573D01*
X-14381171Y-14322911D01*
X-14379362Y-14202833D01*
X-14376454Y-14095389D01*
X-14372227Y-13995639D01*
X-14366461Y-13898947D01*
X-14358929Y-13800709D01*
X-14349360Y-13696027D01*
X-14337516Y-13580415D01*
X-14325577Y-13471087D01*
X-14257860Y-12974074D01*
X-14165722Y-12477560D01*
X-14049398Y-11981298D01*
X-13909331Y-11486482D01*
X-13745965Y-10994305D01*
X-13559736Y-10505917D01*
X-13351110Y-10022546D01*
X-13120514Y-9545312D01*
X-13013959Y-9346700D01*
X-1995672Y-9346700D01*
X-1983412Y-9471182D01*
X-1947102Y-9590880D01*
X-1888137Y-9701194D01*
X-1808785Y-9797885D01*
X-1712094Y-9877237D01*
X-1601780Y-9936202D01*
X-1482082Y-9972512D01*
X-1357600Y-9984772D01*
X1136650Y-9981700D01*
X1295400Y-9822950D01*
X1295400Y-5473700D01*
X1549400Y-5473700D01*
X1549400Y-9822950D01*
X1708150Y-9981700D01*
X4202400Y-9984772D01*
X4326882Y-9972512D01*
X4446580Y-9936202D01*
X4556894Y-9877237D01*
X4653585Y-9797885D01*
X4732937Y-9701194D01*
X4791902Y-9590880D01*
X4828212Y-9471182D01*
X4840472Y-9346700D01*
X4837400Y-5632450D01*
X4678650Y-5473700D01*
X1549400Y-5473700D01*
X1295400Y-5473700D01*
X-1833850Y-5473700D01*
X-1992600Y-5632450D01*
X-1995672Y-9346700D01*
X-13013959Y-9346700D01*
X-12868423Y-9075432D01*
X-12595287Y-8614079D01*
X-12301082Y-8161677D01*
X-12193352Y-8005915D01*
X-11847039Y-7534750D01*
X-11482734Y-7081073D01*
X-11100431Y-6644685D01*
X-10700529Y-6225960D01*
X-10283514Y-5825377D01*
X-9849867Y-5443400D01*
X-9400004Y-5080436D01*
X-8933960Y-4736622D01*
X-8635391Y-4532186D01*
X-8415681Y-4389539D01*
X-8186268Y-4247073D01*
X-7953817Y-4108734D01*
X-7724804Y-3978340D01*
X-7505379Y-3859512D01*
X-7412362Y-3811269D01*
X-7411754Y-3810951D01*
X-7363159Y-3785413D01*
X-7360137Y-3783773D01*
X-7321333Y-3762020D01*
X-7315946Y-3758823D01*
X-7291679Y-3743600D01*
X-7272520Y-3728866D01*
X-7266711Y-3723445D01*
X-7250262Y-3704757D01*
X-7237774Y-3683218D01*
X-7229729Y-3659658D01*
X-7226435Y-3634980D01*
X-7228018Y-3610134D01*
X-7234418Y-3586075D01*
X-7245389Y-3563726D01*
X-7266576Y-3537872D01*
X-7276816Y-3528288D01*
X-7287651Y-3519223D01*
X-7316801Y-3497473D01*
X-7319395Y-3495588D01*
X-7365034Y-3463296D01*
X-7366245Y-3462449D01*
X-7425949Y-3421239D01*
X-7426692Y-3420730D01*
X-7498042Y-3372225D01*
X-7498578Y-3371863D01*
X-7579152Y-3317686D01*
X-7579591Y-3317392D01*
X-7666966Y-3259168D01*
X-7667361Y-3258906D01*
X-7759116Y-3198257D01*
X-7759506Y-3198000D01*
X-7853220Y-3136550D01*
X-7853635Y-3136279D01*
X-7946886Y-3075652D01*
X-7947360Y-3075346D01*
X-8037726Y-3017164D01*
X-8038185Y-3016869D01*
X-8091458Y-2982892D01*
X-8091888Y-2982619D01*
X-8230207Y-2895179D01*
X-8230705Y-2894866D01*
X-8368199Y-2808836D01*
X-8368741Y-2808499D01*
X-8506938Y-2722992D01*
X-8507505Y-2722643D01*
X-8647930Y-2636772D01*
X-8648504Y-2636423D01*
X-8792686Y-2549299D01*
X-8793250Y-2548960D01*
X-8942716Y-2459698D01*
X-8943254Y-2459379D01*
X-9099531Y-2367090D01*
X-9100030Y-2366797D01*
X-9264645Y-2270594D01*
X-9265098Y-2270330D01*
X-9439578Y-2169325D01*
X-9439981Y-2169093D01*
X-9625854Y-2062400D01*
X-9626205Y-2062199D01*
X-9824998Y-1948929D01*
X-9825298Y-1948759D01*
X-10038538Y-1828025D01*
X-10038792Y-1827881D01*
X-10268005Y-1698796D01*
X-10268215Y-1698678D01*
X-10514930Y-1560354D01*
X-10515103Y-1560257D01*
X-10780847Y-1411808D01*
X-10780986Y-1411731D01*
X-10897742Y-1346700D01*
X-1995672Y-1346700D01*
X-1992600Y-5060950D01*
X-1833850Y-5219700D01*
X1295400Y-5219700D01*
X1295400Y-870450D01*
X1549400Y-870450D01*
X1549400Y-5219700D01*
X4678650Y-5219700D01*
X4837400Y-5060950D01*
X4840472Y-1346700D01*
X4828212Y-1222218D01*
X4791902Y-1102520D01*
X4732937Y-992206D01*
X4653585Y-895515D01*
X4556894Y-816163D01*
X4446580Y-757198D01*
X4326882Y-720888D01*
X4202400Y-708628D01*
X1708150Y-711700D01*
X1549400Y-870450D01*
X1295400Y-870450D01*
X1136650Y-711700D01*
X-1357600Y-708628D01*
X-1482082Y-720888D01*
X-1601780Y-757198D01*
X-1712094Y-816163D01*
X-1808785Y-895515D01*
X-1888137Y-992206D01*
X-1947102Y-1102520D01*
X-1983412Y-1222218D01*
X-1995672Y-1346700D01*
X-10897742Y-1346700D01*
X-11067285Y-1252268D01*
X-11067352Y-1252231D01*
X-11120620Y-1222604D01*
X-11445264Y-1041828D01*
X-11748731Y-872285D01*
X-12032291Y-713220D01*
X-12297642Y-563634D01*
X-12545401Y-423140D01*
X-12778008Y-290318D01*
X-12995505Y-165112D01*
X-13200073Y-46243D01*
X-13392990Y67048D01*
X-13575273Y175371D01*
X-13748199Y279480D01*
X-13913421Y380359D01*
X-14072353Y478852D01*
X-14225814Y575432D01*
X-14375630Y671200D01*
X-14522855Y766772D01*
X-14669185Y863177D01*
X-14815616Y960988D01*
X-14963808Y1061220D01*
X-14983626Y1074712D01*
X-15464598Y1412457D01*
X-15920004Y1753023D01*
X-16350927Y2097346D01*
X-16757922Y2446001D01*
X-17141395Y2799435D01*
X-17501905Y3158234D01*
X-17839896Y3522876D01*
X-18155916Y3893946D01*
X-18450436Y4271960D01*
X-18723947Y4657452D01*
X-18976992Y5051047D01*
X-19210041Y5453281D01*
X-19423599Y5864763D01*
X-19618298Y6286409D01*
X-19749642Y6603201D01*
X-19819713Y6786302D01*
X-19878634Y6953687D01*
X-19928338Y7111356D01*
X-19971008Y7266125D01*
X-20008972Y7425702D01*
X-20010126Y7430948D01*
X-20046146Y7599434D01*
X-20079407Y7764721D01*
X-20096957Y7858300D01*
X-1995672Y7858300D01*
X-1995672Y5258300D01*
X-1983412Y5133818D01*
X-1947102Y5014120D01*
X-1888137Y4903806D01*
X-1808785Y4807115D01*
X-1712094Y4727763D01*
X-1601780Y4668798D01*
X-1482082Y4632488D01*
X-1357600Y4620228D01*
X4202400Y4620228D01*
X4326882Y4632488D01*
X4446580Y4668798D01*
X4556894Y4727763D01*
X4653585Y4807115D01*
X4732937Y4903806D01*
X4791902Y5014120D01*
X4828212Y5133818D01*
X4840472Y5258300D01*
X4840472Y7858300D01*
X4828212Y7982782D01*
X4791902Y8102480D01*
X4732937Y8212794D01*
X4653585Y8309485D01*
X4556894Y8388837D01*
X4446580Y8447802D01*
X4326882Y8484112D01*
X4202400Y8496372D01*
X2182400Y8496372D01*
X2182400Y8541272D01*
X2238286Y8624911D01*
X2308768Y8795071D01*
X2344700Y8975711D01*
X2344700Y9159889D01*
X2308768Y9340529D01*
X2238286Y9510689D01*
X2135962Y9663828D01*
X2005728Y9794062D01*
X1852589Y9896386D01*
X1682429Y9966868D01*
X1501789Y10002800D01*
X1317611Y10002800D01*
X1136971Y9966868D01*
X966811Y9896386D01*
X813672Y9794062D01*
X683438Y9663828D01*
X581114Y9510689D01*
X510632Y9340529D01*
X474700Y9159889D01*
X474700Y8975711D01*
X510632Y8795071D01*
X581114Y8624911D01*
X662401Y8503257D01*
X662401Y8496372D01*
X-1357600Y8496372D01*
X-1482082Y8484112D01*
X-1601780Y8447802D01*
X-1712094Y8388837D01*
X-1808785Y8309485D01*
X-1888137Y8212794D01*
X-1947102Y8102480D01*
X-1983412Y7982782D01*
X-1995672Y7858300D01*
X-20096957Y7858300D01*
X-20110391Y7929927D01*
X-20139419Y8097428D01*
X-20166845Y8269766D01*
X-20193027Y8449574D01*
X-20218270Y8639102D01*
X-20242946Y8841113D01*
X-20267367Y9057938D01*
X-20291861Y9291967D01*
X-20316779Y9545865D01*
X-20342455Y9822084D01*
X-20352182Y9930092D01*
X-20352182Y9930094D01*
X-20376124Y10195874D01*
X-20376145Y10196100D01*
X-20398408Y10438403D01*
X-20398436Y10438709D01*
X-20419251Y10659386D01*
X-20419290Y10659791D01*
X-20438890Y10860696D01*
X-20438942Y10861218D01*
X-20457556Y11044200D01*
X-20457625Y11044859D01*
X-20475485Y11211771D01*
X-20475575Y11212586D01*
X-20492911Y11365279D01*
X-20493026Y11366264D01*
X-20510069Y11506589D01*
X-20510216Y11507751D01*
X-20527198Y11637561D01*
X-20527379Y11638888D01*
X-20544529Y11760034D01*
X-20544745Y11761503D01*
X-20562296Y11875836D01*
X-20562545Y11877393D01*
X-20580727Y11986765D01*
X-20580999Y11988340D01*
X-20600042Y12094603D01*
X-20600324Y12096120D01*
X-20620461Y12201124D01*
X-20620732Y12202497D01*
X-20642192Y12308095D01*
X-20642405Y12309123D01*
X-20659066Y12387772D01*
X-20659866Y12391300D01*
X-20750139Y12764649D01*
X-20751952Y12771341D01*
X-20858394Y13125650D01*
X-20860783Y13132820D01*
X-20931895Y13326812D01*
X-10356700Y13326812D01*
X-10356639Y13322282D01*
X-10356557Y13319136D01*
X-10351771Y13193947D01*
X-10351572Y13190187D01*
X-10343784Y13075599D01*
X-10343319Y13070365D01*
X-10332568Y12972344D01*
X-10331825Y12966731D01*
X-10326384Y12931640D01*
X-10325197Y12925112D01*
X-10259633Y12611480D01*
X-10257402Y12602466D01*
X-10171949Y12304411D01*
X-10168851Y12295008D01*
X-10063213Y12011945D01*
X-10059192Y12002381D01*
X-9933076Y11733726D01*
X-9928142Y11724271D01*
X-9781251Y11469438D01*
X-9775499Y11460367D01*
X-9607539Y11218771D01*
X-9601133Y11210331D01*
X-9411810Y10981387D01*
X-9406110Y10974951D01*
X-9266693Y10827874D01*
X-9260919Y10822160D01*
X-9046494Y10623140D01*
X-9039254Y10616910D01*
X-8808815Y10433241D01*
X-8801272Y10427672D01*
X-8553261Y10258332D01*
X-8545701Y10253552D01*
X-8278564Y10097518D01*
X-8271255Y10093563D01*
X-7983433Y9949814D01*
X-7978261Y9947375D01*
X-7827581Y9880417D01*
X-7823998Y9878890D01*
X-7690598Y9824445D01*
X-7685154Y9822368D01*
X-7565976Y9779994D01*
X-7558430Y9777573D01*
X-7446421Y9745461D01*
X-7437690Y9743290D01*
X-7325798Y9719634D01*
X-7317524Y9718168D01*
X-7198696Y9701159D01*
X-7192785Y9700454D01*
X-7086846Y9690328D01*
X-7081528Y9689932D01*
X-7023387Y9686830D01*
X-7019861Y9686691D01*
X-6940827Y9684674D01*
X-6938906Y9684640D01*
X-6843461Y9683649D01*
X-6842172Y9683642D01*
X-6734795Y9683617D01*
X-6733791Y9683621D01*
X-6618965Y9684502D01*
X-6618075Y9684512D01*
X-6500280Y9686241D01*
X-6499397Y9686257D01*
X-6383115Y9688773D01*
X-6382128Y9688798D01*
X-6271840Y9692042D01*
X-6270600Y9692084D01*
X-6170786Y9695996D01*
X-6169002Y9696079D01*
X-6084145Y9700601D01*
X-6081898Y9700741D01*
X-6040357Y9703694D01*
X-6036745Y9704002D01*
X-5908579Y9716798D01*
X-5902303Y9717583D01*
X-5785663Y9735130D01*
X-5777726Y9736583D01*
X-5667323Y9760445D01*
X-5658786Y9762603D01*
X-5549330Y9794340D01*
X-5541488Y9796893D01*
X-5427690Y9838067D01*
X-5421452Y9840511D01*
X-5298023Y9892684D01*
X-5293647Y9894632D01*
X-5155296Y9959366D01*
X-5153532Y9960208D01*
X-5132363Y9970513D01*
X-5129535Y9971934D01*
X-4909179Y10086081D01*
X-4903117Y10089434D01*
X-4702509Y10207649D01*
X-4695782Y10211902D01*
X-4509270Y10338188D01*
X-4502551Y10343065D01*
X-4324484Y10481426D01*
X-4318447Y10486423D01*
X-4143174Y10640859D01*
X-4139034Y10644674D01*
X-4025183Y10754327D01*
X-4023004Y10756476D01*
X-3915714Y10864913D01*
X-3913569Y10867135D01*
X-3821548Y10964779D01*
X-3818663Y10967946D01*
X-3737519Y11060086D01*
X-3734247Y11063954D01*
X-3659587Y11155878D01*
X-3656478Y11159865D01*
X-3583911Y11256860D01*
X-3581431Y11260293D01*
X-3506563Y11367648D01*
X-3505249Y11369569D01*
X-3468727Y11424039D01*
X-3465701Y11428776D01*
X-3311781Y11681879D01*
X-3306784Y11690902D01*
X-3174901Y11953683D01*
X-3170615Y11963174D01*
X-3060208Y12237108D01*
X-3056776Y12246723D01*
X-2967279Y12533286D01*
X-2964735Y12542681D01*
X-2895586Y12843347D01*
X-2894270Y12849839D01*
X-2869793Y12989177D01*
X-2868690Y12996813D01*
X-2861676Y13058547D01*
X-2861111Y13064970D01*
X-2855994Y13146923D01*
X-2855818Y13150578D01*
X-2852561Y13247644D01*
X-2852501Y13250202D01*
X-2851195Y13347700D01*
X206817Y13347700D01*
X292450Y13301928D01*
X459046Y13251392D01*
X632300Y13234328D01*
X1882300Y13234328D01*
X2055554Y13251392D01*
X2222150Y13301928D01*
X2307783Y13347700D01*
X5925341Y13347700D01*
X5925376Y13311484D01*
X5925377Y13311112D01*
X5925923Y13170875D01*
X5925928Y13170156D01*
X5927073Y13050237D01*
X5927090Y13049015D01*
X5929049Y12946872D01*
X5929101Y12944951D01*
X5932084Y12858042D01*
X5932214Y12855186D01*
X5936435Y12780971D01*
X5936725Y12776986D01*
X5942395Y12712924D01*
X5942958Y12707763D01*
X5950290Y12651313D01*
X5951223Y12645271D01*
X5960430Y12593890D01*
X5961702Y12587688D01*
X5972994Y12538837D01*
X5974377Y12533404D01*
X5987969Y12484542D01*
X5989127Y12480622D01*
X6005229Y12429206D01*
X6005875Y12427201D01*
X6019194Y12387021D01*
X6020560Y12383114D01*
X6047980Y12308615D01*
X6049641Y12304344D01*
X6087084Y12212932D01*
X6088237Y12210207D01*
X6133295Y12107119D01*
X6134241Y12105008D01*
X6184508Y11995483D01*
X6185407Y11993567D01*
X6238476Y11882841D01*
X6239459Y11880834D01*
X6292922Y11774146D01*
X6294166Y11771729D01*
X6345617Y11674317D01*
X6346468Y11672734D01*
X6349299Y11667553D01*
X6351376Y11663896D01*
X6505120Y11403416D01*
X6509942Y11395867D01*
X6674352Y11157476D01*
X6680266Y11149577D01*
X6857076Y10931590D01*
X6864012Y10923726D01*
X7054955Y10724455D01*
X7062688Y10717038D01*
X7269497Y10534795D01*
X7277671Y10528172D01*
X7502080Y10361272D01*
X7510274Y10355662D01*
X7754017Y10202416D01*
X7761185Y10198230D01*
X7978671Y10080574D01*
X7984088Y10077809D01*
X8216627Y9966053D01*
X8222071Y9963593D01*
X8439511Y9871415D01*
X8446194Y9868802D01*
X8649294Y9795940D01*
X8657491Y9793309D01*
X8847010Y9739499D01*
X8857009Y9737093D01*
X9033707Y9702074D01*
X9041644Y9700761D01*
X9101848Y9692750D01*
X9108283Y9692060D01*
X9166525Y9687313D01*
X9171070Y9687024D01*
X9249981Y9683434D01*
X9252507Y9683345D01*
X9347379Y9680919D01*
X9349119Y9680886D01*
X9455247Y9679627D01*
X9456658Y9679618D01*
X9569335Y9679534D01*
X9570642Y9679540D01*
X9685163Y9680633D01*
X9686541Y9680653D01*
X9798200Y9682931D01*
X9799836Y9682975D01*
X9903927Y9686441D01*
X9906050Y9686530D01*
X9992214Y9690843D01*
X9994941Y9691009D01*
X10141318Y9701497D01*
X10145220Y9701837D01*
X10275155Y9715185D01*
X10280771Y9715888D01*
X10399034Y9733391D01*
X10406080Y9734638D01*
X10517440Y9757593D01*
X10525124Y9759428D01*
X10634351Y9789129D01*
X10641630Y9791345D01*
X10753494Y9829090D01*
X10759524Y9831296D01*
X10878794Y9878380D01*
X10883222Y9880225D01*
X11014669Y9937945D01*
X11017564Y9939260D01*
X11165048Y10008476D01*
X11168586Y10010204D01*
X11387278Y10121238D01*
X11393144Y10124412D01*
X11591242Y10238449D01*
X11597862Y10242535D01*
X11780170Y10362916D01*
X11786983Y10367743D01*
X11958307Y10497808D01*
X11964679Y10502979D01*
X12129822Y10646070D01*
X12134615Y10650442D01*
X12255361Y10766375D01*
X12259670Y10770717D01*
X12425991Y10946565D01*
X12431514Y10952801D01*
X12577560Y11129050D01*
X12583198Y11136382D01*
X12713440Y11319158D01*
X12718507Y11326844D01*
X12837417Y11522276D01*
X12840921Y11528413D01*
X12919249Y11674923D01*
X12922619Y11681706D01*
X13051873Y11962565D01*
X13055545Y11971408D01*
X13165119Y12266174D01*
X13168023Y12274949D01*
X13256834Y12580229D01*
X13259068Y12589087D01*
X13326032Y12901490D01*
X13327134Y12907282D01*
X13341994Y12996674D01*
X13342835Y13002593D01*
X13354517Y13101428D01*
X13355110Y13107831D01*
X13363010Y13225545D01*
X13363230Y13229995D01*
X13367393Y13360357D01*
X13367457Y13363976D01*
X13367926Y13500756D01*
X13367893Y13504137D01*
X13364715Y13641105D01*
X13364579Y13644730D01*
X13357796Y13775654D01*
X13357486Y13780112D01*
X13347143Y13898762D01*
X13346535Y13904323D01*
X13335825Y13985610D01*
X13334470Y13993809D01*
X13272423Y14305577D01*
X13270073Y14315348D01*
X13184560Y14617725D01*
X13181404Y14627390D01*
X13072842Y14919635D01*
X13068894Y14929079D01*
X12937700Y15210448D01*
X12932993Y15219561D01*
X12779585Y15489314D01*
X12774175Y15497995D01*
X12598970Y15755387D01*
X12592926Y15763545D01*
X12396339Y16007834D01*
X12389746Y16015394D01*
X12172197Y16245839D01*
X12165629Y16252309D01*
X11960281Y16440401D01*
X11953165Y16446454D01*
X11752735Y16604590D01*
X11744981Y16610245D01*
X11522705Y16759846D01*
X11515361Y16764433D01*
X11270172Y16906193D01*
X11265187Y16908929D01*
X11145682Y16971058D01*
X11143892Y16971970D01*
X11052149Y17017837D01*
X11050814Y17018495D01*
X10968505Y17058447D01*
X10965838Y17059703D01*
X10890503Y17094133D01*
X10886265Y17095978D01*
X10815445Y17125278D01*
X10809610Y17127525D01*
X10740844Y17152086D01*
X10733756Y17154386D01*
X10664587Y17174603D01*
X10656928Y17176585D01*
X10584894Y17192849D01*
X10577507Y17194288D01*
X10500150Y17206993D01*
X10493705Y17207883D01*
X10408565Y17217420D01*
X10403408Y17217891D01*
X10308026Y17224653D01*
X10304187Y17224867D01*
X10196103Y17229247D01*
X10193423Y17229327D01*
X10070178Y17231717D01*
X10068431Y17231739D01*
X9927565Y17232532D01*
X9926526Y17232534D01*
X9765581Y17232123D01*
X9765059Y17232120D01*
X9581574Y17230897D01*
X9581436Y17230896D01*
X9549416Y17230648D01*
X9549362Y17230648D01*
X9397536Y17229407D01*
X9397375Y17229405D01*
X9268605Y17228189D01*
X9268297Y17228186D01*
X9160237Y17226904D01*
X9159705Y17226897D01*
X9070012Y17225457D01*
X9069140Y17225440D01*
X8995470Y17223751D01*
X8994086Y17223711D01*
X8934092Y17221681D01*
X8931970Y17221592D01*
X8883310Y17219130D01*
X8880201Y17218934D01*
X8840530Y17215950D01*
X8836298Y17215561D01*
X8803271Y17211962D01*
X8798208Y17211307D01*
X8769480Y17207002D01*
X8764525Y17206159D01*
X8737754Y17201057D01*
X8734541Y17200401D01*
X8715583Y17196278D01*
X8708435Y17194505D01*
X8591407Y17161847D01*
X8582088Y17158855D01*
X8448810Y17110321D01*
X8442038Y17107632D01*
X8295112Y17044365D01*
X8289780Y17041922D01*
X8131810Y16965068D01*
X8127322Y16962773D01*
X7960909Y16873477D01*
X7958258Y16872014D01*
X7905500Y16842063D01*
X7900403Y16839009D01*
X7661597Y16688250D01*
X7653461Y16682660D01*
X7420658Y16509013D01*
X7413456Y16503222D01*
X7189096Y16308949D01*
X7182604Y16302919D01*
X6969128Y16090280D01*
X6963178Y16083932D01*
X6763025Y15855190D01*
X6757605Y15848558D01*
X6580504Y15616261D01*
X6576261Y15610351D01*
X6497941Y15494407D01*
X6495292Y15490320D01*
X6414630Y15360437D01*
X6412611Y15357069D01*
X6332118Y15218044D01*
X6330404Y15214989D01*
X6252596Y15071623D01*
X6250994Y15068573D01*
X6178381Y14925662D01*
X6176731Y14922293D01*
X6111829Y14784636D01*
X6109968Y14780498D01*
X6055288Y14652895D01*
X6052992Y14647153D01*
X6011047Y14534400D01*
X6009500Y14529996D01*
X6006138Y14519830D01*
X6005669Y14518385D01*
X5990116Y14469398D01*
X5989145Y14466191D01*
X5975906Y14420331D01*
X5974588Y14415399D01*
X5963480Y14370172D01*
X5962154Y14364141D01*
X5952991Y14317058D01*
X5951947Y14310888D01*
X5944545Y14259455D01*
X5943880Y14253998D01*
X5938054Y14195723D01*
X5937696Y14191400D01*
X5933262Y14123793D01*
X5933095Y14120639D01*
X5929867Y14041206D01*
X5929797Y14039035D01*
X5927592Y13945285D01*
X5927567Y13943870D01*
X5926199Y13833310D01*
X5926191Y13832438D01*
X5925476Y13702578D01*
X5925474Y13702086D01*
X5925310Y13601700D01*
X3332336Y13601700D01*
X3478189Y13662114D01*
X3631328Y13764438D01*
X3761562Y13894672D01*
X3863886Y14047811D01*
X3934368Y14217971D01*
X3970300Y14398611D01*
X3970300Y14582789D01*
X3934368Y14763429D01*
X3863886Y14933589D01*
X3761562Y15086728D01*
X3631328Y15216962D01*
X3478189Y15319286D01*
X3308029Y15389768D01*
X3127389Y15425700D01*
X2943211Y15425700D01*
X2762571Y15389768D01*
X2635926Y15337310D01*
X2620705Y15365786D01*
X2510262Y15500362D01*
X2375686Y15610805D01*
X2222150Y15692872D01*
X2055554Y15743408D01*
X1882300Y15760472D01*
X632300Y15760472D01*
X459046Y15743408D01*
X292450Y15692872D01*
X138914Y15610805D01*
X4338Y15500362D01*
X-106105Y15365786D01*
X-188172Y15212250D01*
X-238708Y15045654D01*
X-255772Y14872400D01*
X-255772Y14122400D01*
X-238708Y13949146D01*
X-188172Y13782550D01*
X-106105Y13629014D01*
X-83689Y13601700D01*
X-2854109Y13601700D01*
X-2857405Y13693702D01*
X-2857531Y13696400D01*
X-2863018Y13792427D01*
X-2863306Y13796381D01*
X-2870432Y13876880D01*
X-2870962Y13881780D01*
X-2875367Y13916249D01*
X-2876522Y13923582D01*
X-2935421Y14237337D01*
X-2937656Y14247099D01*
X-3020294Y14552279D01*
X-3023320Y14561919D01*
X-3129268Y14857644D01*
X-3133074Y14867063D01*
X-3261904Y15152453D01*
X-3266462Y15161556D01*
X-3417747Y15435728D01*
X-3423010Y15444425D01*
X-3596320Y15706501D01*
X-3602232Y15714710D01*
X-3797141Y15963808D01*
X-3802656Y15970385D01*
X-3953979Y16138949D01*
X-3960131Y16145340D01*
X-4165290Y16344029D01*
X-4172855Y16350790D01*
X-4400058Y16538106D01*
X-4407611Y16543873D01*
X-4655836Y16719076D01*
X-4663309Y16723966D01*
X-4931533Y16886316D01*
X-4937684Y16889808D01*
X-5128339Y16991156D01*
X-5132638Y16993338D01*
X-5260233Y17055072D01*
X-5265053Y17057281D01*
X-5385292Y17109380D01*
X-5391674Y17111943D01*
X-5508092Y17155062D01*
X-5515749Y17157624D01*
X-5631875Y17192420D01*
X-5640184Y17194606D01*
X-5759551Y17221733D01*
X-5767696Y17223306D01*
X-5893836Y17243421D01*
X-5901095Y17244365D01*
X-6037538Y17258122D01*
X-6043481Y17258581D01*
X-6193760Y17266636D01*
X-6198277Y17266798D01*
X-6365923Y17269808D01*
X-6369133Y17269825D01*
X-6557679Y17268444D01*
X-6559087Y17268425D01*
X-6599988Y17267672D01*
X-6600654Y17267658D01*
X-6787190Y17263244D01*
X-6788554Y17263205D01*
X-6952537Y17257562D01*
X-6954661Y17257471D01*
X-7098932Y17250086D01*
X-7102022Y17249890D01*
X-7229417Y17240251D01*
X-7233648Y17239860D01*
X-7347006Y17227457D01*
X-7352460Y17226740D01*
X-7454619Y17211060D01*
X-7461163Y17209879D01*
X-7554962Y17190409D01*
X-7562170Y17188692D01*
X-7650447Y17164923D01*
X-7657655Y17162752D01*
X-7743247Y17134169D01*
X-7749720Y17131810D01*
X-7835467Y17097904D01*
X-7840677Y17095708D01*
X-7929416Y17055965D01*
X-7933147Y17054222D01*
X-8027716Y17008131D01*
X-8029116Y17007438D01*
X-8032641Y17005666D01*
X-8035114Y17004388D01*
X-8253376Y16888607D01*
X-8258967Y16885458D01*
X-8457380Y16766994D01*
X-8463631Y16763010D01*
X-8647720Y16637977D01*
X-8654030Y16633402D01*
X-8829319Y16497918D01*
X-8835066Y16493201D01*
X-9007077Y16343380D01*
X-9010825Y16339982D01*
X-9102878Y16253119D01*
X-9107319Y16248717D01*
X-9334430Y16012221D01*
X-9340810Y16005053D01*
X-9545590Y15756723D01*
X-9551577Y15748858D01*
X-9733856Y15489014D01*
X-9739321Y15480525D01*
X-9898933Y15209486D01*
X-9903761Y15200477D01*
X-10040535Y14918562D01*
X-10044633Y14909168D01*
X-10158402Y14616699D01*
X-10161710Y14607071D01*
X-10252306Y14304365D01*
X-10254798Y14294661D01*
X-10322051Y13982039D01*
X-10323135Y13976374D01*
X-10332407Y13921195D01*
X-10333229Y13915524D01*
X-10344047Y13826815D01*
X-10344666Y13820382D01*
X-10352284Y13712445D01*
X-10352513Y13708172D01*
X-10356971Y13586974D01*
X-10357050Y13583627D01*
X-10357079Y13580812D01*
X-21033008Y13580812D01*
X-21127970Y13796237D01*
X-21131674Y13803929D01*
X-21290768Y14107718D01*
X-21295128Y14115384D01*
X-21473154Y14404531D01*
X-21478095Y14411958D01*
X-21675742Y14687563D01*
X-21681138Y14694560D01*
X-21899097Y14957722D01*
X-21904783Y14964133D01*
X-22143746Y15215952D01*
X-22149541Y15221679D01*
X-22410196Y15463253D01*
X-22415926Y15468253D01*
X-22698964Y15700683D01*
X-22702459Y15703453D01*
X-22777847Y15761051D01*
X-22778557Y15761589D01*
X-22833554Y15803000D01*
X-22873090Y15833896D01*
X-22898747Y15856544D01*
X-22915148Y15874623D01*
X-22929165Y15895135D01*
X-22945717Y15926599D01*
X-22966946Y15974749D01*
X-22994480Y16042690D01*
X-23021380Y16110412D01*
X-23130028Y16412851D01*
X-23215913Y16715066D01*
X-23279582Y17017354D01*
X-23320881Y17318039D01*
X-23339658Y17615391D01*
X-23335787Y17907683D01*
X-23309013Y18194874D01*
X-23292517Y18303319D01*
X-23231776Y18588912D01*
X-23226387Y18606800D01*
X-9470272Y18606800D01*
X-9458012Y18482318D01*
X-9421702Y18362620D01*
X-9362737Y18252306D01*
X-9283385Y18155615D01*
X-9186694Y18076263D01*
X-9076380Y18017298D01*
X-8956682Y17980988D01*
X-8832200Y17968728D01*
X-8492950Y17971800D01*
X-8334200Y18130550D01*
X-8334200Y19354800D01*
X-8080200Y19354800D01*
X-8080200Y18130550D01*
X-7921450Y17971800D01*
X-7582200Y17968728D01*
X-7457718Y17980988D01*
X-7338020Y18017298D01*
X-7227706Y18076263D01*
X-7131015Y18155615D01*
X-7051663Y18252306D01*
X-6992698Y18362620D01*
X-6956388Y18482318D01*
X-6944128Y18606800D01*
X-6947200Y19196050D01*
X-7105950Y19354800D01*
X-8080200Y19354800D01*
X-8334200Y19354800D01*
X-9308450Y19354800D01*
X-9467200Y19196050D01*
X-9470272Y18606800D01*
X-23226387Y18606800D01*
X-23148363Y18865738D01*
X-23042567Y19134599D01*
X-22914996Y19394731D01*
X-22766249Y19645354D01*
X-22596935Y19885649D01*
X-22407647Y20114812D01*
X-22198991Y20332005D01*
X-21971587Y20536378D01*
X-21726038Y20727092D01*
X-21462988Y20903275D01*
X-21182309Y21064501D01*
X-21008440Y21152277D01*
X-20742315Y21270965D01*
X-20474265Y21371994D01*
X-20199478Y21456866D01*
X-19913614Y21526786D01*
X-19611982Y21582953D01*
X-19353150Y21619043D01*
X-19296236Y21624057D01*
X-19216793Y21628195D01*
X-19120180Y21631279D01*
X-19011954Y21633237D01*
X-18897094Y21634052D01*
X-18780912Y21633719D01*
X-18668070Y21632243D01*
X-18563566Y21629638D01*
X-18472840Y21625946D01*
X-18400846Y21621242D01*
X-18373280Y21618507D01*
X-18052460Y21571693D01*
X-17749382Y21508835D01*
X-17460132Y21428997D01*
X-17181087Y21331213D01*
X-16907417Y21213902D01*
X-16807470Y21165568D01*
X-16566536Y21037312D01*
X-16343270Y20901093D01*
X-16131781Y20752929D01*
X-15926791Y20588999D01*
X-15722733Y20405021D01*
X-15606399Y20291122D01*
X-15382311Y20065724D01*
X-15363112Y20049874D01*
X-15341190Y20038073D01*
X-15317386Y20030777D01*
X-15292617Y20028265D01*
X-15267834Y20030633D01*
X-15243988Y20037790D01*
X-15226067Y20046870D01*
X-15026096Y20168964D01*
X-14708231Y20356800D01*
X-9470272Y20356800D01*
X-9467200Y19767550D01*
X-9308450Y19608800D01*
X-8334200Y19608800D01*
X-8334200Y20833050D01*
X-8080200Y20833050D01*
X-8080200Y19608800D01*
X-7105950Y19608800D01*
X-6947200Y19767550D01*
X-6945432Y20106800D01*
X-6670272Y20106800D01*
X-6670272Y18856800D01*
X-6653208Y18683546D01*
X-6602672Y18516950D01*
X-6520605Y18363414D01*
X-6410162Y18228838D01*
X-6275586Y18118395D01*
X-6122050Y18036328D01*
X-5955454Y17985792D01*
X-5782200Y17968728D01*
X-5032200Y17968728D01*
X-4858946Y17985792D01*
X-4692350Y18036328D01*
X-4538814Y18118395D01*
X-4404238Y18228838D01*
X-4293795Y18363414D01*
X-4211728Y18516950D01*
X-4161192Y18683546D01*
X-4157424Y18721800D01*
X-1241901Y18721800D01*
X-250099Y17729998D01*
X-255772Y17672400D01*
X-255772Y16922400D01*
X-238708Y16749146D01*
X-188172Y16582550D01*
X-106105Y16429014D01*
X4338Y16294438D01*
X138914Y16183995D01*
X292450Y16101928D01*
X459046Y16051392D01*
X632300Y16034328D01*
X1882300Y16034328D01*
X2055554Y16051392D01*
X2222150Y16101928D01*
X2375686Y16183995D01*
X2510262Y16294438D01*
X2620705Y16429014D01*
X2702772Y16582550D01*
X2753308Y16749146D01*
X2770372Y16922400D01*
X2770372Y17672400D01*
X2753308Y17845654D01*
X2702772Y18012250D01*
X2620705Y18165786D01*
X2510262Y18300362D01*
X2375686Y18410805D01*
X2222150Y18492872D01*
X2055554Y18543408D01*
X1882300Y18560472D01*
X1069030Y18560472D01*
X1022702Y18606800D01*
X6976228Y18606800D01*
X6988488Y18482318D01*
X7024798Y18362620D01*
X7083763Y18252306D01*
X7163115Y18155615D01*
X7259806Y18076263D01*
X7370120Y18017298D01*
X7489818Y17980988D01*
X7614300Y17968728D01*
X7953550Y17971800D01*
X8112300Y18130550D01*
X8112300Y19354800D01*
X8366300Y19354800D01*
X8366300Y18130550D01*
X8525050Y17971800D01*
X8864300Y17968728D01*
X8988782Y17980988D01*
X9108480Y18017298D01*
X9218794Y18076263D01*
X9315485Y18155615D01*
X9394837Y18252306D01*
X9453802Y18362620D01*
X9490112Y18482318D01*
X9502372Y18606800D01*
X9499300Y19196050D01*
X9340550Y19354800D01*
X8366300Y19354800D01*
X8112300Y19354800D01*
X7138050Y19354800D01*
X6979300Y19196050D01*
X6976228Y18606800D01*
X1022702Y18606800D01*
X558616Y19070885D01*
X632300Y19063628D01*
X1882300Y19063628D01*
X2055554Y19080692D01*
X2222150Y19131228D01*
X2375686Y19213295D01*
X2510262Y19323738D01*
X2620705Y19458314D01*
X2642526Y19499137D01*
X2800671Y19433632D01*
X2981311Y19397700D01*
X3165489Y19397700D01*
X3346129Y19433632D01*
X3516289Y19504114D01*
X3669428Y19606438D01*
X3799662Y19736672D01*
X3901986Y19889811D01*
X3972468Y20059971D01*
X4008400Y20240611D01*
X4008400Y20356800D01*
X6976228Y20356800D01*
X6979300Y19767550D01*
X7138050Y19608800D01*
X8112300Y19608800D01*
X8112300Y20833050D01*
X7953550Y20991800D01*
X7614300Y20994872D01*
X7489818Y20982612D01*
X7370120Y20946302D01*
X7259806Y20887337D01*
X7163115Y20807985D01*
X7083763Y20711294D01*
X7024798Y20600980D01*
X6988488Y20481282D01*
X6976228Y20356800D01*
X4008400Y20356800D01*
X4008400Y20424789D01*
X3972468Y20605429D01*
X3901986Y20775589D01*
X3799662Y20928728D01*
X3669428Y21058962D01*
X3516289Y21161286D01*
X3346129Y21231768D01*
X3165489Y21267700D01*
X2981311Y21267700D01*
X2800671Y21231768D01*
X2637274Y21164087D01*
X2620705Y21195086D01*
X2510262Y21329662D01*
X2375686Y21440105D01*
X2222150Y21522172D01*
X2055554Y21572708D01*
X1882300Y21589772D01*
X632300Y21589772D01*
X459046Y21572708D01*
X292450Y21522172D01*
X138914Y21440105D01*
X4338Y21329662D01*
X-106105Y21195086D01*
X-188172Y21041550D01*
X-238708Y20874954D01*
X-255772Y20701700D01*
X-255772Y19951700D01*
X-248515Y19878016D01*
X-363296Y19992797D01*
X-387099Y20021801D01*
X-502824Y20116774D01*
X-634853Y20187346D01*
X-778114Y20230803D01*
X-889767Y20241800D01*
X-889778Y20241800D01*
X-927100Y20245476D01*
X-964422Y20241800D01*
X-4157424Y20241800D01*
X-4161192Y20280054D01*
X-4211728Y20446650D01*
X-4293795Y20600186D01*
X-4404238Y20734762D01*
X-4538814Y20845205D01*
X-4692350Y20927272D01*
X-4858946Y20977808D01*
X-5032200Y20994872D01*
X-5782200Y20994872D01*
X-5955454Y20977808D01*
X-6122050Y20927272D01*
X-6275586Y20845205D01*
X-6410162Y20734762D01*
X-6520605Y20600186D01*
X-6602672Y20446650D01*
X-6653208Y20280054D01*
X-6670272Y20106800D01*
X-6945432Y20106800D01*
X-6944128Y20356800D01*
X-6956388Y20481282D01*
X-6992698Y20600980D01*
X-7051663Y20711294D01*
X-7131015Y20807985D01*
X-7227706Y20887337D01*
X-7338020Y20946302D01*
X-7457718Y20982612D01*
X-7582200Y20994872D01*
X-7921450Y20991800D01*
X-8080200Y20833050D01*
X-8334200Y20833050D01*
X-8492950Y20991800D01*
X-8832200Y20994872D01*
X-8956682Y20982612D01*
X-9076380Y20946302D01*
X-9186694Y20887337D01*
X-9283385Y20807985D01*
X-9362737Y20711294D01*
X-9421702Y20600980D01*
X-9458012Y20481282D01*
X-9470272Y20356800D01*
X-14708231Y20356800D01*
X-14270810Y20615285D01*
X-13503057Y21039636D01*
X-12722365Y21442343D01*
X-11928739Y21823430D01*
X-11122450Y22182784D01*
X-10303545Y22520400D01*
X-9472321Y22836160D01*
X-8628817Y23130053D01*
X-7773280Y23401990D01*
X-7427213Y23501700D01*
X-255772Y23501700D01*
X-255772Y22751700D01*
X-238708Y22578446D01*
X-188172Y22411850D01*
X-106105Y22258314D01*
X4338Y22123738D01*
X138914Y22013295D01*
X292450Y21931228D01*
X459046Y21880692D01*
X632300Y21863628D01*
X1882300Y21863628D01*
X2055554Y21880692D01*
X2222150Y21931228D01*
X2307402Y21976796D01*
X2544800Y21739398D01*
X2568599Y21710399D01*
X2684324Y21615426D01*
X2816353Y21544854D01*
X2959614Y21501397D01*
X3071267Y21490400D01*
X3071276Y21490400D01*
X3108599Y21486724D01*
X3145922Y21490400D01*
X7955899Y21490400D01*
X8489774Y20956524D01*
X8366300Y20833050D01*
X8366300Y19608800D01*
X9340550Y19608800D01*
X9499300Y19767550D01*
X9500231Y19946068D01*
X9776228Y19670070D01*
X9776228Y18856800D01*
X9793292Y18683546D01*
X9843828Y18516950D01*
X9925895Y18363414D01*
X10036338Y18228838D01*
X10170914Y18118395D01*
X10324450Y18036328D01*
X10491046Y17985792D01*
X10664300Y17968728D01*
X11414300Y17968728D01*
X11587554Y17985792D01*
X11754150Y18036328D01*
X11907686Y18118395D01*
X12042262Y18228838D01*
X12152705Y18363414D01*
X12234772Y18516950D01*
X12285308Y18683546D01*
X12302372Y18856800D01*
X12302372Y20106800D01*
X12285308Y20280054D01*
X12234772Y20446650D01*
X12152705Y20600186D01*
X12042262Y20734762D01*
X11907686Y20845205D01*
X11754150Y20927272D01*
X11587554Y20977808D01*
X11414300Y20994872D01*
X10664300Y20994872D01*
X10606702Y20989199D01*
X8834504Y22761397D01*
X8810701Y22790401D01*
X8694976Y22885374D01*
X8562947Y22955946D01*
X8419686Y22999403D01*
X8308033Y23010400D01*
X8308022Y23010400D01*
X8270700Y23014076D01*
X8233378Y23010400D01*
X3423402Y23010400D01*
X2796103Y23637698D01*
X2772301Y23666701D01*
X2750346Y23684719D01*
X2702772Y23841550D01*
X2620705Y23995086D01*
X2510262Y24129662D01*
X2375686Y24240105D01*
X2222150Y24322172D01*
X2055554Y24372708D01*
X1882300Y24389772D01*
X632300Y24389772D01*
X459046Y24372708D01*
X292450Y24322172D01*
X138914Y24240105D01*
X4338Y24129662D01*
X-106105Y23995086D01*
X-188172Y23841550D01*
X-238708Y23674954D01*
X-255772Y23501700D01*
X-7427213Y23501700D01*
X-6905800Y23651931D01*
X-6026592Y23879801D01*
X-5135815Y24085541D01*
X-4233636Y24269089D01*
X-3319955Y24430432D01*
X-2628809Y24536593D01*
X-2268640Y24586114D01*
X-1890047Y24633842D01*
X-1500851Y24678921D01*
X-1108749Y24720520D01*
X-721096Y24757849D01*
X-345107Y24790128D01*
X-92350Y24809324D01*
X111392Y24823720D01*
X295749Y24836263D01*
X463339Y24846920D01*
X616713Y24855662D01*
X758914Y24862488D01*
X892601Y24867380D01*
X1020642Y24870331D01*
X1146069Y24871335D01*
X1271622Y24870374D01*
X1271622Y24870374D01*
G37*
X1271622Y24870374D02*
X1400454Y24867422D01*
X1535291Y24862455D01*
X1679103Y24855437D01*
X1834478Y24846352D01*
X2004808Y24835135D01*
X2192191Y24821809D01*
X2399559Y24806343D01*
X2612463Y24790047D01*
X3345082Y24729438D01*
X4053334Y24662455D01*
X4738023Y24588997D01*
X5400109Y24508939D01*
X6039800Y24422242D01*
X6658054Y24328775D01*
X7255299Y24228481D01*
X7832289Y24121252D01*
X8389594Y24007013D01*
X8928021Y23885639D01*
X9269084Y23802651D01*
X9360680Y23780133D01*
X9362693Y23779656D01*
X9435223Y23763073D01*
X9439058Y23762258D01*
X9497322Y23750817D01*
X9503455Y23749768D01*
X9552549Y23742604D01*
X9560338Y23741712D01*
X9605353Y23737960D01*
X9612576Y23737565D01*
X9658608Y23736359D01*
X9661665Y23736315D01*
X9666951Y23736304D01*
X9721279Y23735058D01*
X9792534Y23731593D01*
X9872624Y23726353D01*
X9952568Y23719861D01*
X9970649Y23718180D01*
X10240292Y23685189D01*
X10510521Y23637652D01*
X10784925Y23574724D01*
X11065450Y23495742D01*
X11354087Y23400014D01*
X11652836Y23286832D01*
X11963508Y23155550D01*
X12288377Y23005325D01*
X12465735Y22918396D01*
X12577351Y22862276D01*
X12686804Y22806346D01*
X12795998Y22749543D01*
X12907305Y22690559D01*
X13022530Y22628387D01*
X13144209Y22561626D01*
X13274143Y22489273D01*
X13414558Y22410091D01*
X13567610Y22322883D01*
X13735660Y22226334D01*
X13920246Y22119600D01*
X14123631Y22001425D01*
X14207151Y21952770D01*
X14207309Y21952678D01*
X14457284Y21807534D01*
X14457733Y21807274D01*
X14688021Y21674817D01*
X14688591Y21674492D01*
X14900954Y21553802D01*
X14901666Y21553400D01*
X15097865Y21443560D01*
X15098737Y21443076D01*
X15280534Y21343166D01*
X15281586Y21342595D01*
X15450743Y21251697D01*
X15451987Y21251037D01*
X15610266Y21168233D01*
X15611705Y21167492D01*
X15760868Y21091862D01*
X15762492Y21091053D01*
X15904301Y21021680D01*
X15906078Y21020828D01*
X16042293Y20956792D01*
X16044176Y20955925D01*
X16176561Y20896308D01*
X16178479Y20895463D01*
X16308795Y20839346D01*
X16310669Y20838557D01*
X16440678Y20785023D01*
X16441776Y20784577D01*
X16471776Y20772550D01*
X16474205Y20771605D01*
X16748975Y20667943D01*
X16754123Y20666126D01*
X17014709Y20580416D01*
X17020797Y20578581D01*
X17270287Y20510151D01*
X17277233Y20508455D01*
X17518717Y20456633D01*
X17526317Y20455242D01*
X17762882Y20419357D01*
X17770816Y20418408D01*
X18005551Y20397788D01*
X18013070Y20397352D01*
X18227256Y20391289D01*
X18232125Y20391244D01*
X18374535Y20392674D01*
X18378484Y20392775D01*
X18502629Y20397886D01*
X18508132Y20398233D01*
X18620979Y20407799D01*
X18627406Y20408509D01*
X18735922Y20423302D01*
X18742123Y20424304D01*
X18853276Y20445099D01*
X18858188Y20446119D01*
X18978945Y20473688D01*
X18980871Y20474143D01*
X18985684Y20475321D01*
X18991380Y20476857D01*
X19244798Y20551514D01*
X19255366Y20555139D01*
X19507464Y20654225D01*
X19517106Y20658485D01*
X19765997Y20781031D01*
X19774831Y20785824D01*
X20018628Y20930865D01*
X20026758Y20936132D01*
X20263577Y21102700D01*
X20268880Y21106639D01*
X20359996Y21178086D01*
X20428661Y21231286D01*
X20493470Y21276384D01*
X20561003Y21317599D01*
X20636671Y21357895D01*
X20725542Y21399790D01*
X20832285Y21445550D01*
X20936671Y21487654D01*
X21242114Y21596871D01*
X21541773Y21681093D01*
X21836973Y21740984D01*
X22127616Y21776689D01*
X22413672Y21788337D01*
X22695123Y21776026D01*
X22971964Y21739817D01*
X23244299Y21679702D01*
X23512112Y21595638D01*
X23776808Y21486951D01*
X23887867Y21433373D01*
X24098321Y21318833D01*
X24293624Y21194691D01*
X24480366Y21056448D01*
X24664867Y20899379D01*
X24787921Y20783380D01*
X25011924Y20547139D01*
X25217835Y20294630D01*
X25406078Y20025833D01*
X25576201Y19741640D01*
X25727748Y19442945D01*
X25860239Y19130676D01*
X25973198Y18805765D01*
X26066158Y18469105D01*
X26138636Y18121660D01*
X26190030Y17765511D01*
X26196500Y17689779D01*
X26201453Y17591608D01*
X26204702Y17477554D01*
X26206219Y17353191D01*
X26206010Y17224351D01*
X26204103Y17096359D01*
X26200540Y16974862D01*
X26195381Y16865229D01*
X26188724Y16773108D01*
X26184173Y16729585D01*
X26132501Y16397385D01*
X26060835Y16080846D01*
X25968968Y15778522D01*
X25856793Y15489829D01*
X25724168Y15214183D01*
X25569899Y14949275D01*
X25533153Y14892694D01*
X25371358Y14668475D01*
X25189537Y14452497D01*
X24990365Y14247180D01*
X24777811Y14056547D01*
X24554705Y13883603D01*
X24466254Y13822264D01*
X24309152Y13722884D01*
X24137114Y13624640D01*
X23956860Y13530952D01*
X23776000Y13445678D01*
X23601668Y13372366D01*
X23491490Y13331455D01*
X23489817Y13330821D01*
X23451214Y13315865D01*
X23426544Y13303043D01*
X23407548Y13290352D01*
X23388302Y13274559D01*
X23372507Y13255315D01*
X23360769Y13233359D01*
X23356473Y13221303D01*
X23352106Y13206772D01*
X23347312Y13182342D01*
X23348641Y13148284D01*
X23350003Y13140517D01*
X23350444Y13138133D01*
X23355548Y13111973D01*
X23363059Y13065522D01*
X23372767Y13000453D01*
X23383872Y12922352D01*
X23395796Y12835471D01*
X23407989Y12743895D01*
X23419854Y12652060D01*
X23430798Y12564417D01*
X23440333Y12484546D01*
X23447805Y12417468D01*
X23450101Y12395090D01*
X23461986Y12273210D01*
X23471891Y12165519D01*
X23479954Y12068432D01*
X23486389Y11977574D01*
X23491376Y11888994D01*
X23495115Y11798233D01*
X23497787Y11701004D01*
X23499558Y11593071D01*
X23500590Y11470622D01*
X23501055Y11329451D01*
X23501135Y11214254D01*
X23500938Y11051852D01*
X23500229Y10911678D01*
X23498820Y10788990D01*
X23496545Y10680522D01*
X23493223Y10581971D01*
X23488686Y10489511D01*
X23482727Y10398672D01*
X23475163Y10305638D01*
X23465762Y10206039D01*
X23454327Y10095980D01*
X23444268Y10003970D01*
X23374758Y9490970D01*
X23280871Y8984225D01*
X23162503Y8482457D01*
X23019718Y7985736D01*
X22852596Y7494187D01*
X22661189Y7007882D01*
X22445579Y6526977D01*
X22205803Y6051534D01*
X21941950Y5581728D01*
X21654049Y5117634D01*
X21342196Y4659433D01*
X21006418Y4207208D01*
X20646801Y3761126D01*
X20263397Y3321313D01*
X19856308Y2887945D01*
X19425528Y2461090D01*
X18971213Y2040976D01*
X18493375Y1627688D01*
X17991997Y1221303D01*
X17583488Y908374D01*
X17035344Y511596D01*
X16464557Y123661D01*
X15872170Y-254926D01*
X15259484Y-623482D01*
X14627762Y-981350D01*
X13978325Y-1327849D01*
X13312289Y-1662400D01*
X12631099Y-1984265D01*
X11935968Y-2292821D01*
X11228089Y-2587449D01*
X10508841Y-2867457D01*
X9779095Y-3132344D01*
X9403609Y-3261290D01*
X9164863Y-3341712D01*
X9142162Y-3351934D01*
X9121891Y-3366388D01*
X9104830Y-3384519D01*
X9091634Y-3405630D01*
X9082810Y-3428910D01*
X9078697Y-3453465D01*
X9079453Y-3478349D01*
X9085050Y-3502609D01*
X9095272Y-3525310D01*
X9109726Y-3545581D01*
X9127857Y-3562642D01*
X9148968Y-3575838D01*
X9162936Y-3581756D01*
X9388064Y-3661637D01*
X9891951Y-3853477D01*
X10384052Y-4066841D01*
X10865020Y-4301558D01*
X11334229Y-4556979D01*
X11790913Y-4832378D01*
X12234448Y-5127108D01*
X12664176Y-5440507D01*
X13079348Y-5771842D01*
X13479329Y-6120469D01*
X13863418Y-6485681D01*
X14230968Y-6866831D01*
X14581253Y-7263179D01*
X14913618Y-7674066D01*
X15227414Y-8098840D01*
X15521906Y-8536737D01*
X15796481Y-8987155D01*
X16050413Y-9449326D01*
X16283081Y-9922655D01*
X16493772Y-10406370D01*
X16682210Y-10900808D01*
X16734128Y-11050720D01*
X16874901Y-11498921D01*
X16994612Y-11949601D01*
X17094214Y-12406882D01*
X17174362Y-12874012D01*
X17235777Y-13354877D01*
X17262142Y-13630914D01*
X17266667Y-13700581D01*
X17270501Y-13792646D01*
X17273582Y-13903107D01*
X17275866Y-14027103D01*
X17277347Y-14160717D01*
X17278025Y-14300055D01*
X17277891Y-14440529D01*
X17276951Y-14578308D01*
X17275202Y-14709523D01*
X17272658Y-14829565D01*
X17269327Y-14934584D01*
X17265246Y-15020162D01*
X17262169Y-15063874D01*
X17212809Y-15537290D01*
X17145925Y-15994320D01*
X17060824Y-16438427D01*
X16956847Y-16872643D01*
X16833276Y-17300183D01*
X16689145Y-17724881D01*
X16614859Y-17922351D01*
X16614400Y-17923589D01*
X16586528Y-18000084D01*
X16585190Y-18003947D01*
X16558176Y-18086230D01*
X16557043Y-18089868D01*
X16533812Y-18168514D01*
X16532455Y-18173472D01*
X16515936Y-18239056D01*
X16514896Y-18243525D01*
X16514180Y-18246873D01*
X16432034Y-18581167D01*
X16328623Y-18902294D01*
X16203176Y-19213056D01*
X16055438Y-19513982D01*
X15885119Y-19805571D01*
X15691904Y-20088291D01*
X15475478Y-20362547D01*
X15235358Y-20628903D01*
X14997131Y-20863646D01*
X14887476Y-20964554D01*
X14777012Y-21062993D01*
X14665009Y-21159327D01*
X14549642Y-21254912D01*
X14429337Y-21350890D01*
X14302239Y-21448621D01*
X14166562Y-21549401D01*
X14020840Y-21654284D01*
X13863121Y-21764679D01*
X13691917Y-21881664D01*
X13505470Y-22006509D01*
X13302187Y-22140371D01*
X13080434Y-22284442D01*
X12838492Y-22439963D01*
X12796673Y-22466709D01*
X12796512Y-22466813D01*
X12554774Y-22621934D01*
X12554303Y-22622237D01*
X12332843Y-22765729D01*
X12332239Y-22766123D01*
X12129409Y-22899186D01*
X12128651Y-22899688D01*
X11942807Y-23023519D01*
X11941877Y-23024144D01*
X11771370Y-23139941D01*
X11770253Y-23140709D01*
X11613438Y-23249671D01*
X11612128Y-23250593D01*
X11467358Y-23353917D01*
X11465861Y-23355002D01*
X11331490Y-23453888D01*
X11329831Y-23455130D01*
X11204213Y-23550774D01*
X11202432Y-23552155D01*
X11083920Y-23645756D01*
X11082080Y-23647237D01*
X10969027Y-23739993D01*
X10967199Y-23741522D01*
X10857960Y-23834632D01*
X10856224Y-23836139D01*
X10749152Y-23930800D01*
X10747580Y-23932213D01*
X10641028Y-24029623D01*
X10640115Y-24030466D01*
X10608332Y-24060098D01*
X10605232Y-24063088D01*
X10353489Y-24314279D01*
X10347728Y-24320422D01*
X10119545Y-24580500D01*
X10113941Y-24587355D01*
X9909399Y-24856173D01*
X9904075Y-24863726D01*
X9723253Y-25141134D01*
X9718335Y-25149339D01*
X9561311Y-25435191D01*
X9556923Y-25443965D01*
X9423776Y-25738113D01*
X9420028Y-25747340D01*
X9310839Y-26049635D01*
X9307814Y-26059169D01*
X9222660Y-26369464D01*
X9220407Y-26379145D01*
X9159369Y-26697292D01*
X9158335Y-26703514D01*
X9145334Y-26795848D01*
X9145221Y-26796668D01*
X9132648Y-26890384D01*
X9121132Y-26967096D01*
X9109224Y-27034516D01*
X9095352Y-27100836D01*
X9077862Y-27174097D01*
X9055109Y-27262012D01*
X9040880Y-27315228D01*
X9040235Y-27317744D01*
X8997793Y-27490568D01*
X8996325Y-27497334D01*
X8965906Y-27658726D01*
X8964681Y-27666564D01*
X8944766Y-27826578D01*
X8944060Y-27834052D01*
X8933130Y-28002746D01*
X8932944Y-28006459D01*
X8931858Y-28037102D01*
X8931793Y-28039674D01*
X8929755Y-28174015D01*
X8929797Y-28179744D01*
X8933270Y-28295682D01*
X8933744Y-28303480D01*
X8943288Y-28407527D01*
X8944431Y-28416475D01*
X8960609Y-28515141D01*
X8962143Y-28522958D01*
X8981298Y-28606552D01*
X8983801Y-28615841D01*
X9033798Y-28776884D01*
X9038545Y-28789697D01*
X9104122Y-28941130D01*
X9110592Y-28954011D01*
X9192510Y-29096347D01*
X9200510Y-29108565D01*
X9299530Y-29242317D01*
X9308603Y-29253239D01*
X9425487Y-29378921D01*
X9435033Y-29388164D01*
X9570541Y-29506291D01*
X9579980Y-29513762D01*
X9734874Y-29624847D01*
X9743762Y-29630674D01*
X9918803Y-29735230D01*
X9926870Y-29739661D01*
X10122819Y-29838203D01*
X10129951Y-29841517D01*
X10347570Y-29934559D01*
X10353761Y-29937016D01*
X10593810Y-30025070D01*
X10599113Y-30026883D01*
X10862354Y-30110464D01*
X10866857Y-30111803D01*
X11154051Y-30191425D01*
X11157234Y-30192263D01*
X11356988Y-30242107D01*
X11358694Y-30242520D01*
X11408551Y-30254231D01*
X11409126Y-30254365D01*
X11480549Y-30270792D01*
X11480848Y-30270860D01*
X11570595Y-30291273D01*
X11570790Y-30291317D01*
X11675617Y-30314987D01*
X11675765Y-30315021D01*
X11792429Y-30341217D01*
X11792553Y-30341244D01*
X11917812Y-30369238D01*
X11917930Y-30369265D01*
X12048540Y-30398325D01*
X12048656Y-30398351D01*
X12181374Y-30427749D01*
X12181446Y-30427764D01*
X12205025Y-30432973D01*
X12392343Y-30474462D01*
X12557584Y-30511376D01*
X12702854Y-30544238D01*
X12831620Y-30573876D01*
X12946206Y-30600859D01*
X13049404Y-30625862D01*
X13143846Y-30649520D01*
X13232381Y-30672523D01*
X13318083Y-30695623D01*
X13403428Y-30719419D01*
X13491127Y-30744571D01*
X13507429Y-30749310D01*
X13803891Y-30841528D01*
X14075487Y-30938312D01*
X14324920Y-31040653D01*
X14553967Y-31149236D01*
X14764528Y-31264794D01*
X14959370Y-31388634D01*
X15061849Y-31461670D01*
X15128148Y-31514634D01*
X15204811Y-31582235D01*
X15287075Y-31659922D01*
X15369593Y-31742454D01*
X15447291Y-31824712D01*
X15515035Y-31901393D01*
X15568438Y-31967871D01*
X15579627Y-31983257D01*
X15707837Y-32184325D01*
X15814150Y-32391620D01*
X15900493Y-32608951D01*
X15967654Y-32838671D01*
X16016385Y-33083803D01*
X16040423Y-33272943D01*
X16049304Y-33376128D01*
X16052963Y-33453531D01*
X16052694Y-33465554D01*
X16016075Y-33473877D01*
X15953211Y-33487881D01*
X15937571Y-33491326D01*
X15539669Y-33572473D01*
X15124712Y-33644799D01*
X14690710Y-33708604D01*
X14236533Y-33764009D01*
X13761042Y-33811136D01*
X13263151Y-33850101D01*
X12819967Y-33876975D01*
X12642454Y-33885981D01*
X12469832Y-33893839D01*
X12299791Y-33900581D01*
X12128842Y-33906288D01*
X11954157Y-33911017D01*
X11772309Y-33914842D01*
X11580408Y-33917820D01*
X11375286Y-33920016D01*
X11154147Y-33921492D01*
X10913797Y-33922310D01*
X10650758Y-33922536D01*
X10642662Y-33922534D01*
X10492300Y-33922460D01*
X10350850Y-33922292D01*
X10216553Y-33921997D01*
X10088152Y-33921546D01*
X9964042Y-33920907D01*
X9842259Y-33920047D01*
X9721325Y-33918933D01*
X9599722Y-33917538D01*
X9476187Y-33915830D01*
X9348258Y-33913769D01*
X9215182Y-33911337D01*
X9074874Y-33908490D01*
X8926168Y-33905207D01*
X8766917Y-33901445D01*
X8595744Y-33897176D01*
X8411281Y-33892375D01*
X8211762Y-33887005D01*
X7995468Y-33881031D01*
X7761032Y-33874428D01*
X7761032Y-33874429D01*
X7506809Y-33867164D01*
X7231097Y-33859202D01*
X6932432Y-33850515D01*
X6772805Y-33845856D01*
X6772802Y-33845856D01*
X6606945Y-33841019D01*
X6606933Y-33841019D01*
X6432641Y-33835953D01*
X6432630Y-33835952D01*
X6254223Y-33830782D01*
X6254213Y-33830782D01*
X6076010Y-33825631D01*
X6076000Y-33825631D01*
X5902323Y-33820625D01*
X5902312Y-33820624D01*
X5737480Y-33815887D01*
X5737467Y-33815887D01*
X5585800Y-33811544D01*
X5585784Y-33811544D01*
X5451603Y-33807719D01*
X5451581Y-33807718D01*
X5356647Y-33805028D01*
X5356125Y-33805014D01*
X5259894Y-33802683D01*
X5259206Y-33802668D01*
X5140461Y-33800436D01*
X5140007Y-33800429D01*
X5001633Y-33798323D01*
X5001302Y-33798318D01*
X4846182Y-33796361D01*
X4845918Y-33796358D01*
X4676938Y-33794577D01*
X4676716Y-33794575D01*
X4496762Y-33792994D01*
X4496560Y-33792992D01*
X4308515Y-33791638D01*
X4308325Y-33791637D01*
X4115076Y-33790535D01*
X4114888Y-33790534D01*
X3919319Y-33789709D01*
X3919124Y-33789708D01*
X3724120Y-33789185D01*
X3723911Y-33789185D01*
X3537082Y-33788991D01*
X3536904Y-33788991D01*
X3289343Y-33789080D01*
X3289170Y-33789080D01*
X3064604Y-33789467D01*
X3064368Y-33789468D01*
X2860393Y-33790199D01*
X2860080Y-33790200D01*
X2674292Y-33791324D01*
X2673890Y-33791327D01*
X2503884Y-33792893D01*
X2503389Y-33792899D01*
X2346763Y-33794953D01*
X2346168Y-33794962D01*
X2200516Y-33797554D01*
X2199833Y-33797568D01*
X2062751Y-33800745D01*
X2061999Y-33800765D01*
X1931085Y-33804576D01*
X1930296Y-33804601D01*
X1803144Y-33809093D01*
X1802360Y-33809123D01*
X1676568Y-33814345D01*
X1675836Y-33814378D01*
X1548997Y-33820377D01*
X1548353Y-33820409D01*
X1418066Y-33827234D01*
X1417575Y-33827261D01*
X1302940Y-33833711D01*
X1215170Y-33838251D01*
X1146222Y-33840217D01*
X1086659Y-33839557D01*
X1026076Y-33836081D01*
X954278Y-33829328D01*
X885846Y-33821629D01*
X885846Y-33821630D01*
X731458Y-33804201D01*
X730278Y-33804073D01*
X582298Y-33788767D01*
X580887Y-33788629D01*
X436590Y-33775330D01*
X435015Y-33775195D01*
X291631Y-33763779D01*
X289975Y-33763658D01*
X144730Y-33754002D01*
X143091Y-33753903D01*
X-6787Y-33745884D01*
X-8325Y-33745811D01*
X-165607Y-33739307D01*
X-166978Y-33739258D01*
X-334437Y-33734145D01*
X-335608Y-33734115D01*
X-516015Y-33730271D01*
X-516972Y-33730254D01*
X-713100Y-33727555D01*
X-713856Y-33727547D01*
X-928477Y-33725870D01*
X-929051Y-33725867D01*
X-1164937Y-33725090D01*
X-1165263Y-33725089D01*
X-1288958Y-33724999D01*
X-1289110Y-33724999D01*
X-1439529Y-33725070D01*
X-1439697Y-33725070D01*
X-1580960Y-33725324D01*
X-1581204Y-33725325D01*
X-1714990Y-33725822D01*
X-1715311Y-33725823D01*
X-1843301Y-33726622D01*
X-1843695Y-33726626D01*
X-1967566Y-33727784D01*
X-1968028Y-33727789D01*
X-2089462Y-33729366D01*
X-2089973Y-33729373D01*
X-2210647Y-33731426D01*
X-2211190Y-33731437D01*
X-2332786Y-33734026D01*
X-2333336Y-33734039D01*
X-2457531Y-33737221D01*
X-2458067Y-33737236D01*
X-2586543Y-33741071D01*
X-2587046Y-33741087D01*
X-2721480Y-33745633D01*
X-2721937Y-33745649D01*
X-2864010Y-33750965D01*
X-2864410Y-33750980D01*
X-3015800Y-33757123D01*
X-3016144Y-33757138D01*
X-3178532Y-33764168D01*
X-3178818Y-33764181D01*
X-3353883Y-33772156D01*
X-3354117Y-33772166D01*
X-3543538Y-33781144D01*
X-3543724Y-33781153D01*
X-3749181Y-33791194D01*
X-3749325Y-33791202D01*
X-3972497Y-33802363D01*
X-3972607Y-33802368D01*
X-4215174Y-33814709D01*
X-4215253Y-33814713D01*
X-4478893Y-33828291D01*
X-4478948Y-33828294D01*
X-4765342Y-33843169D01*
X-4765371Y-33843170D01*
X-4934216Y-33851978D01*
X-5229181Y-33867264D01*
X-5501026Y-33881095D01*
X-5751942Y-33893573D01*
X-5984753Y-33904832D01*
X-5984753Y-33904833D01*
X-6201013Y-33914943D01*
X-6403650Y-33924041D01*
X-6594880Y-33932231D01*
X-6776813Y-33939614D01*
X-6952042Y-33946305D01*
X-6976543Y-33947207D01*
X-7088308Y-33950770D01*
X-7218387Y-33954012D01*
X-7364019Y-33956924D01*
X-7521240Y-33959470D01*
X-7687546Y-33961643D01*
X-7859132Y-33963415D01*
X-8033002Y-33964769D01*
X-8205506Y-33965683D01*
X-8374135Y-33966141D01*
X-8534671Y-33966120D01*
X-8684269Y-33965604D01*
X-8819535Y-33964573D01*
X-8937326Y-33963012D01*
X-9034116Y-33960908D01*
X-9069269Y-33959803D01*
X-9489799Y-33940770D01*
X-9886508Y-33914336D01*
X-10260731Y-33880351D01*
X-10613645Y-33838669D01*
X-10946353Y-33789162D01*
X-11259982Y-33731698D01*
X-11555577Y-33666174D01*
X-11834393Y-33592445D01*
X-12098929Y-33509966D01*
X-12105503Y-33507742D01*
X-12263256Y-33450335D01*
X-12426426Y-33383824D01*
X-12589975Y-33310633D01*
X-12747376Y-33233816D01*
X-12892220Y-33156449D01*
X-13019359Y-33080973D01*
X-13035816Y-33070447D01*
X-13099955Y-33028965D01*
X-13088110Y-32951802D01*
X-13067744Y-32849429D01*
X-13041964Y-32738637D01*
X-13012810Y-32628306D01*
X-12982095Y-32526193D01*
X-12980420Y-32521059D01*
X-12893866Y-32293052D01*
X-12790025Y-32081757D01*
X-12667646Y-31884118D01*
X-12580250Y-31770000D01*
X-2559272Y-31770000D01*
X-2547012Y-31894482D01*
X-2510702Y-32014180D01*
X-2451737Y-32124494D01*
X-2372385Y-32221185D01*
X-2275694Y-32300537D01*
X-2165380Y-32359502D01*
X-2045682Y-32395812D01*
X-1921200Y-32408072D01*
X-1343350Y-32405000D01*
X-1184600Y-32246250D01*
X-1184600Y-31033400D01*
X-2397450Y-31033400D01*
X-2556200Y-31192150D01*
X-2559272Y-31770000D01*
X-12580250Y-31770000D01*
X-12526305Y-31699561D01*
X-12365459Y-31527567D01*
X-12184495Y-31367715D01*
X-11982811Y-31219723D01*
X-11759864Y-31083430D01*
X-11515136Y-30958714D01*
X-11248203Y-30845512D01*
X-10958756Y-30743790D01*
X-10645337Y-30653147D01*
X-10573877Y-30634894D01*
X-10443313Y-30603227D01*
X-10313587Y-30573748D01*
X-10182315Y-30546072D01*
X-10047006Y-30519803D01*
X-9905383Y-30494592D01*
X-9754953Y-30470058D01*
X-9593613Y-30445886D01*
X-9418795Y-30421691D01*
X-9228570Y-30397177D01*
X-9020212Y-30371941D01*
X-8791925Y-30345697D01*
X-8541015Y-30318048D01*
X-8444612Y-30307674D01*
X-8444541Y-30307666D01*
X-8222311Y-30283625D01*
X-8221944Y-30283585D01*
X-8022793Y-30261455D01*
X-8022294Y-30261399D01*
X-7843999Y-30240872D01*
X-7843339Y-30240794D01*
X-7683675Y-30221565D01*
X-7682824Y-30221459D01*
X-7539569Y-30203224D01*
X-7538495Y-30203083D01*
X-7409423Y-30185534D01*
X-7408112Y-30185349D01*
X-7291001Y-30168181D01*
X-7289457Y-30167945D01*
X-7182082Y-30150853D01*
X-7180342Y-30150563D01*
X-7080480Y-30133241D01*
X-7078622Y-30132905D01*
X-6984048Y-30115048D01*
X-6982186Y-30114682D01*
X-6890678Y-30095984D01*
X-6889519Y-30095741D01*
X-6862196Y-30089892D01*
X-6858950Y-30089153D01*
X-6638758Y-30035946D01*
X-6631766Y-30034044D01*
X-6435494Y-29974583D01*
X-6426950Y-29971659D01*
X-6253774Y-29905429D01*
X-6243521Y-29900981D01*
X-6092616Y-29827468D01*
X-6080685Y-29820841D01*
X-5951227Y-29739528D01*
X-5938042Y-29730017D01*
X-5829209Y-29640390D01*
X-5815747Y-29627537D01*
X-5726714Y-29529081D01*
X-5714422Y-29513103D01*
X-5644365Y-29405302D01*
X-5634799Y-29387675D01*
X-5584403Y-29274277D01*
X-5579817Y-29262384D01*
X-5568212Y-29227104D01*
X-5565388Y-29217174D01*
X-5557246Y-29183388D01*
X-5554923Y-29171136D01*
X-5549643Y-29133188D01*
X-5548684Y-29123695D01*
X-5545666Y-29075932D01*
X-5545442Y-29070648D01*
X-5544085Y-29007413D01*
X-5544057Y-29005288D01*
X-5543767Y-28943900D01*
X-5543768Y-28942672D01*
X-5544165Y-28862380D01*
X-5544223Y-28859110D01*
X-5546131Y-28796982D01*
X-5546494Y-28790519D01*
X-5550684Y-28739330D01*
X-5551715Y-28730527D01*
X-5558962Y-28683051D01*
X-5560402Y-28675258D01*
X-5571477Y-28624270D01*
X-5572412Y-28620277D01*
X-5583588Y-28575800D01*
X-5585324Y-28569567D01*
X-5640990Y-28387770D01*
X-5644095Y-28378833D01*
X-5648940Y-28366400D01*
X-2563451Y-28366400D01*
X-2534516Y-28660177D01*
X-2448825Y-28942664D01*
X-2309669Y-29203006D01*
X-2122397Y-29431197D01*
X-2114335Y-29437814D01*
X-2165380Y-29453298D01*
X-2275694Y-29512263D01*
X-2372385Y-29591615D01*
X-2451737Y-29688306D01*
X-2510702Y-29798620D01*
X-2547012Y-29918318D01*
X-2559272Y-30042800D01*
X-2556200Y-30620650D01*
X-2397450Y-30779400D01*
X-1184600Y-30779400D01*
X-1184600Y-30759400D01*
X-930600Y-30759400D01*
X-930600Y-30779400D01*
X-910600Y-30779400D01*
X-910600Y-31033400D01*
X-930600Y-31033400D01*
X-930600Y-32246250D01*
X-771850Y-32405000D01*
X-194000Y-32408072D01*
X-69518Y-32395812D01*
X50180Y-32359502D01*
X160494Y-32300537D01*
X257185Y-32221185D01*
X336537Y-32124494D01*
X395502Y-32014180D01*
X410986Y-31963135D01*
X417603Y-31971197D01*
X645794Y-32158469D01*
X906136Y-32297625D01*
X1188623Y-32383316D01*
X1408781Y-32405000D01*
X1556019Y-32405000D01*
X1776177Y-32383316D01*
X2058664Y-32297625D01*
X2319006Y-32158469D01*
X2547197Y-31971197D01*
X2734469Y-31743006D01*
X2754283Y-31705937D01*
X2858361Y-31861702D01*
X3067098Y-32070439D01*
X3312547Y-32234442D01*
X3585275Y-32347410D01*
X3874801Y-32405000D01*
X4169999Y-32405000D01*
X4459525Y-32347410D01*
X4732253Y-32234442D01*
X4977702Y-32070439D01*
X5186439Y-31861702D01*
X5350442Y-31616253D01*
X5463410Y-31343525D01*
X5521000Y-31053999D01*
X5521000Y-30758801D01*
X5463410Y-30469275D01*
X5350442Y-30196547D01*
X5186439Y-29951098D01*
X4977702Y-29742361D01*
X4819119Y-29636400D01*
X4977702Y-29530439D01*
X5186439Y-29321702D01*
X5350442Y-29076253D01*
X5463410Y-28803525D01*
X5521000Y-28513999D01*
X5521000Y-28218801D01*
X5463410Y-27929275D01*
X5350442Y-27656547D01*
X5186439Y-27411098D01*
X4977702Y-27202361D01*
X4732253Y-27038358D01*
X4459525Y-26925390D01*
X4169999Y-26867800D01*
X3874801Y-26867800D01*
X3585275Y-26925390D01*
X3312547Y-27038358D01*
X3067098Y-27202361D01*
X2858361Y-27411098D01*
X2754283Y-27566863D01*
X2734469Y-27529794D01*
X2547197Y-27301603D01*
X2319006Y-27114331D01*
X2058664Y-26975175D01*
X1776177Y-26889484D01*
X1556019Y-26867800D01*
X1408781Y-26867800D01*
X1188623Y-26889484D01*
X906136Y-26975175D01*
X645794Y-27114331D01*
X417603Y-27301603D01*
X230331Y-27529794D01*
X212400Y-27563340D01*
X194469Y-27529794D01*
X7197Y-27301603D01*
X-220994Y-27114331D01*
X-481336Y-26975175D01*
X-763823Y-26889484D01*
X-983981Y-26867800D01*
X-1131219Y-26867800D01*
X-1351377Y-26889484D01*
X-1633864Y-26975175D01*
X-1894206Y-27114331D01*
X-2122397Y-27301603D01*
X-2309669Y-27529794D01*
X-2448825Y-27790136D01*
X-2534516Y-28072623D01*
X-2563451Y-28366400D01*
X-5648940Y-28366400D01*
X-5719878Y-28184399D01*
X-5722962Y-28177159D01*
X-5818035Y-27971821D01*
X-5821034Y-27965771D01*
X-5934570Y-27751260D01*
X-5937484Y-27746054D01*
X-6068657Y-27524105D01*
X-6070679Y-27520799D01*
X-6130341Y-27426538D01*
X-6130932Y-27425613D01*
X-6202031Y-27315402D01*
X-6218569Y-27186232D01*
X-6219074Y-27182686D01*
X-6273120Y-26838022D01*
X-6274538Y-26830479D01*
X-6346819Y-26501040D01*
X-6348864Y-26492985D01*
X-6440054Y-26177565D01*
X-6442798Y-26169179D01*
X-6553573Y-25866575D01*
X-6557032Y-25858088D01*
X-6688067Y-25567093D01*
X-6692195Y-25558755D01*
X-6844166Y-25278164D01*
X-6848851Y-25270217D01*
X-7022433Y-24998827D01*
X-7027510Y-24991473D01*
X-7223379Y-24728077D01*
X-7228657Y-24721453D01*
X-7447488Y-24464847D01*
X-7452776Y-24459022D01*
X-7695244Y-24208001D01*
X-7700376Y-24202980D01*
X-7967158Y-23956339D01*
X-7970582Y-23953287D01*
X-8083311Y-23856380D01*
X-8084936Y-23855006D01*
X-8177378Y-23778195D01*
X-8178814Y-23777020D01*
X-8273932Y-23700306D01*
X-8275411Y-23699130D01*
X-8375004Y-23621224D01*
X-8376453Y-23620108D01*
X-8482321Y-23539723D01*
X-8483670Y-23538713D01*
X-8597609Y-23454560D01*
X-8598817Y-23453679D01*
X-8722627Y-23364469D01*
X-8723670Y-23363724D01*
X-8859148Y-23268169D01*
X-8860024Y-23267557D01*
X-9008969Y-23164369D01*
X-9009684Y-23163877D01*
X-9173894Y-23051767D01*
X-9174465Y-23051380D01*
X-9355738Y-22929059D01*
X-9356185Y-22928759D01*
X-9556320Y-22794940D01*
X-9556585Y-22794763D01*
X-9664224Y-22723182D01*
X-9908072Y-22560654D01*
X-10131735Y-22410176D01*
X-10336619Y-22270656D01*
X-10524486Y-22140754D01*
X-10696958Y-22019233D01*
X-10855584Y-21904906D01*
X-11001942Y-21796568D01*
X-11137590Y-21693034D01*
X-11264292Y-21592964D01*
X-11383664Y-21495125D01*
X-11497268Y-21398329D01*
X-11606972Y-21301119D01*
X-11714290Y-21202336D01*
X-11820915Y-21100659D01*
X-11928790Y-20994505D01*
X-11976956Y-20946159D01*
X-12081393Y-20839691D01*
X-12170241Y-20746460D01*
X-12247455Y-20661914D01*
X-12317009Y-20581484D01*
X-12383129Y-20500266D01*
X-12449981Y-20413330D01*
X-12521593Y-20315843D01*
X-12553523Y-20271327D01*
X-12838029Y-19851783D01*
X-13098347Y-19425121D01*
X-13335126Y-18990549D01*
X-13548250Y-18548401D01*
X-13737613Y-18098985D01*
X-13903116Y-17642578D01*
X-14044641Y-17179495D01*
X-14162063Y-16710053D01*
X-14255330Y-16234222D01*
X-14297177Y-15951700D01*
X-1995672Y-15951700D01*
X-1995672Y-18551700D01*
X-1983412Y-18676182D01*
X-1947102Y-18795880D01*
X-1888137Y-18906194D01*
X-1808785Y-19002885D01*
X-1712094Y-19082237D01*
X-1601780Y-19141202D01*
X-1482082Y-19177512D01*
X-1357600Y-19189772D01*
X599114Y-19189772D01*
X581114Y-19216711D01*
X510632Y-19386871D01*
X474700Y-19567511D01*
X474700Y-19751689D01*
X510632Y-19932329D01*
X581114Y-20102489D01*
X683438Y-20255628D01*
X813672Y-20385862D01*
X966811Y-20488186D01*
X1136971Y-20558668D01*
X1317611Y-20594600D01*
X1501789Y-20594600D01*
X1682429Y-20558668D01*
X1852589Y-20488186D01*
X2005728Y-20385862D01*
X2135962Y-20255628D01*
X2238286Y-20102489D01*
X2308768Y-19932329D01*
X2344700Y-19751689D01*
X2344700Y-19567511D01*
X2308768Y-19386871D01*
X2238286Y-19216711D01*
X2220286Y-19189772D01*
X4202400Y-19189772D01*
X4326882Y-19177512D01*
X4446580Y-19141202D01*
X4556894Y-19082237D01*
X4653585Y-19002885D01*
X4732937Y-18906194D01*
X4791902Y-18795880D01*
X4828212Y-18676182D01*
X4840472Y-18551700D01*
X4840472Y-15951700D01*
X4828212Y-15827218D01*
X4791902Y-15707520D01*
X4732937Y-15597206D01*
X4653585Y-15500515D01*
X4556894Y-15421163D01*
X4446580Y-15362198D01*
X4326882Y-15325888D01*
X4202400Y-15313628D01*
X-1357600Y-15313628D01*
X-1482082Y-15325888D01*
X-1601780Y-15362198D01*
X-1712094Y-15421163D01*
X-1808785Y-15500515D01*
X-1888137Y-15597206D01*
X-1947102Y-15707520D01*
X-1983412Y-15827218D01*
X-1995672Y-15951700D01*
X-14297177Y-15951700D01*
X-14312943Y-15845266D01*
X-14329964Y-15706906D01*
X-14344091Y-15580920D01*
X-14355498Y-15463542D01*
X-14364457Y-15350217D01*
X-14371273Y-15235943D01*
X-14376213Y-15115876D01*
X-14379524Y-14985363D01*
X-14381453Y-14839597D01*
X-14382249Y-14673792D01*
X-14382305Y-14617881D01*
X-14382079Y-14459573D01*
X-14381171Y-14322911D01*
X-14379362Y-14202833D01*
X-14376454Y-14095389D01*
X-14372227Y-13995639D01*
X-14366461Y-13898947D01*
X-14358929Y-13800709D01*
X-14349360Y-13696027D01*
X-14337516Y-13580415D01*
X-14325577Y-13471087D01*
X-14257860Y-12974074D01*
X-14165722Y-12477560D01*
X-14049398Y-11981298D01*
X-13909331Y-11486482D01*
X-13745965Y-10994305D01*
X-13559736Y-10505917D01*
X-13351110Y-10022546D01*
X-13120514Y-9545312D01*
X-13013959Y-9346700D01*
X-1995672Y-9346700D01*
X-1983412Y-9471182D01*
X-1947102Y-9590880D01*
X-1888137Y-9701194D01*
X-1808785Y-9797885D01*
X-1712094Y-9877237D01*
X-1601780Y-9936202D01*
X-1482082Y-9972512D01*
X-1357600Y-9984772D01*
X1136650Y-9981700D01*
X1295400Y-9822950D01*
X1295400Y-5473700D01*
X1549400Y-5473700D01*
X1549400Y-9822950D01*
X1708150Y-9981700D01*
X4202400Y-9984772D01*
X4326882Y-9972512D01*
X4446580Y-9936202D01*
X4556894Y-9877237D01*
X4653585Y-9797885D01*
X4732937Y-9701194D01*
X4791902Y-9590880D01*
X4828212Y-9471182D01*
X4840472Y-9346700D01*
X4837400Y-5632450D01*
X4678650Y-5473700D01*
X1549400Y-5473700D01*
X1295400Y-5473700D01*
X-1833850Y-5473700D01*
X-1992600Y-5632450D01*
X-1995672Y-9346700D01*
X-13013959Y-9346700D01*
X-12868423Y-9075432D01*
X-12595287Y-8614079D01*
X-12301082Y-8161677D01*
X-12193352Y-8005915D01*
X-11847039Y-7534750D01*
X-11482734Y-7081073D01*
X-11100431Y-6644685D01*
X-10700529Y-6225960D01*
X-10283514Y-5825377D01*
X-9849867Y-5443400D01*
X-9400004Y-5080436D01*
X-8933960Y-4736622D01*
X-8635391Y-4532186D01*
X-8415681Y-4389539D01*
X-8186268Y-4247073D01*
X-7953817Y-4108734D01*
X-7724804Y-3978340D01*
X-7505379Y-3859512D01*
X-7412362Y-3811269D01*
X-7411754Y-3810951D01*
X-7363159Y-3785413D01*
X-7360137Y-3783773D01*
X-7321333Y-3762020D01*
X-7315946Y-3758823D01*
X-7291679Y-3743600D01*
X-7272520Y-3728866D01*
X-7266711Y-3723445D01*
X-7250262Y-3704757D01*
X-7237774Y-3683218D01*
X-7229729Y-3659658D01*
X-7226435Y-3634980D01*
X-7228018Y-3610134D01*
X-7234418Y-3586075D01*
X-7245389Y-3563726D01*
X-7266576Y-3537872D01*
X-7276816Y-3528288D01*
X-7287651Y-3519223D01*
X-7316801Y-3497473D01*
X-7319395Y-3495588D01*
X-7365034Y-3463296D01*
X-7366245Y-3462449D01*
X-7425949Y-3421239D01*
X-7426692Y-3420730D01*
X-7498042Y-3372225D01*
X-7498578Y-3371863D01*
X-7579152Y-3317686D01*
X-7579591Y-3317392D01*
X-7666966Y-3259168D01*
X-7667361Y-3258906D01*
X-7759116Y-3198257D01*
X-7759506Y-3198000D01*
X-7853220Y-3136550D01*
X-7853635Y-3136279D01*
X-7946886Y-3075652D01*
X-7947360Y-3075346D01*
X-8037726Y-3017164D01*
X-8038185Y-3016869D01*
X-8091458Y-2982892D01*
X-8091888Y-2982619D01*
X-8230207Y-2895179D01*
X-8230705Y-2894866D01*
X-8368199Y-2808836D01*
X-8368741Y-2808499D01*
X-8506938Y-2722992D01*
X-8507505Y-2722643D01*
X-8647930Y-2636772D01*
X-8648504Y-2636423D01*
X-8792686Y-2549299D01*
X-8793250Y-2548960D01*
X-8942716Y-2459698D01*
X-8943254Y-2459379D01*
X-9099531Y-2367090D01*
X-9100030Y-2366797D01*
X-9264645Y-2270594D01*
X-9265098Y-2270330D01*
X-9439578Y-2169325D01*
X-9439981Y-2169093D01*
X-9625854Y-2062400D01*
X-9626205Y-2062199D01*
X-9824998Y-1948929D01*
X-9825298Y-1948759D01*
X-10038538Y-1828025D01*
X-10038792Y-1827881D01*
X-10268005Y-1698796D01*
X-10268215Y-1698678D01*
X-10514930Y-1560354D01*
X-10515103Y-1560257D01*
X-10780847Y-1411808D01*
X-10780986Y-1411731D01*
X-10897742Y-1346700D01*
X-1995672Y-1346700D01*
X-1992600Y-5060950D01*
X-1833850Y-5219700D01*
X1295400Y-5219700D01*
X1295400Y-870450D01*
X1549400Y-870450D01*
X1549400Y-5219700D01*
X4678650Y-5219700D01*
X4837400Y-5060950D01*
X4840472Y-1346700D01*
X4828212Y-1222218D01*
X4791902Y-1102520D01*
X4732937Y-992206D01*
X4653585Y-895515D01*
X4556894Y-816163D01*
X4446580Y-757198D01*
X4326882Y-720888D01*
X4202400Y-708628D01*
X1708150Y-711700D01*
X1549400Y-870450D01*
X1295400Y-870450D01*
X1136650Y-711700D01*
X-1357600Y-708628D01*
X-1482082Y-720888D01*
X-1601780Y-757198D01*
X-1712094Y-816163D01*
X-1808785Y-895515D01*
X-1888137Y-992206D01*
X-1947102Y-1102520D01*
X-1983412Y-1222218D01*
X-1995672Y-1346700D01*
X-10897742Y-1346700D01*
X-11067285Y-1252268D01*
X-11067352Y-1252231D01*
X-11120620Y-1222604D01*
X-11445264Y-1041828D01*
X-11748731Y-872285D01*
X-12032291Y-713220D01*
X-12297642Y-563634D01*
X-12545401Y-423140D01*
X-12778008Y-290318D01*
X-12995505Y-165112D01*
X-13200073Y-46243D01*
X-13392990Y67048D01*
X-13575273Y175371D01*
X-13748199Y279480D01*
X-13913421Y380359D01*
X-14072353Y478852D01*
X-14225814Y575432D01*
X-14375630Y671200D01*
X-14522855Y766772D01*
X-14669185Y863177D01*
X-14815616Y960988D01*
X-14963808Y1061220D01*
X-14983626Y1074712D01*
X-15464598Y1412457D01*
X-15920004Y1753023D01*
X-16350927Y2097346D01*
X-16757922Y2446001D01*
X-17141395Y2799435D01*
X-17501905Y3158234D01*
X-17839896Y3522876D01*
X-18155916Y3893946D01*
X-18450436Y4271960D01*
X-18723947Y4657452D01*
X-18976992Y5051047D01*
X-19210041Y5453281D01*
X-19423599Y5864763D01*
X-19618298Y6286409D01*
X-19749642Y6603201D01*
X-19819713Y6786302D01*
X-19878634Y6953687D01*
X-19928338Y7111356D01*
X-19971008Y7266125D01*
X-20008972Y7425702D01*
X-20010126Y7430948D01*
X-20046146Y7599434D01*
X-20079407Y7764721D01*
X-20096957Y7858300D01*
X-1995672Y7858300D01*
X-1995672Y5258300D01*
X-1983412Y5133818D01*
X-1947102Y5014120D01*
X-1888137Y4903806D01*
X-1808785Y4807115D01*
X-1712094Y4727763D01*
X-1601780Y4668798D01*
X-1482082Y4632488D01*
X-1357600Y4620228D01*
X4202400Y4620228D01*
X4326882Y4632488D01*
X4446580Y4668798D01*
X4556894Y4727763D01*
X4653585Y4807115D01*
X4732937Y4903806D01*
X4791902Y5014120D01*
X4828212Y5133818D01*
X4840472Y5258300D01*
X4840472Y7858300D01*
X4828212Y7982782D01*
X4791902Y8102480D01*
X4732937Y8212794D01*
X4653585Y8309485D01*
X4556894Y8388837D01*
X4446580Y8447802D01*
X4326882Y8484112D01*
X4202400Y8496372D01*
X2182400Y8496372D01*
X2182400Y8541272D01*
X2238286Y8624911D01*
X2308768Y8795071D01*
X2344700Y8975711D01*
X2344700Y9159889D01*
X2308768Y9340529D01*
X2238286Y9510689D01*
X2135962Y9663828D01*
X2005728Y9794062D01*
X1852589Y9896386D01*
X1682429Y9966868D01*
X1501789Y10002800D01*
X1317611Y10002800D01*
X1136971Y9966868D01*
X966811Y9896386D01*
X813672Y9794062D01*
X683438Y9663828D01*
X581114Y9510689D01*
X510632Y9340529D01*
X474700Y9159889D01*
X474700Y8975711D01*
X510632Y8795071D01*
X581114Y8624911D01*
X662401Y8503257D01*
X662401Y8496372D01*
X-1357600Y8496372D01*
X-1482082Y8484112D01*
X-1601780Y8447802D01*
X-1712094Y8388837D01*
X-1808785Y8309485D01*
X-1888137Y8212794D01*
X-1947102Y8102480D01*
X-1983412Y7982782D01*
X-1995672Y7858300D01*
X-20096957Y7858300D01*
X-20110391Y7929927D01*
X-20139419Y8097428D01*
X-20166845Y8269766D01*
X-20193027Y8449574D01*
X-20218270Y8639102D01*
X-20242946Y8841113D01*
X-20267367Y9057938D01*
X-20291861Y9291967D01*
X-20316779Y9545865D01*
X-20342455Y9822084D01*
X-20352182Y9930092D01*
X-20352182Y9930094D01*
X-20376124Y10195874D01*
X-20376145Y10196100D01*
X-20398408Y10438403D01*
X-20398436Y10438709D01*
X-20419251Y10659386D01*
X-20419290Y10659791D01*
X-20438890Y10860696D01*
X-20438942Y10861218D01*
X-20457556Y11044200D01*
X-20457625Y11044859D01*
X-20475485Y11211771D01*
X-20475575Y11212586D01*
X-20492911Y11365279D01*
X-20493026Y11366264D01*
X-20510069Y11506589D01*
X-20510216Y11507751D01*
X-20527198Y11637561D01*
X-20527379Y11638888D01*
X-20544529Y11760034D01*
X-20544745Y11761503D01*
X-20562296Y11875836D01*
X-20562545Y11877393D01*
X-20580727Y11986765D01*
X-20580999Y11988340D01*
X-20600042Y12094603D01*
X-20600324Y12096120D01*
X-20620461Y12201124D01*
X-20620732Y12202497D01*
X-20642192Y12308095D01*
X-20642405Y12309123D01*
X-20659066Y12387772D01*
X-20659866Y12391300D01*
X-20750139Y12764649D01*
X-20751952Y12771341D01*
X-20858394Y13125650D01*
X-20860783Y13132820D01*
X-20931895Y13326812D01*
X-10356700Y13326812D01*
X-10356639Y13322282D01*
X-10356557Y13319136D01*
X-10351771Y13193947D01*
X-10351572Y13190187D01*
X-10343784Y13075599D01*
X-10343319Y13070365D01*
X-10332568Y12972344D01*
X-10331825Y12966731D01*
X-10326384Y12931640D01*
X-10325197Y12925112D01*
X-10259633Y12611480D01*
X-10257402Y12602466D01*
X-10171949Y12304411D01*
X-10168851Y12295008D01*
X-10063213Y12011945D01*
X-10059192Y12002381D01*
X-9933076Y11733726D01*
X-9928142Y11724271D01*
X-9781251Y11469438D01*
X-9775499Y11460367D01*
X-9607539Y11218771D01*
X-9601133Y11210331D01*
X-9411810Y10981387D01*
X-9406110Y10974951D01*
X-9266693Y10827874D01*
X-9260919Y10822160D01*
X-9046494Y10623140D01*
X-9039254Y10616910D01*
X-8808815Y10433241D01*
X-8801272Y10427672D01*
X-8553261Y10258332D01*
X-8545701Y10253552D01*
X-8278564Y10097518D01*
X-8271255Y10093563D01*
X-7983433Y9949814D01*
X-7978261Y9947375D01*
X-7827581Y9880417D01*
X-7823998Y9878890D01*
X-7690598Y9824445D01*
X-7685154Y9822368D01*
X-7565976Y9779994D01*
X-7558430Y9777573D01*
X-7446421Y9745461D01*
X-7437690Y9743290D01*
X-7325798Y9719634D01*
X-7317524Y9718168D01*
X-7198696Y9701159D01*
X-7192785Y9700454D01*
X-7086846Y9690328D01*
X-7081528Y9689932D01*
X-7023387Y9686830D01*
X-7019861Y9686691D01*
X-6940827Y9684674D01*
X-6938906Y9684640D01*
X-6843461Y9683649D01*
X-6842172Y9683642D01*
X-6734795Y9683617D01*
X-6733791Y9683621D01*
X-6618965Y9684502D01*
X-6618075Y9684512D01*
X-6500280Y9686241D01*
X-6499397Y9686257D01*
X-6383115Y9688773D01*
X-6382128Y9688798D01*
X-6271840Y9692042D01*
X-6270600Y9692084D01*
X-6170786Y9695996D01*
X-6169002Y9696079D01*
X-6084145Y9700601D01*
X-6081898Y9700741D01*
X-6040357Y9703694D01*
X-6036745Y9704002D01*
X-5908579Y9716798D01*
X-5902303Y9717583D01*
X-5785663Y9735130D01*
X-5777726Y9736583D01*
X-5667323Y9760445D01*
X-5658786Y9762603D01*
X-5549330Y9794340D01*
X-5541488Y9796893D01*
X-5427690Y9838067D01*
X-5421452Y9840511D01*
X-5298023Y9892684D01*
X-5293647Y9894632D01*
X-5155296Y9959366D01*
X-5153532Y9960208D01*
X-5132363Y9970513D01*
X-5129535Y9971934D01*
X-4909179Y10086081D01*
X-4903117Y10089434D01*
X-4702509Y10207649D01*
X-4695782Y10211902D01*
X-4509270Y10338188D01*
X-4502551Y10343065D01*
X-4324484Y10481426D01*
X-4318447Y10486423D01*
X-4143174Y10640859D01*
X-4139034Y10644674D01*
X-4025183Y10754327D01*
X-4023004Y10756476D01*
X-3915714Y10864913D01*
X-3913569Y10867135D01*
X-3821548Y10964779D01*
X-3818663Y10967946D01*
X-3737519Y11060086D01*
X-3734247Y11063954D01*
X-3659587Y11155878D01*
X-3656478Y11159865D01*
X-3583911Y11256860D01*
X-3581431Y11260293D01*
X-3506563Y11367648D01*
X-3505249Y11369569D01*
X-3468727Y11424039D01*
X-3465701Y11428776D01*
X-3311781Y11681879D01*
X-3306784Y11690902D01*
X-3174901Y11953683D01*
X-3170615Y11963174D01*
X-3060208Y12237108D01*
X-3056776Y12246723D01*
X-2967279Y12533286D01*
X-2964735Y12542681D01*
X-2895586Y12843347D01*
X-2894270Y12849839D01*
X-2869793Y12989177D01*
X-2868690Y12996813D01*
X-2861676Y13058547D01*
X-2861111Y13064970D01*
X-2855994Y13146923D01*
X-2855818Y13150578D01*
X-2852561Y13247644D01*
X-2852501Y13250202D01*
X-2851195Y13347700D01*
X206817Y13347700D01*
X292450Y13301928D01*
X459046Y13251392D01*
X632300Y13234328D01*
X1882300Y13234328D01*
X2055554Y13251392D01*
X2222150Y13301928D01*
X2307783Y13347700D01*
X5925341Y13347700D01*
X5925376Y13311484D01*
X5925377Y13311112D01*
X5925923Y13170875D01*
X5925928Y13170156D01*
X5927073Y13050237D01*
X5927090Y13049015D01*
X5929049Y12946872D01*
X5929101Y12944951D01*
X5932084Y12858042D01*
X5932214Y12855186D01*
X5936435Y12780971D01*
X5936725Y12776986D01*
X5942395Y12712924D01*
X5942958Y12707763D01*
X5950290Y12651313D01*
X5951223Y12645271D01*
X5960430Y12593890D01*
X5961702Y12587688D01*
X5972994Y12538837D01*
X5974377Y12533404D01*
X5987969Y12484542D01*
X5989127Y12480622D01*
X6005229Y12429206D01*
X6005875Y12427201D01*
X6019194Y12387021D01*
X6020560Y12383114D01*
X6047980Y12308615D01*
X6049641Y12304344D01*
X6087084Y12212932D01*
X6088237Y12210207D01*
X6133295Y12107119D01*
X6134241Y12105008D01*
X6184508Y11995483D01*
X6185407Y11993567D01*
X6238476Y11882841D01*
X6239459Y11880834D01*
X6292922Y11774146D01*
X6294166Y11771729D01*
X6345617Y11674317D01*
X6346468Y11672734D01*
X6349299Y11667553D01*
X6351376Y11663896D01*
X6505120Y11403416D01*
X6509942Y11395867D01*
X6674352Y11157476D01*
X6680266Y11149577D01*
X6857076Y10931590D01*
X6864012Y10923726D01*
X7054955Y10724455D01*
X7062688Y10717038D01*
X7269497Y10534795D01*
X7277671Y10528172D01*
X7502080Y10361272D01*
X7510274Y10355662D01*
X7754017Y10202416D01*
X7761185Y10198230D01*
X7978671Y10080574D01*
X7984088Y10077809D01*
X8216627Y9966053D01*
X8222071Y9963593D01*
X8439511Y9871415D01*
X8446194Y9868802D01*
X8649294Y9795940D01*
X8657491Y9793309D01*
X8847010Y9739499D01*
X8857009Y9737093D01*
X9033707Y9702074D01*
X9041644Y9700761D01*
X9101848Y9692750D01*
X9108283Y9692060D01*
X9166525Y9687313D01*
X9171070Y9687024D01*
X9249981Y9683434D01*
X9252507Y9683345D01*
X9347379Y9680919D01*
X9349119Y9680886D01*
X9455247Y9679627D01*
X9456658Y9679618D01*
X9569335Y9679534D01*
X9570642Y9679540D01*
X9685163Y9680633D01*
X9686541Y9680653D01*
X9798200Y9682931D01*
X9799836Y9682975D01*
X9903927Y9686441D01*
X9906050Y9686530D01*
X9992214Y9690843D01*
X9994941Y9691009D01*
X10141318Y9701497D01*
X10145220Y9701837D01*
X10275155Y9715185D01*
X10280771Y9715888D01*
X10399034Y9733391D01*
X10406080Y9734638D01*
X10517440Y9757593D01*
X10525124Y9759428D01*
X10634351Y9789129D01*
X10641630Y9791345D01*
X10753494Y9829090D01*
X10759524Y9831296D01*
X10878794Y9878380D01*
X10883222Y9880225D01*
X11014669Y9937945D01*
X11017564Y9939260D01*
X11165048Y10008476D01*
X11168586Y10010204D01*
X11387278Y10121238D01*
X11393144Y10124412D01*
X11591242Y10238449D01*
X11597862Y10242535D01*
X11780170Y10362916D01*
X11786983Y10367743D01*
X11958307Y10497808D01*
X11964679Y10502979D01*
X12129822Y10646070D01*
X12134615Y10650442D01*
X12255361Y10766375D01*
X12259670Y10770717D01*
X12425991Y10946565D01*
X12431514Y10952801D01*
X12577560Y11129050D01*
X12583198Y11136382D01*
X12713440Y11319158D01*
X12718507Y11326844D01*
X12837417Y11522276D01*
X12840921Y11528413D01*
X12919249Y11674923D01*
X12922619Y11681706D01*
X13051873Y11962565D01*
X13055545Y11971408D01*
X13165119Y12266174D01*
X13168023Y12274949D01*
X13256834Y12580229D01*
X13259068Y12589087D01*
X13326032Y12901490D01*
X13327134Y12907282D01*
X13341994Y12996674D01*
X13342835Y13002593D01*
X13354517Y13101428D01*
X13355110Y13107831D01*
X13363010Y13225545D01*
X13363230Y13229995D01*
X13367393Y13360357D01*
X13367457Y13363976D01*
X13367926Y13500756D01*
X13367893Y13504137D01*
X13364715Y13641105D01*
X13364579Y13644730D01*
X13357796Y13775654D01*
X13357486Y13780112D01*
X13347143Y13898762D01*
X13346535Y13904323D01*
X13335825Y13985610D01*
X13334470Y13993809D01*
X13272423Y14305577D01*
X13270073Y14315348D01*
X13184560Y14617725D01*
X13181404Y14627390D01*
X13072842Y14919635D01*
X13068894Y14929079D01*
X12937700Y15210448D01*
X12932993Y15219561D01*
X12779585Y15489314D01*
X12774175Y15497995D01*
X12598970Y15755387D01*
X12592926Y15763545D01*
X12396339Y16007834D01*
X12389746Y16015394D01*
X12172197Y16245839D01*
X12165629Y16252309D01*
X11960281Y16440401D01*
X11953165Y16446454D01*
X11752735Y16604590D01*
X11744981Y16610245D01*
X11522705Y16759846D01*
X11515361Y16764433D01*
X11270172Y16906193D01*
X11265187Y16908929D01*
X11145682Y16971058D01*
X11143892Y16971970D01*
X11052149Y17017837D01*
X11050814Y17018495D01*
X10968505Y17058447D01*
X10965838Y17059703D01*
X10890503Y17094133D01*
X10886265Y17095978D01*
X10815445Y17125278D01*
X10809610Y17127525D01*
X10740844Y17152086D01*
X10733756Y17154386D01*
X10664587Y17174603D01*
X10656928Y17176585D01*
X10584894Y17192849D01*
X10577507Y17194288D01*
X10500150Y17206993D01*
X10493705Y17207883D01*
X10408565Y17217420D01*
X10403408Y17217891D01*
X10308026Y17224653D01*
X10304187Y17224867D01*
X10196103Y17229247D01*
X10193423Y17229327D01*
X10070178Y17231717D01*
X10068431Y17231739D01*
X9927565Y17232532D01*
X9926526Y17232534D01*
X9765581Y17232123D01*
X9765059Y17232120D01*
X9581574Y17230897D01*
X9581436Y17230896D01*
X9549416Y17230648D01*
X9549362Y17230648D01*
X9397536Y17229407D01*
X9397375Y17229405D01*
X9268605Y17228189D01*
X9268297Y17228186D01*
X9160237Y17226904D01*
X9159705Y17226897D01*
X9070012Y17225457D01*
X9069140Y17225440D01*
X8995470Y17223751D01*
X8994086Y17223711D01*
X8934092Y17221681D01*
X8931970Y17221592D01*
X8883310Y17219130D01*
X8880201Y17218934D01*
X8840530Y17215950D01*
X8836298Y17215561D01*
X8803271Y17211962D01*
X8798208Y17211307D01*
X8769480Y17207002D01*
X8764525Y17206159D01*
X8737754Y17201057D01*
X8734541Y17200401D01*
X8715583Y17196278D01*
X8708435Y17194505D01*
X8591407Y17161847D01*
X8582088Y17158855D01*
X8448810Y17110321D01*
X8442038Y17107632D01*
X8295112Y17044365D01*
X8289780Y17041922D01*
X8131810Y16965068D01*
X8127322Y16962773D01*
X7960909Y16873477D01*
X7958258Y16872014D01*
X7905500Y16842063D01*
X7900403Y16839009D01*
X7661597Y16688250D01*
X7653461Y16682660D01*
X7420658Y16509013D01*
X7413456Y16503222D01*
X7189096Y16308949D01*
X7182604Y16302919D01*
X6969128Y16090280D01*
X6963178Y16083932D01*
X6763025Y15855190D01*
X6757605Y15848558D01*
X6580504Y15616261D01*
X6576261Y15610351D01*
X6497941Y15494407D01*
X6495292Y15490320D01*
X6414630Y15360437D01*
X6412611Y15357069D01*
X6332118Y15218044D01*
X6330404Y15214989D01*
X6252596Y15071623D01*
X6250994Y15068573D01*
X6178381Y14925662D01*
X6176731Y14922293D01*
X6111829Y14784636D01*
X6109968Y14780498D01*
X6055288Y14652895D01*
X6052992Y14647153D01*
X6011047Y14534400D01*
X6009500Y14529996D01*
X6006138Y14519830D01*
X6005669Y14518385D01*
X5990116Y14469398D01*
X5989145Y14466191D01*
X5975906Y14420331D01*
X5974588Y14415399D01*
X5963480Y14370172D01*
X5962154Y14364141D01*
X5952991Y14317058D01*
X5951947Y14310888D01*
X5944545Y14259455D01*
X5943880Y14253998D01*
X5938054Y14195723D01*
X5937696Y14191400D01*
X5933262Y14123793D01*
X5933095Y14120639D01*
X5929867Y14041206D01*
X5929797Y14039035D01*
X5927592Y13945285D01*
X5927567Y13943870D01*
X5926199Y13833310D01*
X5926191Y13832438D01*
X5925476Y13702578D01*
X5925474Y13702086D01*
X5925310Y13601700D01*
X3332336Y13601700D01*
X3478189Y13662114D01*
X3631328Y13764438D01*
X3761562Y13894672D01*
X3863886Y14047811D01*
X3934368Y14217971D01*
X3970300Y14398611D01*
X3970300Y14582789D01*
X3934368Y14763429D01*
X3863886Y14933589D01*
X3761562Y15086728D01*
X3631328Y15216962D01*
X3478189Y15319286D01*
X3308029Y15389768D01*
X3127389Y15425700D01*
X2943211Y15425700D01*
X2762571Y15389768D01*
X2635926Y15337310D01*
X2620705Y15365786D01*
X2510262Y15500362D01*
X2375686Y15610805D01*
X2222150Y15692872D01*
X2055554Y15743408D01*
X1882300Y15760472D01*
X632300Y15760472D01*
X459046Y15743408D01*
X292450Y15692872D01*
X138914Y15610805D01*
X4338Y15500362D01*
X-106105Y15365786D01*
X-188172Y15212250D01*
X-238708Y15045654D01*
X-255772Y14872400D01*
X-255772Y14122400D01*
X-238708Y13949146D01*
X-188172Y13782550D01*
X-106105Y13629014D01*
X-83689Y13601700D01*
X-2854109Y13601700D01*
X-2857405Y13693702D01*
X-2857531Y13696400D01*
X-2863018Y13792427D01*
X-2863306Y13796381D01*
X-2870432Y13876880D01*
X-2870962Y13881780D01*
X-2875367Y13916249D01*
X-2876522Y13923582D01*
X-2935421Y14237337D01*
X-2937656Y14247099D01*
X-3020294Y14552279D01*
X-3023320Y14561919D01*
X-3129268Y14857644D01*
X-3133074Y14867063D01*
X-3261904Y15152453D01*
X-3266462Y15161556D01*
X-3417747Y15435728D01*
X-3423010Y15444425D01*
X-3596320Y15706501D01*
X-3602232Y15714710D01*
X-3797141Y15963808D01*
X-3802656Y15970385D01*
X-3953979Y16138949D01*
X-3960131Y16145340D01*
X-4165290Y16344029D01*
X-4172855Y16350790D01*
X-4400058Y16538106D01*
X-4407611Y16543873D01*
X-4655836Y16719076D01*
X-4663309Y16723966D01*
X-4931533Y16886316D01*
X-4937684Y16889808D01*
X-5128339Y16991156D01*
X-5132638Y16993338D01*
X-5260233Y17055072D01*
X-5265053Y17057281D01*
X-5385292Y17109380D01*
X-5391674Y17111943D01*
X-5508092Y17155062D01*
X-5515749Y17157624D01*
X-5631875Y17192420D01*
X-5640184Y17194606D01*
X-5759551Y17221733D01*
X-5767696Y17223306D01*
X-5893836Y17243421D01*
X-5901095Y17244365D01*
X-6037538Y17258122D01*
X-6043481Y17258581D01*
X-6193760Y17266636D01*
X-6198277Y17266798D01*
X-6365923Y17269808D01*
X-6369133Y17269825D01*
X-6557679Y17268444D01*
X-6559087Y17268425D01*
X-6599988Y17267672D01*
X-6600654Y17267658D01*
X-6787190Y17263244D01*
X-6788554Y17263205D01*
X-6952537Y17257562D01*
X-6954661Y17257471D01*
X-7098932Y17250086D01*
X-7102022Y17249890D01*
X-7229417Y17240251D01*
X-7233648Y17239860D01*
X-7347006Y17227457D01*
X-7352460Y17226740D01*
X-7454619Y17211060D01*
X-7461163Y17209879D01*
X-7554962Y17190409D01*
X-7562170Y17188692D01*
X-7650447Y17164923D01*
X-7657655Y17162752D01*
X-7743247Y17134169D01*
X-7749720Y17131810D01*
X-7835467Y17097904D01*
X-7840677Y17095708D01*
X-7929416Y17055965D01*
X-7933147Y17054222D01*
X-8027716Y17008131D01*
X-8029116Y17007438D01*
X-8032641Y17005666D01*
X-8035114Y17004388D01*
X-8253376Y16888607D01*
X-8258967Y16885458D01*
X-8457380Y16766994D01*
X-8463631Y16763010D01*
X-8647720Y16637977D01*
X-8654030Y16633402D01*
X-8829319Y16497918D01*
X-8835066Y16493201D01*
X-9007077Y16343380D01*
X-9010825Y16339982D01*
X-9102878Y16253119D01*
X-9107319Y16248717D01*
X-9334430Y16012221D01*
X-9340810Y16005053D01*
X-9545590Y15756723D01*
X-9551577Y15748858D01*
X-9733856Y15489014D01*
X-9739321Y15480525D01*
X-9898933Y15209486D01*
X-9903761Y15200477D01*
X-10040535Y14918562D01*
X-10044633Y14909168D01*
X-10158402Y14616699D01*
X-10161710Y14607071D01*
X-10252306Y14304365D01*
X-10254798Y14294661D01*
X-10322051Y13982039D01*
X-10323135Y13976374D01*
X-10332407Y13921195D01*
X-10333229Y13915524D01*
X-10344047Y13826815D01*
X-10344666Y13820382D01*
X-10352284Y13712445D01*
X-10352513Y13708172D01*
X-10356971Y13586974D01*
X-10357050Y13583627D01*
X-10357079Y13580812D01*
X-21033008Y13580812D01*
X-21127970Y13796237D01*
X-21131674Y13803929D01*
X-21290768Y14107718D01*
X-21295128Y14115384D01*
X-21473154Y14404531D01*
X-21478095Y14411958D01*
X-21675742Y14687563D01*
X-21681138Y14694560D01*
X-21899097Y14957722D01*
X-21904783Y14964133D01*
X-22143746Y15215952D01*
X-22149541Y15221679D01*
X-22410196Y15463253D01*
X-22415926Y15468253D01*
X-22698964Y15700683D01*
X-22702459Y15703453D01*
X-22777847Y15761051D01*
X-22778557Y15761589D01*
X-22833554Y15803000D01*
X-22873090Y15833896D01*
X-22898747Y15856544D01*
X-22915148Y15874623D01*
X-22929165Y15895135D01*
X-22945717Y15926599D01*
X-22966946Y15974749D01*
X-22994480Y16042690D01*
X-23021380Y16110412D01*
X-23130028Y16412851D01*
X-23215913Y16715066D01*
X-23279582Y17017354D01*
X-23320881Y17318039D01*
X-23339658Y17615391D01*
X-23335787Y17907683D01*
X-23309013Y18194874D01*
X-23292517Y18303319D01*
X-23231776Y18588912D01*
X-23226387Y18606800D01*
X-9470272Y18606800D01*
X-9458012Y18482318D01*
X-9421702Y18362620D01*
X-9362737Y18252306D01*
X-9283385Y18155615D01*
X-9186694Y18076263D01*
X-9076380Y18017298D01*
X-8956682Y17980988D01*
X-8832200Y17968728D01*
X-8492950Y17971800D01*
X-8334200Y18130550D01*
X-8334200Y19354800D01*
X-8080200Y19354800D01*
X-8080200Y18130550D01*
X-7921450Y17971800D01*
X-7582200Y17968728D01*
X-7457718Y17980988D01*
X-7338020Y18017298D01*
X-7227706Y18076263D01*
X-7131015Y18155615D01*
X-7051663Y18252306D01*
X-6992698Y18362620D01*
X-6956388Y18482318D01*
X-6944128Y18606800D01*
X-6947200Y19196050D01*
X-7105950Y19354800D01*
X-8080200Y19354800D01*
X-8334200Y19354800D01*
X-9308450Y19354800D01*
X-9467200Y19196050D01*
X-9470272Y18606800D01*
X-23226387Y18606800D01*
X-23148363Y18865738D01*
X-23042567Y19134599D01*
X-22914996Y19394731D01*
X-22766249Y19645354D01*
X-22596935Y19885649D01*
X-22407647Y20114812D01*
X-22198991Y20332005D01*
X-21971587Y20536378D01*
X-21726038Y20727092D01*
X-21462988Y20903275D01*
X-21182309Y21064501D01*
X-21008440Y21152277D01*
X-20742315Y21270965D01*
X-20474265Y21371994D01*
X-20199478Y21456866D01*
X-19913614Y21526786D01*
X-19611982Y21582953D01*
X-19353150Y21619043D01*
X-19296236Y21624057D01*
X-19216793Y21628195D01*
X-19120180Y21631279D01*
X-19011954Y21633237D01*
X-18897094Y21634052D01*
X-18780912Y21633719D01*
X-18668070Y21632243D01*
X-18563566Y21629638D01*
X-18472840Y21625946D01*
X-18400846Y21621242D01*
X-18373280Y21618507D01*
X-18052460Y21571693D01*
X-17749382Y21508835D01*
X-17460132Y21428997D01*
X-17181087Y21331213D01*
X-16907417Y21213902D01*
X-16807470Y21165568D01*
X-16566536Y21037312D01*
X-16343270Y20901093D01*
X-16131781Y20752929D01*
X-15926791Y20588999D01*
X-15722733Y20405021D01*
X-15606399Y20291122D01*
X-15382311Y20065724D01*
X-15363112Y20049874D01*
X-15341190Y20038073D01*
X-15317386Y20030777D01*
X-15292617Y20028265D01*
X-15267834Y20030633D01*
X-15243988Y20037790D01*
X-15226067Y20046870D01*
X-15026096Y20168964D01*
X-14708231Y20356800D01*
X-9470272Y20356800D01*
X-9467200Y19767550D01*
X-9308450Y19608800D01*
X-8334200Y19608800D01*
X-8334200Y20833050D01*
X-8080200Y20833050D01*
X-8080200Y19608800D01*
X-7105950Y19608800D01*
X-6947200Y19767550D01*
X-6945432Y20106800D01*
X-6670272Y20106800D01*
X-6670272Y18856800D01*
X-6653208Y18683546D01*
X-6602672Y18516950D01*
X-6520605Y18363414D01*
X-6410162Y18228838D01*
X-6275586Y18118395D01*
X-6122050Y18036328D01*
X-5955454Y17985792D01*
X-5782200Y17968728D01*
X-5032200Y17968728D01*
X-4858946Y17985792D01*
X-4692350Y18036328D01*
X-4538814Y18118395D01*
X-4404238Y18228838D01*
X-4293795Y18363414D01*
X-4211728Y18516950D01*
X-4161192Y18683546D01*
X-4157424Y18721800D01*
X-1241901Y18721800D01*
X-250099Y17729998D01*
X-255772Y17672400D01*
X-255772Y16922400D01*
X-238708Y16749146D01*
X-188172Y16582550D01*
X-106105Y16429014D01*
X4338Y16294438D01*
X138914Y16183995D01*
X292450Y16101928D01*
X459046Y16051392D01*
X632300Y16034328D01*
X1882300Y16034328D01*
X2055554Y16051392D01*
X2222150Y16101928D01*
X2375686Y16183995D01*
X2510262Y16294438D01*
X2620705Y16429014D01*
X2702772Y16582550D01*
X2753308Y16749146D01*
X2770372Y16922400D01*
X2770372Y17672400D01*
X2753308Y17845654D01*
X2702772Y18012250D01*
X2620705Y18165786D01*
X2510262Y18300362D01*
X2375686Y18410805D01*
X2222150Y18492872D01*
X2055554Y18543408D01*
X1882300Y18560472D01*
X1069030Y18560472D01*
X1022702Y18606800D01*
X6976228Y18606800D01*
X6988488Y18482318D01*
X7024798Y18362620D01*
X7083763Y18252306D01*
X7163115Y18155615D01*
X7259806Y18076263D01*
X7370120Y18017298D01*
X7489818Y17980988D01*
X7614300Y17968728D01*
X7953550Y17971800D01*
X8112300Y18130550D01*
X8112300Y19354800D01*
X8366300Y19354800D01*
X8366300Y18130550D01*
X8525050Y17971800D01*
X8864300Y17968728D01*
X8988782Y17980988D01*
X9108480Y18017298D01*
X9218794Y18076263D01*
X9315485Y18155615D01*
X9394837Y18252306D01*
X9453802Y18362620D01*
X9490112Y18482318D01*
X9502372Y18606800D01*
X9499300Y19196050D01*
X9340550Y19354800D01*
X8366300Y19354800D01*
X8112300Y19354800D01*
X7138050Y19354800D01*
X6979300Y19196050D01*
X6976228Y18606800D01*
X1022702Y18606800D01*
X558616Y19070885D01*
X632300Y19063628D01*
X1882300Y19063628D01*
X2055554Y19080692D01*
X2222150Y19131228D01*
X2375686Y19213295D01*
X2510262Y19323738D01*
X2620705Y19458314D01*
X2642526Y19499137D01*
X2800671Y19433632D01*
X2981311Y19397700D01*
X3165489Y19397700D01*
X3346129Y19433632D01*
X3516289Y19504114D01*
X3669428Y19606438D01*
X3799662Y19736672D01*
X3901986Y19889811D01*
X3972468Y20059971D01*
X4008400Y20240611D01*
X4008400Y20356800D01*
X6976228Y20356800D01*
X6979300Y19767550D01*
X7138050Y19608800D01*
X8112300Y19608800D01*
X8112300Y20833050D01*
X7953550Y20991800D01*
X7614300Y20994872D01*
X7489818Y20982612D01*
X7370120Y20946302D01*
X7259806Y20887337D01*
X7163115Y20807985D01*
X7083763Y20711294D01*
X7024798Y20600980D01*
X6988488Y20481282D01*
X6976228Y20356800D01*
X4008400Y20356800D01*
X4008400Y20424789D01*
X3972468Y20605429D01*
X3901986Y20775589D01*
X3799662Y20928728D01*
X3669428Y21058962D01*
X3516289Y21161286D01*
X3346129Y21231768D01*
X3165489Y21267700D01*
X2981311Y21267700D01*
X2800671Y21231768D01*
X2637274Y21164087D01*
X2620705Y21195086D01*
X2510262Y21329662D01*
X2375686Y21440105D01*
X2222150Y21522172D01*
X2055554Y21572708D01*
X1882300Y21589772D01*
X632300Y21589772D01*
X459046Y21572708D01*
X292450Y21522172D01*
X138914Y21440105D01*
X4338Y21329662D01*
X-106105Y21195086D01*
X-188172Y21041550D01*
X-238708Y20874954D01*
X-255772Y20701700D01*
X-255772Y19951700D01*
X-248515Y19878016D01*
X-363296Y19992797D01*
X-387099Y20021801D01*
X-502824Y20116774D01*
X-634853Y20187346D01*
X-778114Y20230803D01*
X-889767Y20241800D01*
X-889778Y20241800D01*
X-927100Y20245476D01*
X-964422Y20241800D01*
X-4157424Y20241800D01*
X-4161192Y20280054D01*
X-4211728Y20446650D01*
X-4293795Y20600186D01*
X-4404238Y20734762D01*
X-4538814Y20845205D01*
X-4692350Y20927272D01*
X-4858946Y20977808D01*
X-5032200Y20994872D01*
X-5782200Y20994872D01*
X-5955454Y20977808D01*
X-6122050Y20927272D01*
X-6275586Y20845205D01*
X-6410162Y20734762D01*
X-6520605Y20600186D01*
X-6602672Y20446650D01*
X-6653208Y20280054D01*
X-6670272Y20106800D01*
X-6945432Y20106800D01*
X-6944128Y20356800D01*
X-6956388Y20481282D01*
X-6992698Y20600980D01*
X-7051663Y20711294D01*
X-7131015Y20807985D01*
X-7227706Y20887337D01*
X-7338020Y20946302D01*
X-7457718Y20982612D01*
X-7582200Y20994872D01*
X-7921450Y20991800D01*
X-8080200Y20833050D01*
X-8334200Y20833050D01*
X-8492950Y20991800D01*
X-8832200Y20994872D01*
X-8956682Y20982612D01*
X-9076380Y20946302D01*
X-9186694Y20887337D01*
X-9283385Y20807985D01*
X-9362737Y20711294D01*
X-9421702Y20600980D01*
X-9458012Y20481282D01*
X-9470272Y20356800D01*
X-14708231Y20356800D01*
X-14270810Y20615285D01*
X-13503057Y21039636D01*
X-12722365Y21442343D01*
X-11928739Y21823430D01*
X-11122450Y22182784D01*
X-10303545Y22520400D01*
X-9472321Y22836160D01*
X-8628817Y23130053D01*
X-7773280Y23401990D01*
X-7427213Y23501700D01*
X-255772Y23501700D01*
X-255772Y22751700D01*
X-238708Y22578446D01*
X-188172Y22411850D01*
X-106105Y22258314D01*
X4338Y22123738D01*
X138914Y22013295D01*
X292450Y21931228D01*
X459046Y21880692D01*
X632300Y21863628D01*
X1882300Y21863628D01*
X2055554Y21880692D01*
X2222150Y21931228D01*
X2307402Y21976796D01*
X2544800Y21739398D01*
X2568599Y21710399D01*
X2684324Y21615426D01*
X2816353Y21544854D01*
X2959614Y21501397D01*
X3071267Y21490400D01*
X3071276Y21490400D01*
X3108599Y21486724D01*
X3145922Y21490400D01*
X7955899Y21490400D01*
X8489774Y20956524D01*
X8366300Y20833050D01*
X8366300Y19608800D01*
X9340550Y19608800D01*
X9499300Y19767550D01*
X9500231Y19946068D01*
X9776228Y19670070D01*
X9776228Y18856800D01*
X9793292Y18683546D01*
X9843828Y18516950D01*
X9925895Y18363414D01*
X10036338Y18228838D01*
X10170914Y18118395D01*
X10324450Y18036328D01*
X10491046Y17985792D01*
X10664300Y17968728D01*
X11414300Y17968728D01*
X11587554Y17985792D01*
X11754150Y18036328D01*
X11907686Y18118395D01*
X12042262Y18228838D01*
X12152705Y18363414D01*
X12234772Y18516950D01*
X12285308Y18683546D01*
X12302372Y18856800D01*
X12302372Y20106800D01*
X12285308Y20280054D01*
X12234772Y20446650D01*
X12152705Y20600186D01*
X12042262Y20734762D01*
X11907686Y20845205D01*
X11754150Y20927272D01*
X11587554Y20977808D01*
X11414300Y20994872D01*
X10664300Y20994872D01*
X10606702Y20989199D01*
X8834504Y22761397D01*
X8810701Y22790401D01*
X8694976Y22885374D01*
X8562947Y22955946D01*
X8419686Y22999403D01*
X8308033Y23010400D01*
X8308022Y23010400D01*
X8270700Y23014076D01*
X8233378Y23010400D01*
X3423402Y23010400D01*
X2796103Y23637698D01*
X2772301Y23666701D01*
X2750346Y23684719D01*
X2702772Y23841550D01*
X2620705Y23995086D01*
X2510262Y24129662D01*
X2375686Y24240105D01*
X2222150Y24322172D01*
X2055554Y24372708D01*
X1882300Y24389772D01*
X632300Y24389772D01*
X459046Y24372708D01*
X292450Y24322172D01*
X138914Y24240105D01*
X4338Y24129662D01*
X-106105Y23995086D01*
X-188172Y23841550D01*
X-238708Y23674954D01*
X-255772Y23501700D01*
X-7427213Y23501700D01*
X-6905800Y23651931D01*
X-6026592Y23879801D01*
X-5135815Y24085541D01*
X-4233636Y24269089D01*
X-3319955Y24430432D01*
X-2628809Y24536593D01*
X-2268640Y24586114D01*
X-1890047Y24633842D01*
X-1500851Y24678921D01*
X-1108749Y24720520D01*
X-721096Y24757849D01*
X-345107Y24790128D01*
X-92350Y24809324D01*
X111392Y24823720D01*
X295749Y24836263D01*
X463339Y24846920D01*
X616713Y24855662D01*
X758914Y24862488D01*
X892601Y24867380D01*
X1020642Y24870331D01*
X1146069Y24871335D01*
X1271622Y24870374D01*
M02*
